<svg xmlns="http://www.w3.org/2000/svg" xmlns:xlink="http://www.w3.org/1999/xlink" width="167" zoomAndPan="magnify" viewBox="0 0 125.25 30.000001" height="40" preserveAspectRatio="xMidYMid meet" version="1.0"><defs><g/><clipPath id="2655a72f9e"><path d="M 1.65625 1.453125 L 15 1.453125 L 15 23.890625 L 1.65625 23.890625 Z M 1.65625 1.453125 " clip-rule="nonzero"/></clipPath><clipPath id="18bbbf4b34"><path d="M 26 23 L 32 23 L 32 29.03125 L 26 29.03125 Z M 26 23 " clip-rule="nonzero"/></clipPath><clipPath id="607a712ce3"><path d="M 32 23 L 37 23 L 37 29.03125 L 32 29.03125 Z M 32 23 " clip-rule="nonzero"/></clipPath><clipPath id="ea3fc302e7"><path d="M 37 23 L 43 23 L 43 29.03125 L 37 29.03125 Z M 37 23 " clip-rule="nonzero"/></clipPath><clipPath id="ad9087feec"><path d="M 43 23 L 49 23 L 49 29.03125 L 43 29.03125 Z M 43 23 " clip-rule="nonzero"/></clipPath><clipPath id="5d86e44c2f"><path d="M 49 23 L 55 23 L 55 29.03125 L 49 29.03125 Z M 49 23 " clip-rule="nonzero"/></clipPath><clipPath id="dfa85daf22"><path d="M 55 23 L 60 23 L 60 29.03125 L 55 29.03125 Z M 55 23 " clip-rule="nonzero"/></clipPath><clipPath id="0237100ca6"><path d="M 62 23 L 68 23 L 68 29.03125 L 62 29.03125 Z M 62 23 " clip-rule="nonzero"/></clipPath><clipPath id="7d83ed27ff"><path d="M 69 23 L 74 23 L 74 29.03125 L 69 29.03125 Z M 69 23 " clip-rule="nonzero"/></clipPath><clipPath id="d88bc0eaa8"><path d="M 74 23 L 76 23 L 76 29.03125 L 74 29.03125 Z M 74 23 " clip-rule="nonzero"/></clipPath><clipPath id="7b922361c0"><path d="M 76 23 L 81 23 L 81 29.03125 L 76 29.03125 Z M 76 23 " clip-rule="nonzero"/></clipPath><clipPath id="69611fec38"><path d="M 81 23 L 87 23 L 87 29.03125 L 81 29.03125 Z M 81 23 " clip-rule="nonzero"/></clipPath><clipPath id="9e77a20727"><path d="M 87 23 L 92 23 L 92 29.03125 L 87 29.03125 Z M 87 23 " clip-rule="nonzero"/></clipPath><clipPath id="3ca821630d"><path d="M 94 23 L 101 23 L 101 29.03125 L 94 29.03125 Z M 94 23 " clip-rule="nonzero"/></clipPath><clipPath id="8897511881"><path d="M 101 23 L 106 23 L 106 29.03125 L 101 29.03125 Z M 101 23 " clip-rule="nonzero"/></clipPath><clipPath id="e1481a0efc"><path d="M 106 23 L 111 23 L 111 29.03125 L 106 29.03125 Z M 106 23 " clip-rule="nonzero"/></clipPath><clipPath id="44b1c2eb81"><path d="M 111 23 L 117 23 L 117 29.03125 L 111 29.03125 Z M 111 23 " clip-rule="nonzero"/></clipPath></defs><g clip-path="url(#2655a72f9e)"><path fill="#ffffff" d="M 13.304688 12.355469 L 8.839844 10.089844 L 11.199219 8.675781 C 13.066406 7.554688 12.960938 5.101562 11 4.113281 L 6 1.578125 C 5.683594 1.421875 5.347656 1.746094 5.546875 2.007812 L 8.167969 5.445312 C 8.367188 5.707031 8.273438 6.066406 7.96875 6.234375 L 1.878906 8.78125 C 1.773438 8.832031 1.710938 8.925781 1.710938 9.03125 L 1.710938 13.8125 C 1.710938 14.054688 2.015625 14.191406 2.234375 14.054688 L 8.0625 10.542969 L 10.464844 13.6875 C 10.664062 13.949219 10.570312 14.304688 10.265625 14.472656 L 1.867188 18.488281 C 1.761719 18.542969 1.699219 18.636719 1.699219 18.742188 L 1.699219 23.523438 C 1.699219 23.765625 2.003906 23.902344 2.222656 23.765625 L 13.503906 16.917969 C 15.371094 15.796875 15.265625 13.34375 13.304688 12.355469 Z M 13.304688 12.355469 " fill-opacity="1" fill-rule="nonzero"/></g><g fill="#ffffff" fill-opacity="1"><g transform="translate(22.084334, 16.846876)"><g><path d="M 8.4375 -13.265625 L 8.4375 -10.28125 L 4.4375 -10.28125 L 4.4375 -8.03125 L 8.296875 -8.03125 L 8.296875 -5.046875 L 4.4375 -5.046875 L 4.4375 0 L 1.203125 0 L 1.203125 -13.265625 Z M 8.4375 -13.265625 "/></g></g></g><g fill="#ffffff" fill-opacity="1"><g transform="translate(30.792575, 16.846876)"><g><path d="M 5.96875 0.296875 C 4.96875 0.296875 4.0625 0.0664062 3.25 -0.390625 C 2.4375 -0.847656 1.789062 -1.476562 1.3125 -2.28125 C 0.84375 -3.082031 0.609375 -3.984375 0.609375 -4.984375 C 0.609375 -5.984375 0.847656 -6.882812 1.328125 -7.6875 C 1.804688 -8.5 2.453125 -9.128906 3.265625 -9.578125 C 4.085938 -10.035156 4.988281 -10.265625 5.96875 -10.265625 C 6.957031 -10.265625 7.859375 -10.035156 8.671875 -9.578125 C 9.492188 -9.128906 10.140625 -8.5 10.609375 -7.6875 C 11.085938 -6.882812 11.328125 -5.992188 11.328125 -5.015625 C 11.328125 -4.003906 11.085938 -3.09375 10.609375 -2.28125 C 10.140625 -1.46875 9.492188 -0.832031 8.671875 -0.375 C 7.859375 0.0703125 6.957031 0.296875 5.96875 0.296875 Z M 8.359375 -4.984375 C 8.359375 -5.421875 8.25 -5.832031 8.03125 -6.21875 C 7.820312 -6.601562 7.535156 -6.910156 7.171875 -7.140625 C 6.804688 -7.367188 6.398438 -7.484375 5.953125 -7.484375 C 5.523438 -7.484375 5.128906 -7.367188 4.765625 -7.140625 C 4.410156 -6.921875 4.125 -6.613281 3.90625 -6.21875 C 3.6875 -5.832031 3.578125 -5.421875 3.578125 -4.984375 C 3.578125 -4.523438 3.679688 -4.101562 3.890625 -3.71875 C 4.109375 -3.34375 4.398438 -3.039062 4.765625 -2.8125 C 5.128906 -2.582031 5.53125 -2.46875 5.96875 -2.46875 C 6.425781 -2.46875 6.835938 -2.582031 7.203125 -2.8125 C 7.566406 -3.050781 7.847656 -3.359375 8.046875 -3.734375 C 8.253906 -4.117188 8.359375 -4.535156 8.359375 -4.984375 Z M 8.359375 -4.984375 "/></g></g></g><g fill="#ffffff" fill-opacity="1"><g transform="translate(42.36776, 16.846876)"><g><path d="M 3.859375 -9.953125 L 3.859375 -8.890625 L 3.890625 -8.890625 C 4.140625 -9.398438 4.46875 -9.757812 4.875 -9.96875 C 5.28125 -10.175781 5.78125 -10.28125 6.375 -10.28125 L 6.375 -7.296875 C 5.53125 -7.285156 4.925781 -7.128906 4.5625 -6.828125 C 4.207031 -6.523438 4.03125 -6.078125 4.03125 -5.484375 L 4.03125 0 L 1.0625 0 L 1.0625 -9.953125 Z M 3.859375 -9.953125 "/></g></g></g><g fill="#ffffff" fill-opacity="1"><g transform="translate(48.513684, 16.846876)"><g><path d="M 5.8125 -2.1875 C 6.195312 -2.1875 6.53125 -2.257812 6.8125 -2.40625 C 7.09375 -2.5625 7.359375 -2.800781 7.609375 -3.125 L 10.65625 -3.125 C 10.1875 -2.03125 9.523438 -1.179688 8.671875 -0.578125 C 7.816406 0.0234375 6.863281 0.328125 5.8125 0.328125 C 4.863281 0.328125 3.984375 0.09375 3.171875 -0.375 C 2.367188 -0.84375 1.726562 -1.476562 1.25 -2.28125 C 0.769531 -3.09375 0.53125 -3.984375 0.53125 -4.953125 C 0.53125 -5.890625 0.765625 -6.765625 1.234375 -7.578125 C 1.703125 -8.398438 2.332031 -9.054688 3.125 -9.546875 C 3.914062 -10.035156 4.789062 -10.28125 5.75 -10.28125 C 6.726562 -10.28125 7.617188 -10.039062 8.421875 -9.5625 C 9.222656 -9.09375 9.851562 -8.441406 10.3125 -7.609375 C 10.769531 -6.785156 11 -5.867188 11 -4.859375 C 11 -4.566406 10.976562 -4.300781 10.9375 -4.0625 L 3.484375 -4.0625 C 3.566406 -3.5 3.820312 -3.046875 4.25 -2.703125 C 4.675781 -2.359375 5.195312 -2.1875 5.8125 -2.1875 Z M 5.75 -7.78125 C 5.195312 -7.78125 4.710938 -7.625 4.296875 -7.3125 C 3.890625 -7.007812 3.628906 -6.597656 3.515625 -6.078125 L 8.03125 -6.078125 C 7.90625 -6.585938 7.632812 -7 7.21875 -7.3125 C 6.8125 -7.625 6.320312 -7.78125 5.75 -7.78125 Z M 5.75 -7.78125 "/></g></g></g><g fill="#ffffff" fill-opacity="1"><g transform="translate(59.730505, 16.846876)"><g><path d="M 3.609375 0 L 0.015625 0 L 3.796875 -5.328125 L 0.453125 -9.953125 L 4.015625 -9.953125 L 5.625 -7.328125 L 7.21875 -9.953125 L 10.75 -9.953125 L 7.40625 -5.328125 L 11.25 0 L 7.609375 0 L 5.625 -3.078125 Z M 3.609375 0 "/></g></g></g><g fill="#ffffff" fill-opacity="1"><g transform="translate(70.66063, 16.846876)"><g><path d="M 4.4375 -4.28125 L 4.4375 0 L 1.203125 0 L 1.203125 -13.265625 L 5.53125 -13.265625 C 6.882812 -13.265625 7.929688 -13.101562 8.671875 -12.78125 C 9.398438 -12.457031 9.988281 -11.925781 10.4375 -11.1875 C 10.882812 -10.457031 11.109375 -9.625 11.109375 -8.6875 C 11.109375 -7.625 10.804688 -6.707031 10.203125 -5.9375 C 9.609375 -5.164062 8.8125 -4.691406 7.8125 -4.515625 L 11.421875 0 L 7.546875 0 L 4.484375 -4.28125 Z M 7.875 -8.5 C 7.875 -9.0625 7.675781 -9.5 7.28125 -9.8125 C 6.894531 -10.125 6.378906 -10.28125 5.734375 -10.28125 L 4.4375 -10.28125 L 4.4375 -6.59375 L 5.703125 -6.59375 C 6.378906 -6.59375 6.910156 -6.753906 7.296875 -7.078125 C 7.679688 -7.398438 7.875 -7.875 7.875 -8.5 Z M 7.875 -8.5 "/></g></g></g><g fill="#ffffff" fill-opacity="1"><g transform="translate(82.002874, 16.846876)"><g><path d="M 5.96875 0.296875 C 4.96875 0.296875 4.0625 0.0664062 3.25 -0.390625 C 2.4375 -0.847656 1.789062 -1.476562 1.3125 -2.28125 C 0.84375 -3.082031 0.609375 -3.984375 0.609375 -4.984375 C 0.609375 -5.984375 0.847656 -6.882812 1.328125 -7.6875 C 1.804688 -8.5 2.453125 -9.128906 3.265625 -9.578125 C 4.085938 -10.035156 4.988281 -10.265625 5.96875 -10.265625 C 6.957031 -10.265625 7.859375 -10.035156 8.671875 -9.578125 C 9.492188 -9.128906 10.140625 -8.5 10.609375 -7.6875 C 11.085938 -6.882812 11.328125 -5.992188 11.328125 -5.015625 C 11.328125 -4.003906 11.085938 -3.09375 10.609375 -2.28125 C 10.140625 -1.46875 9.492188 -0.832031 8.671875 -0.375 C 7.859375 0.0703125 6.957031 0.296875 5.96875 0.296875 Z M 8.359375 -4.984375 C 8.359375 -5.421875 8.25 -5.832031 8.03125 -6.21875 C 7.820312 -6.601562 7.535156 -6.910156 7.171875 -7.140625 C 6.804688 -7.367188 6.398438 -7.484375 5.953125 -7.484375 C 5.523438 -7.484375 5.128906 -7.367188 4.765625 -7.140625 C 4.410156 -6.921875 4.125 -6.613281 3.90625 -6.21875 C 3.6875 -5.832031 3.578125 -5.421875 3.578125 -4.984375 C 3.578125 -4.523438 3.679688 -4.101562 3.890625 -3.71875 C 4.109375 -3.34375 4.398438 -3.039062 4.765625 -2.8125 C 5.128906 -2.582031 5.53125 -2.46875 5.96875 -2.46875 C 6.425781 -2.46875 6.835938 -2.582031 7.203125 -2.8125 C 7.566406 -3.050781 7.847656 -3.359375 8.046875 -3.734375 C 8.253906 -4.117188 8.359375 -4.535156 8.359375 -4.984375 Z M 8.359375 -4.984375 "/></g></g></g><g fill="#ffffff" fill-opacity="1"><g transform="translate(93.578058, 16.846876)"><g><path d="M 3.390625 -9.953125 L 5.28125 -3.75 L 5.328125 -3.75 L 7.21875 -9.953125 L 10.3125 -9.953125 L 6.71875 0 L 3.875 0 L 0.296875 -9.953125 Z M 3.390625 -9.953125 "/></g></g></g><g fill="#ffffff" fill-opacity="1"><g transform="translate(103.827285, 16.846876)"><g><path d="M 5.8125 -2.1875 C 6.195312 -2.1875 6.53125 -2.257812 6.8125 -2.40625 C 7.09375 -2.5625 7.359375 -2.800781 7.609375 -3.125 L 10.65625 -3.125 C 10.1875 -2.03125 9.523438 -1.179688 8.671875 -0.578125 C 7.816406 0.0234375 6.863281 0.328125 5.8125 0.328125 C 4.863281 0.328125 3.984375 0.09375 3.171875 -0.375 C 2.367188 -0.84375 1.726562 -1.476562 1.25 -2.28125 C 0.769531 -3.09375 0.53125 -3.984375 0.53125 -4.953125 C 0.53125 -5.890625 0.765625 -6.765625 1.234375 -7.578125 C 1.703125 -8.398438 2.332031 -9.054688 3.125 -9.546875 C 3.914062 -10.035156 4.789062 -10.28125 5.75 -10.28125 C 6.726562 -10.28125 7.617188 -10.039062 8.421875 -9.5625 C 9.222656 -9.09375 9.851562 -8.441406 10.3125 -7.609375 C 10.769531 -6.785156 11 -5.867188 11 -4.859375 C 11 -4.566406 10.976562 -4.300781 10.9375 -4.0625 L 3.484375 -4.0625 C 3.566406 -3.5 3.820312 -3.046875 4.25 -2.703125 C 4.675781 -2.359375 5.195312 -2.1875 5.8125 -2.1875 Z M 5.75 -7.78125 C 5.195312 -7.78125 4.710938 -7.625 4.296875 -7.3125 C 3.890625 -7.007812 3.628906 -6.597656 3.515625 -6.078125 L 8.03125 -6.078125 C 7.90625 -6.585938 7.632812 -7 7.21875 -7.3125 C 6.8125 -7.625 6.320312 -7.78125 5.75 -7.78125 Z M 5.75 -7.78125 "/></g></g></g><g fill="#ffffff" fill-opacity="1"><g transform="translate(115.044112, 16.846876)"><g><path d="M 3.859375 -9.953125 L 3.859375 -8.890625 L 3.890625 -8.890625 C 4.140625 -9.398438 4.46875 -9.757812 4.875 -9.96875 C 5.28125 -10.175781 5.78125 -10.28125 6.375 -10.28125 L 6.375 -7.296875 C 5.53125 -7.285156 4.925781 -7.128906 4.5625 -6.828125 C 4.207031 -6.523438 4.03125 -6.078125 4.03125 -5.484375 L 4.03125 0 L 1.0625 0 L 1.0625 -9.953125 Z M 3.859375 -9.953125 "/></g></g></g><g clip-path="url(#18bbbf4b34)"><path fill="#ffffff" d="M 29.324219 29.175781 C 29.007812 29.183594 28.695312 29.140625 28.386719 29.042969 C 28.152344 28.96875 27.9375 28.855469 27.742188 28.703125 C 27.582031 28.574219 27.449219 28.425781 27.335938 28.253906 C 27.242188 28.113281 27.167969 27.964844 27.109375 27.808594 C 27.054688 27.652344 27.015625 27.496094 26.988281 27.332031 L 28.078125 27.332031 C 28.101562 27.449219 28.140625 27.558594 28.191406 27.664062 C 28.246094 27.769531 28.316406 27.863281 28.402344 27.949219 C 28.507812 28.050781 28.632812 28.128906 28.773438 28.183594 C 28.960938 28.257812 29.152344 28.289062 29.355469 28.28125 C 29.65625 28.304688 29.929688 28.222656 30.175781 28.046875 C 30.363281 27.894531 30.457031 27.699219 30.457031 27.457031 C 30.460938 27.265625 30.390625 27.105469 30.238281 26.984375 C 30.050781 26.847656 29.835938 26.761719 29.605469 26.726562 L 28.832031 26.5625 C 28.539062 26.503906 28.257812 26.410156 27.988281 26.28125 C 27.734375 26.167969 27.523438 26 27.355469 25.777344 C 27.1875 25.53125 27.105469 25.257812 27.121094 24.960938 C 27.113281 24.628906 27.199219 24.328125 27.386719 24.058594 C 27.574219 23.792969 27.816406 23.597656 28.117188 23.46875 C 28.46875 23.324219 28.832031 23.257812 29.210938 23.265625 C 29.546875 23.253906 29.875 23.308594 30.191406 23.433594 C 30.425781 23.53125 30.632812 23.671875 30.8125 23.855469 C 30.957031 24 31.070312 24.167969 31.15625 24.351562 C 31.238281 24.542969 31.300781 24.742188 31.339844 24.945312 L 30.285156 24.945312 C 30.253906 24.800781 30.195312 24.667969 30.113281 24.546875 C 30.023438 24.429688 29.914062 24.335938 29.78125 24.269531 C 29.59375 24.179688 29.394531 24.140625 29.1875 24.152344 C 28.898438 24.125 28.640625 24.203125 28.414062 24.382812 C 28.261719 24.515625 28.179688 24.6875 28.171875 24.890625 C 28.167969 25.074219 28.242188 25.21875 28.394531 25.320312 C 28.578125 25.441406 28.773438 25.519531 28.988281 25.5625 L 29.820312 25.734375 C 30.117188 25.796875 30.402344 25.898438 30.675781 26.039062 C 30.925781 26.164062 31.128906 26.339844 31.292969 26.570312 C 31.457031 26.820312 31.53125 27.09375 31.519531 27.390625 C 31.523438 27.71875 31.441406 28.019531 31.269531 28.292969 C 31.082031 28.582031 30.835938 28.792969 30.523438 28.9375 C 30.140625 29.105469 29.738281 29.1875 29.320312 29.171875 " fill-opacity="1" fill-rule="nonzero"/></g><g clip-path="url(#607a712ce3)"><path fill="#ffffff" d="M 32.609375 29.097656 L 32.609375 23.339844 L 36.535156 23.339844 L 36.535156 24.257812 L 33.683594 24.257812 L 33.683594 25.722656 L 36.175781 25.722656 L 36.175781 26.617188 L 33.683594 26.617188 L 33.683594 28.179688 L 36.574219 28.179688 L 36.574219 29.097656 Z M 32.609375 29.097656 " fill-opacity="1" fill-rule="nonzero"/></g><g clip-path="url(#ea3fc302e7)"><path fill="#ffffff" d="M 40.199219 29.175781 C 39.765625 29.1875 39.351562 29.101562 38.953125 28.925781 C 38.605469 28.761719 38.308594 28.539062 38.058594 28.246094 C 37.820312 27.964844 37.640625 27.648438 37.519531 27.296875 C 37.402344 26.949219 37.34375 26.589844 37.34375 26.21875 C 37.34375 25.851562 37.402344 25.488281 37.519531 25.136719 C 37.640625 24.785156 37.820312 24.46875 38.058594 24.183594 C 38.308594 23.894531 38.605469 23.671875 38.953125 23.511719 C 39.351562 23.335938 39.765625 23.253906 40.199219 23.261719 C 40.550781 23.253906 40.890625 23.304688 41.222656 23.40625 C 41.480469 23.492188 41.71875 23.621094 41.933594 23.789062 C 42.113281 23.929688 42.265625 24.097656 42.390625 24.285156 C 42.492188 24.441406 42.578125 24.609375 42.648438 24.785156 C 42.710938 24.957031 42.757812 25.132812 42.792969 25.3125 L 41.722656 25.3125 C 41.691406 25.179688 41.644531 25.050781 41.585938 24.925781 C 41.519531 24.804688 41.4375 24.695312 41.335938 24.597656 C 41.207031 24.476562 41.058594 24.386719 40.894531 24.324219 C 40.675781 24.246094 40.453125 24.210938 40.21875 24.214844 C 39.945312 24.210938 39.6875 24.265625 39.441406 24.382812 C 39.222656 24.492188 39.039062 24.644531 38.890625 24.839844 C 38.738281 25.035156 38.628906 25.25 38.5625 25.488281 C 38.488281 25.726562 38.453125 25.96875 38.453125 26.21875 C 38.453125 26.464844 38.488281 26.707031 38.5625 26.945312 C 38.628906 27.179688 38.738281 27.394531 38.890625 27.585938 C 39.039062 27.78125 39.222656 27.933594 39.441406 28.046875 C 39.6875 28.167969 39.945312 28.222656 40.21875 28.21875 C 40.453125 28.222656 40.675781 28.1875 40.894531 28.105469 C 41.058594 28.042969 41.207031 27.949219 41.335938 27.828125 C 41.4375 27.734375 41.519531 27.625 41.585938 27.5 C 41.644531 27.378906 41.691406 27.246094 41.722656 27.113281 L 42.792969 27.113281 C 42.757812 27.292969 42.710938 27.472656 42.648438 27.644531 C 42.582031 27.820312 42.496094 27.988281 42.390625 28.144531 C 42.261719 28.332031 42.113281 28.5 41.933594 28.640625 C 41.722656 28.8125 41.484375 28.941406 41.222656 29.027344 C 40.890625 29.132812 40.550781 29.179688 40.199219 29.171875 " fill-opacity="1" fill-rule="nonzero"/></g><g clip-path="url(#ad9087feec)"><path fill="#ffffff" d="M 46.144531 29.175781 C 45.734375 29.183594 45.34375 29.101562 44.96875 28.929688 C 44.613281 28.769531 44.332031 28.523438 44.128906 28.1875 C 43.90625 27.800781 43.800781 27.382812 43.820312 26.9375 L 43.820312 23.339844 L 44.894531 23.339844 L 44.894531 26.9375 C 44.886719 27.269531 44.988281 27.566406 45.203125 27.824219 C 45.460938 28.09375 45.773438 28.214844 46.148438 28.183594 C 46.523438 28.214844 46.84375 28.09375 47.105469 27.824219 C 47.320312 27.566406 47.425781 27.269531 47.414062 26.9375 L 47.414062 23.339844 L 48.484375 23.339844 L 48.484375 26.9375 C 48.5 27.382812 48.398438 27.800781 48.175781 28.1875 C 47.972656 28.519531 47.695312 28.769531 47.339844 28.929688 C 46.960938 29.101562 46.5625 29.183594 46.148438 29.175781 " fill-opacity="1" fill-rule="nonzero"/></g><g clip-path="url(#5d86e44c2f)"><path fill="#ffffff" d="M 49.816406 29.097656 L 49.816406 23.339844 L 52.097656 23.339844 C 52.476562 23.332031 52.835938 23.40625 53.179688 23.570312 C 53.46875 23.710938 53.695312 23.917969 53.859375 24.191406 C 53.996094 24.414062 54.078125 24.65625 54.101562 24.914062 C 54.128906 25.175781 54.09375 25.425781 54.003906 25.667969 C 53.910156 25.914062 53.769531 26.125 53.578125 26.304688 C 53.390625 26.480469 53.171875 26.609375 52.921875 26.6875 L 54.269531 29.097656 L 53.074219 29.097656 L 51.824219 26.8125 L 50.894531 26.8125 L 50.894531 29.097656 Z M 52.082031 24.257812 L 50.894531 24.257812 L 50.894531 25.949219 L 52.082031 25.949219 C 52.347656 25.964844 52.578125 25.882812 52.769531 25.695312 C 52.929688 25.527344 53.011719 25.332031 53.007812 25.101562 C 53.011719 24.871094 52.929688 24.671875 52.769531 24.507812 C 52.578125 24.324219 52.347656 24.242188 52.082031 24.257812 " fill-opacity="1" fill-rule="nonzero"/></g><g clip-path="url(#dfa85daf22)"><path fill="#ffffff" d="M 55.355469 29.097656 L 55.355469 23.339844 L 59.28125 23.339844 L 59.28125 24.257812 L 56.433594 24.257812 L 56.433594 25.722656 L 58.925781 25.722656 L 58.925781 26.617188 L 56.433594 26.617188 L 56.433594 28.179688 L 59.324219 28.179688 L 59.324219 29.097656 Z M 55.355469 29.097656 " fill-opacity="1" fill-rule="nonzero"/></g><g clip-path="url(#0237100ca6)"><path fill="#ffffff" d="M 65.363281 29.175781 C 64.925781 29.1875 64.511719 29.101562 64.113281 28.925781 C 63.765625 28.761719 63.46875 28.539062 63.21875 28.246094 C 62.980469 27.964844 62.800781 27.648438 62.683594 27.296875 C 62.5625 26.949219 62.503906 26.589844 62.503906 26.21875 C 62.503906 25.851562 62.5625 25.488281 62.683594 25.136719 C 62.800781 24.785156 62.980469 24.46875 63.21875 24.183594 C 63.46875 23.894531 63.765625 23.671875 64.113281 23.511719 C 64.511719 23.335938 64.925781 23.253906 65.363281 23.261719 C 65.710938 23.253906 66.050781 23.304688 66.382812 23.40625 C 66.644531 23.492188 66.882812 23.621094 67.097656 23.789062 C 67.273438 23.929688 67.425781 24.097656 67.550781 24.285156 C 67.65625 24.441406 67.742188 24.609375 67.808594 24.785156 C 67.871094 24.957031 67.917969 25.132812 67.953125 25.3125 L 66.882812 25.3125 C 66.851562 25.179688 66.804688 25.050781 66.746094 24.925781 C 66.679688 24.804688 66.597656 24.699219 66.496094 24.605469 C 66.367188 24.484375 66.222656 24.390625 66.058594 24.332031 C 65.839844 24.25 65.613281 24.214844 65.378906 24.222656 C 65.109375 24.214844 64.851562 24.273438 64.605469 24.390625 C 64.386719 24.5 64.199219 24.648438 64.050781 24.84375 C 63.902344 25.039062 63.792969 25.257812 63.722656 25.492188 C 63.652344 25.730469 63.617188 25.976562 63.617188 26.226562 C 63.613281 26.472656 63.652344 26.714844 63.722656 26.953125 C 63.792969 27.1875 63.902344 27.402344 64.050781 27.59375 C 64.199219 27.789062 64.386719 27.941406 64.605469 28.054688 C 64.847656 28.171875 65.109375 28.230469 65.378906 28.222656 C 65.613281 28.230469 65.839844 28.191406 66.058594 28.109375 C 66.222656 28.046875 66.367188 27.957031 66.496094 27.835938 C 66.597656 27.738281 66.679688 27.628906 66.746094 27.507812 C 66.808594 27.382812 66.851562 27.253906 66.882812 27.121094 L 67.953125 27.121094 C 67.921875 27.300781 67.871094 27.480469 67.808594 27.652344 C 67.742188 27.828125 67.65625 27.992188 67.550781 28.148438 C 67.265625 28.578125 66.875 28.875 66.382812 29.03125 C 66.050781 29.136719 65.710938 29.1875 65.363281 29.175781 " fill-opacity="1" fill-rule="nonzero"/></g><g clip-path="url(#7d83ed27ff)"><path fill="#ffffff" d="M 69.035156 29.097656 L 69.035156 23.339844 L 70.109375 23.339844 L 70.109375 28.179688 L 73.023438 28.179688 L 73.023438 29.097656 Z M 69.035156 29.097656 " fill-opacity="1" fill-rule="nonzero"/></g><g clip-path="url(#d88bc0eaa8)"><path fill="#ffffff" d="M 74 23.339844 L 75.078125 23.339844 L 75.078125 29.097656 L 74 29.097656 Z M 74 23.339844 " fill-opacity="1" fill-rule="nonzero"/></g><g clip-path="url(#7b922361c0)"><path fill="#ffffff" d="M 76.425781 29.097656 L 76.425781 23.339844 L 80.351562 23.339844 L 80.351562 24.257812 L 77.503906 24.257812 L 77.503906 25.722656 L 80 25.722656 L 80 26.617188 L 77.507812 26.617188 L 77.507812 28.179688 L 80.394531 28.179688 L 80.394531 29.097656 Z M 76.425781 29.097656 " fill-opacity="1" fill-rule="nonzero"/></g><g clip-path="url(#69611fec38)"><path fill="#ffffff" d="M 81.53125 29.097656 L 81.53125 23.339844 L 82.511719 23.339844 L 85.203125 27.246094 L 85.203125 23.339844 L 86.273438 23.339844 L 86.273438 29.097656 L 85.292969 29.097656 L 82.601562 25.261719 L 82.601562 29.097656 Z M 81.53125 29.097656 " fill-opacity="1" fill-rule="nonzero"/></g><g clip-path="url(#9e77a20727)"><path fill="#ffffff" d="M 88.976562 29.097656 L 88.976562 24.257812 L 87.175781 24.257812 L 87.175781 23.339844 L 91.863281 23.339844 L 91.863281 24.257812 L 90.058594 24.257812 L 90.058594 29.097656 Z M 88.976562 29.097656 " fill-opacity="1" fill-rule="nonzero"/></g><g clip-path="url(#3ca821630d)"><path fill="#ffffff" d="M 94.804688 29.097656 L 96.824219 23.339844 L 98.226562 23.339844 L 100.253906 29.097656 L 99.128906 29.097656 L 98.707031 27.886719 L 96.347656 27.886719 L 95.929688 29.097656 Z M 96.65625 26.96875 L 98.398438 26.96875 L 97.527344 24.421875 Z M 96.65625 26.96875 " fill-opacity="1" fill-rule="nonzero"/></g><g clip-path="url(#8897511881)"><path fill="#ffffff" d="M 101.132812 29.097656 L 101.132812 23.339844 L 103.414062 23.339844 C 103.792969 23.332031 104.152344 23.40625 104.496094 23.570312 C 104.785156 23.710938 105.011719 23.917969 105.175781 24.191406 C 105.3125 24.414062 105.394531 24.65625 105.417969 24.914062 C 105.445312 25.175781 105.410156 25.425781 105.320312 25.667969 C 105.226562 25.914062 105.085938 26.125 104.898438 26.304688 C 104.707031 26.480469 104.488281 26.609375 104.238281 26.6875 L 105.585938 29.097656 L 104.390625 29.097656 L 103.140625 26.8125 L 102.210938 26.8125 L 102.210938 29.097656 Z M 103.398438 24.257812 L 102.210938 24.257812 L 102.210938 25.949219 L 103.398438 25.949219 C 103.664062 25.964844 103.894531 25.882812 104.085938 25.695312 C 104.25 25.53125 104.328125 25.332031 104.324219 25.101562 C 104.328125 24.871094 104.25 24.671875 104.085938 24.507812 C 103.894531 24.324219 103.664062 24.242188 103.398438 24.257812 " fill-opacity="1" fill-rule="nonzero"/></g><g clip-path="url(#e1481a0efc)"><path fill="#ffffff" d="M 106.671875 29.097656 L 106.671875 23.339844 L 110.597656 23.339844 L 110.597656 24.257812 L 107.75 24.257812 L 107.75 25.722656 L 110.242188 25.722656 L 110.242188 26.617188 L 107.75 26.617188 L 107.75 28.179688 L 110.636719 28.179688 L 110.636719 29.097656 Z M 106.671875 29.097656 " fill-opacity="1" fill-rule="nonzero"/></g><g clip-path="url(#44b1c2eb81)"><path fill="#ffffff" d="M 111.476562 29.097656 L 113.496094 23.339844 L 114.898438 23.339844 L 116.925781 29.097656 L 115.800781 29.097656 L 115.382812 27.886719 L 113.023438 27.886719 L 112.601562 29.097656 Z M 113.328125 26.96875 L 115.070312 26.96875 L 114.199219 24.421875 Z M 113.328125 26.96875 " fill-opacity="1" fill-rule="nonzero"/></g></svg>