<svg xmlns="http://www.w3.org/2000/svg" xmlns:xlink="http://www.w3.org/1999/xlink" width="1156" zoomAndPan="magnify" viewBox="0 0 866.88 160.499995" height="214" preserveAspectRatio="xMidYMid meet" version="1.0"><defs><g/><clipPath id="08e22e3a82"><path d="M 1.285156 0 L 96 0 L 96 160 L 1.285156 160 Z M 1.285156 0 " clip-rule="nonzero"/></clipPath></defs><g clip-path="url(#08e22e3a82)"><path fill="#000000" d="M 84.351562 77.757812 L 52.5 61.609375 L 69.324219 51.515625 C 82.632812 43.515625 81.886719 26.019531 67.902344 18.992188 L 32.238281 0.898438 C 29.996094 -0.222656 27.605469 2.09375 29.023438 3.960938 L 47.714844 28.484375 C 49.136719 30.355469 48.464844 32.898438 46.296875 34.09375 L 2.855469 52.261719 C 2.109375 52.636719 1.660156 53.308594 1.660156 54.054688 L 1.660156 88.148438 C 1.660156 89.871094 3.828125 90.84375 5.398438 89.871094 L 46.96875 64.824219 L 64.089844 87.253906 C 65.511719 89.121094 64.839844 91.664062 62.671875 92.859375 L 2.78125 121.496094 C 2.035156 121.871094 1.585938 122.542969 1.585938 123.289062 L 1.585938 157.382812 C 1.585938 159.105469 3.753906 160.078125 5.324219 159.105469 L 85.773438 110.28125 C 99.082031 102.28125 98.332031 84.785156 84.351562 77.757812 Z M 84.351562 77.757812 " fill-opacity="1" fill-rule="nonzero"/></g><g fill="#000000" fill-opacity="1"><g transform="translate(146.94524, 113.167819)"><g><path d="M 60.1875 -94.5625 L 60.1875 -73.359375 L 31.6875 -73.359375 L 31.6875 -57.25 L 59.171875 -57.25 L 59.171875 -36.03125 L 31.6875 -36.03125 L 31.6875 0 L 8.5625 0 L 8.5625 -94.5625 Z M 60.1875 -94.5625 "/></g></g></g><g fill="#000000" fill-opacity="1"><g transform="translate(209.052629, 113.167819)"><g><path d="M 42.5625 2.171875 C 35.40625 2.171875 28.925781 0.53125 23.125 -2.75 C 17.332031 -6.03125 12.753906 -10.523438 9.390625 -16.234375 C 6.023438 -21.941406 4.34375 -28.375 4.34375 -35.53125 C 4.34375 -42.6875 6.046875 -49.140625 9.453125 -54.890625 C 12.859375 -60.640625 17.476562 -65.132812 23.3125 -68.375 C 29.15625 -71.613281 35.570312 -73.234375 42.5625 -73.234375 C 49.625 -73.234375 56.070312 -71.613281 61.90625 -68.375 C 67.75 -65.132812 72.351562 -60.640625 75.71875 -54.890625 C 79.082031 -49.140625 80.765625 -42.769531 80.765625 -35.78125 C 80.765625 -28.539062 79.082031 -22.023438 75.71875 -16.234375 C 72.351562 -10.441406 67.75 -5.925781 61.90625 -2.6875 C 56.070312 0.550781 49.625 2.171875 42.5625 2.171875 Z M 59.546875 -35.53125 C 59.546875 -38.675781 58.800781 -41.613281 57.3125 -44.34375 C 55.820312 -47.070312 53.773438 -49.265625 51.171875 -50.921875 C 48.578125 -52.585938 45.660156 -53.421875 42.421875 -53.421875 C 39.359375 -53.421875 36.546875 -52.609375 33.984375 -50.984375 C 31.429688 -49.367188 29.390625 -47.175781 27.859375 -44.40625 C 26.328125 -41.632812 25.5625 -38.675781 25.5625 -35.53125 C 25.5625 -32.289062 26.304688 -29.304688 27.796875 -26.578125 C 29.285156 -23.859375 31.328125 -21.6875 33.921875 -20.0625 C 36.523438 -18.445312 39.40625 -17.640625 42.5625 -17.640625 C 45.789062 -17.640625 48.703125 -18.46875 51.296875 -20.125 C 53.898438 -21.789062 55.925781 -23.984375 57.375 -26.703125 C 58.820312 -29.429688 59.546875 -32.375 59.546875 -35.53125 Z M 59.546875 -35.53125 "/></g></g></g><g fill="#000000" fill-opacity="1"><g transform="translate(291.606935, 113.167819)"><g><path d="M 27.46875 -70.921875 L 27.46875 -63.390625 L 27.734375 -63.390625 C 29.523438 -67.046875 31.867188 -69.617188 34.765625 -71.109375 C 37.660156 -72.609375 41.238281 -73.359375 45.5 -73.359375 L 45.5 -52.015625 C 39.445312 -51.929688 35.140625 -50.820312 32.578125 -48.6875 C 30.023438 -46.5625 28.75 -43.367188 28.75 -39.109375 L 28.75 0 L 7.546875 0 L 7.546875 -70.921875 Z M 27.46875 -70.921875 "/></g></g></g><g fill="#000000" fill-opacity="1"><g transform="translate(335.439897, 113.167819)"><g><path d="M 41.40625 -15.59375 C 44.21875 -15.59375 46.625 -16.125 48.625 -17.1875 C 50.625 -18.25 52.519531 -19.929688 54.3125 -22.234375 L 76.046875 -22.234375 C 72.628906 -14.484375 67.875 -8.457031 61.78125 -4.15625 C 55.695312 0.144531 48.90625 2.296875 41.40625 2.296875 C 34.675781 2.296875 28.4375 0.632812 22.6875 -2.6875 C 16.9375 -6.007812 12.351562 -10.546875 8.9375 -16.296875 C 5.53125 -22.046875 3.828125 -28.367188 3.828125 -35.265625 C 3.828125 -42.003906 5.488281 -48.289062 8.8125 -54.125 C 12.132812 -59.957031 16.628906 -64.617188 22.296875 -68.109375 C 27.960938 -71.609375 34.203125 -73.359375 41.015625 -73.359375 C 48.003906 -73.359375 54.351562 -71.648438 60.0625 -68.234375 C 65.769531 -64.828125 70.265625 -60.1875 73.546875 -54.3125 C 76.828125 -48.4375 78.46875 -41.878906 78.46875 -34.640625 C 78.46875 -32.585938 78.296875 -30.710938 77.953125 -29.015625 L 24.796875 -29.015625 C 25.390625 -25.003906 27.21875 -21.765625 30.28125 -19.296875 C 33.351562 -16.828125 37.0625 -15.59375 41.40625 -15.59375 Z M 41.015625 -55.46875 C 37.097656 -55.46875 33.671875 -54.378906 30.734375 -52.203125 C 27.796875 -50.035156 25.898438 -47.078125 25.046875 -43.328125 L 57.25 -43.328125 C 56.394531 -46.984375 54.5 -49.921875 51.5625 -52.140625 C 48.625 -54.359375 45.109375 -55.46875 41.015625 -55.46875 Z M 41.015625 -55.46875 "/></g></g></g><g fill="#000000" fill-opacity="1"><g transform="translate(415.438329, 113.167819)"><g><path d="M 25.6875 0 L 0.125 0 L 27.09375 -37.953125 L 3.1875 -70.921875 L 28.625 -70.921875 L 40.125 -52.265625 L 51.5 -70.921875 L 76.671875 -70.921875 L 52.78125 -37.953125 L 80.25 0 L 54.3125 0 L 40.125 -21.984375 Z M 25.6875 0 "/></g></g></g><g fill="#000000" fill-opacity="1"><g transform="translate(493.392086, 113.167819)"><g><path d="M 31.6875 -30.546875 L 31.6875 0 L 8.5625 0 L 8.5625 -94.5625 L 39.484375 -94.5625 C 49.117188 -94.5625 56.578125 -93.414062 61.859375 -91.125 C 67.054688 -88.820312 71.25 -85.050781 74.4375 -79.8125 C 77.632812 -74.570312 79.234375 -68.628906 79.234375 -61.984375 C 79.234375 -54.398438 77.101562 -47.859375 72.84375 -42.359375 C 68.582031 -36.867188 62.875 -33.484375 55.71875 -32.203125 L 81.40625 0 L 53.796875 0 L 31.953125 -30.546875 Z M 56.109375 -60.578125 C 56.109375 -64.578125 54.722656 -67.707031 51.953125 -69.96875 C 49.179688 -72.226562 45.492188 -73.359375 40.890625 -73.359375 L 31.6875 -73.359375 L 31.6875 -47.03125 L 40.640625 -47.03125 C 45.492188 -47.03125 49.285156 -48.179688 52.015625 -50.484375 C 54.742188 -52.785156 56.109375 -56.148438 56.109375 -60.578125 Z M 56.109375 -60.578125 "/></g></g></g><g fill="#000000" fill-opacity="1"><g transform="translate(574.285074, 113.167819)"><g><path d="M 42.5625 2.171875 C 35.40625 2.171875 28.925781 0.53125 23.125 -2.75 C 17.332031 -6.03125 12.753906 -10.523438 9.390625 -16.234375 C 6.023438 -21.941406 4.34375 -28.375 4.34375 -35.53125 C 4.34375 -42.6875 6.046875 -49.140625 9.453125 -54.890625 C 12.859375 -60.640625 17.476562 -65.132812 23.3125 -68.375 C 29.15625 -71.613281 35.570312 -73.234375 42.5625 -73.234375 C 49.625 -73.234375 56.070312 -71.613281 61.90625 -68.375 C 67.75 -65.132812 72.351562 -60.640625 75.71875 -54.890625 C 79.082031 -49.140625 80.765625 -42.769531 80.765625 -35.78125 C 80.765625 -28.539062 79.082031 -22.023438 75.71875 -16.234375 C 72.351562 -10.441406 67.75 -5.925781 61.90625 -2.6875 C 56.070312 0.550781 49.625 2.171875 42.5625 2.171875 Z M 59.546875 -35.53125 C 59.546875 -38.675781 58.800781 -41.613281 57.3125 -44.34375 C 55.820312 -47.070312 53.773438 -49.265625 51.171875 -50.921875 C 48.578125 -52.585938 45.660156 -53.421875 42.421875 -53.421875 C 39.359375 -53.421875 36.546875 -52.609375 33.984375 -50.984375 C 31.429688 -49.367188 29.390625 -47.175781 27.859375 -44.40625 C 26.328125 -41.632812 25.5625 -38.675781 25.5625 -35.53125 C 25.5625 -32.289062 26.304688 -29.304688 27.796875 -26.578125 C 29.285156 -23.859375 31.328125 -21.6875 33.921875 -20.0625 C 36.523438 -18.445312 39.40625 -17.640625 42.5625 -17.640625 C 45.789062 -17.640625 48.703125 -18.46875 51.296875 -20.125 C 53.898438 -21.789062 55.925781 -23.984375 57.375 -26.703125 C 58.820312 -29.429688 59.546875 -32.375 59.546875 -35.53125 Z M 59.546875 -35.53125 "/></g></g></g><g fill="#000000" fill-opacity="1"><g transform="translate(656.839397, 113.167819)"><g><path d="M 24.15625 -70.921875 L 37.703125 -26.703125 L 37.953125 -26.703125 L 51.5 -70.921875 L 73.484375 -70.921875 L 47.921875 0 L 27.609375 0 L 2.171875 -70.921875 Z M 24.15625 -70.921875 "/></g></g></g><g fill="#000000" fill-opacity="1"><g transform="translate(729.936991, 113.167819)"><g><path d="M 41.40625 -15.59375 C 44.21875 -15.59375 46.625 -16.125 48.625 -17.1875 C 50.625 -18.25 52.519531 -19.929688 54.3125 -22.234375 L 76.046875 -22.234375 C 72.628906 -14.484375 67.875 -8.457031 61.78125 -4.15625 C 55.695312 0.144531 48.90625 2.296875 41.40625 2.296875 C 34.675781 2.296875 28.4375 0.632812 22.6875 -2.6875 C 16.9375 -6.007812 12.351562 -10.546875 8.9375 -16.296875 C 5.53125 -22.046875 3.828125 -28.367188 3.828125 -35.265625 C 3.828125 -42.003906 5.488281 -48.289062 8.8125 -54.125 C 12.132812 -59.957031 16.628906 -64.617188 22.296875 -68.109375 C 27.960938 -71.609375 34.203125 -73.359375 41.015625 -73.359375 C 48.003906 -73.359375 54.351562 -71.648438 60.0625 -68.234375 C 65.769531 -64.828125 70.265625 -60.1875 73.546875 -54.3125 C 76.828125 -48.4375 78.46875 -41.878906 78.46875 -34.640625 C 78.46875 -32.585938 78.296875 -30.710938 77.953125 -29.015625 L 24.796875 -29.015625 C 25.390625 -25.003906 27.21875 -21.765625 30.28125 -19.296875 C 33.351562 -16.828125 37.0625 -15.59375 41.40625 -15.59375 Z M 41.015625 -55.46875 C 37.097656 -55.46875 33.671875 -54.378906 30.734375 -52.203125 C 27.796875 -50.035156 25.898438 -47.078125 25.046875 -43.328125 L 57.25 -43.328125 C 56.394531 -46.984375 54.5 -49.921875 51.5625 -52.140625 C 48.625 -54.359375 45.109375 -55.46875 41.015625 -55.46875 Z M 41.015625 -55.46875 "/></g></g></g><g fill="#000000" fill-opacity="1"><g transform="translate(809.935434, 113.167819)"><g><path d="M 27.46875 -70.921875 L 27.46875 -63.390625 L 27.734375 -63.390625 C 29.523438 -67.046875 31.867188 -69.617188 34.765625 -71.109375 C 37.660156 -72.609375 41.238281 -73.359375 45.5 -73.359375 L 45.5 -52.015625 C 39.445312 -51.929688 35.140625 -50.820312 32.578125 -48.6875 C 30.023438 -46.5625 28.75 -43.367188 28.75 -39.109375 L 28.75 0 L 7.546875 0 L 7.546875 -70.921875 Z M 27.46875 -70.921875 "/></g></g></g></svg>