<svg xmlns="http://www.w3.org/2000/svg" xmlns:xlink="http://www.w3.org/1999/xlink" id="Group_854" data-name="Group 854" width="290.248" height="91.519" viewBox="0 0 290.248 91.519"><defs><clipPath id="clip-path"><rect id="Rectangle_270" data-name="Rectangle 270" width="290.247" height="91.519" fill="none"></rect></clipPath></defs><g id="Group_853" data-name="Group 853" clip-path="url(#clip-path)"><path id="Path_995" data-name="Path 995" d="M42.592,3.75c-6.07,2.306-7.631,2.138-9.768,3.627a10.107,10.107,0,0,0-3.089,3.464c-.4.678-.78,1.243-1.075,1.663Q27.293,13.653,26,14.88a4.05,4.05,0,0,1,.481-2.812c.872-1.14,1.623-1.187,2.711-2.953C30.469,7.04,28.8,4.4,30.871,0c-6.825,3.5-7.34,9.372-6.85,10.859.549,1.666,1.486,1.668,1.359,2.516s-.211,1.778-.255,2.347a53.583,53.583,0,0,0-5.619,6.509,4.12,4.12,0,0,1-.011-2.922c.69-1.327,1.452-1.513,2.276-3.511.968-2.347-1.185-4.769.331-9.67-6.6,4.783-6.1,10.989-5.34,12.4.859,1.606,1.82,1.428,1.846,2.32.024.854.11,1.782.175,2.4q-1.081,1.561-2.043,3.208a46.87,46.87,0,0,0-2.2,4.273,4.191,4.191,0,0,1-.6-2.951,14.784,14.784,0,0,1,1.09-2.305,8.383,8.383,0,0,0,.556-1.765c.556-2.6-2.107-4.677-1.317-10.014a14.612,14.612,0,0,0-4.359,8.835,7.465,7.465,0,0,0,1.066,5.033c1.211,1.47,2.161,1.079,2.375,1.988.2.84.47,1.73.675,2.361A46.913,46.913,0,0,0,11.438,40.1a4.29,4.29,0,0,1-1.221-2.833c.117-1.628.79-2.139.8-4.5.014-2.776-3.193-4.323-3.354-10.051-5.18,7.75-1.771,13.957-.5,14.973,1.545,1.232,2.423.628,2.836,1.5.37.784.821,1.6,1.172,2.206a45.054,45.054,0,0,0-.776,8.521,4.378,4.378,0,0,1-1.832-2.574C8.327,45.669,8.9,45,8.4,42.6c-.577-2.824-4.154-3.722-5.5-9.534C-.768,42.1,4.08,47.714,5.577,48.456c1.833.91,2.585.1,3.2.893.532.692,1.148,1.389,1.649,1.934q.056,1.541.222,3.079a42.731,42.731,0,0,0,.941,5.388,4.473,4.473,0,0,1-2.421-2.157A19.465,19.465,0,0,1,8.545,54.6a10.369,10.369,0,0,0-.63-1.789C6.7,50.07,2.883,49.939.309,44.266A16.347,16.347,0,0,0,1.951,55.357c1.513,2.614,3.424,3.823,4.461,4.069,2.067.491,2.631-.513,3.44.147.681.556,1.442,1.1,2.086,1.535a42.905,42.905,0,0,0,3.071,7.951,4.577,4.577,0,0,1-2.909-1.59c-1.029-1.508-.8-2.413-2.387-4.53-.945-1.26-2.273-1.726-3.983-2.512A13.437,13.437,0,0,1,.075,55.966,16.66,16.66,0,0,0,4.424,67.024c2.111,2.194,4.279,2.933,5.341,2.938,2.2.009,2.523-1.135,3.494-.661.8.388,1.667.742,2.422,1.028a41.146,41.146,0,0,0,4.83,6.987,4.659,4.659,0,0,1-3.273-.89c-1.4-1.273-1.386-2.237-3.48-4C12.51,71.369,11.069,71.2,9.163,70.8a13.907,13.907,0,0,1-6.726-3.226,17.287,17.287,0,0,0,6.978,10.2c2.66,1.739,5.024,1.972,6.093,1.722,2.209-.516,2.253-1.752,3.345-1.512.872.192,1.807.332,2.641.432q.212.229.428.455a39.613,39.613,0,0,0,5.967,5.095,4.754,4.754,0,0,1-3.46-.06c-1.72-.909-1.955-1.861-4.484-3.125l-.032-.016c-1.517-.762-3-.588-5.019-.558a14.236,14.236,0,0,1-7.544-1.751,18.933,18.933,0,0,0,7.1,7.633c4.279,2.435,7.831,1.971,9.05,1.334,2.072-1.081,1.8-2.325,2.945-2.367.9-.033,1.842-.131,2.7-.245a44.506,44.506,0,0,0,18.985,6.7l.211-1.942a42.821,42.821,0,0,1-18.307-6.246c-.251-.863-.434-1.616-.635-2.442-.251-1.035.781-1.31,1.5-3.418a10.148,10.148,0,0,0-.34-6.941,38.242,38.242,0,0,0-2.669-5.213c.208,3.621-.132,4.614-1.1,5.746-.78.91-2.042,1.8-1.609,4.552a.776.776,0,0,0,.016.1c.361,2.122,1.807,2.552,2.777,3.735a5.639,5.639,0,0,1,.863,3.1,37.5,37.5,0,0,1-5.74-4.8q-.221-.226-.439-.456c-.028-.885-.02-1.637-.012-2.5.015-1.035,1.055-1.041,2.239-2.852,1.814-2.776,1.777-6.176-.173-12.4-.547,3.551-1.109,4.438-2.27,5.289-.947.694-2.321,1.241-2.541,3.963-.176,2.184,1.1,2.915,1.75,4.3a5.51,5.51,0,0,1,.054,3.164,39.444,39.444,0,0,1-4.719-6.68c.184-.856.364-1.549.585-2.405.252-.976,1.236-.734,2.763-2.179,2.341-2.215,3.039-5.566,2.493-11.891-1.262,3.264-1.974,3.986-3.258,4.543-1.048.455-2.456.672-3.254,3.21-.641,2.037.407,3.009.705,4.475a5.363,5.363,0,0,1-.687,3.036A41.559,41.559,0,0,1,13.28,60.7c.372-.782.689-1.384,1.108-2.185.453-.866,1.33-.417,3.087-1.445A8.066,8.066,0,0,0,20.8,53.2a25.8,25.8,0,0,0,1.585-6.933c-1.87,2.9-2.735,3.43-4.042,3.677a4.208,4.208,0,0,0-3.755,2.331,3.708,3.708,0,0,0-.546,1.7c-.055.924.262,1.662.234,2.677A5.22,5.22,0,0,1,12.931,59.4a41.277,41.277,0,0,1-.964-5.187q-.181-1.5-.251-3c.534-.666.95-1.148,1.555-1.849s1.339-.095,3.217-.68c2.878-.9,4.88-3.431,6.952-9.393-2.358,2.448-3.31,2.78-4.589,2.751a4.1,4.1,0,0,0-4.04,1.453c-1.367,1.481-.881,2.714-1.239,4.085a5.083,5.083,0,0,1-1.9,2.319,43.769,43.769,0,0,1,.668-8.3c.473-.378,1.326-1.021,1.9-1.451.733-.548,1.284.192,3.181.024,2.908-.258,5.363-2.328,8.475-7.626-2.706,1.893-3.676,2.024-4.882,1.748a3.965,3.965,0,0,0-4.114.591c-1.592,1.139-1.379,2.4-2,3.634a4.931,4.931,0,0,1-2.317,1.815,45.918,45.918,0,0,1,2.437-8.018c.5-.248,1.493-.714,2.137-1.012.8-.371,1.174.442,3,.661a6.969,6.969,0,0,0,4.416-1,22.7,22.7,0,0,0,5.118-4.7c-2.952,1.373-3.917,1.3-4.985.818a3.816,3.816,0,0,0-3.993-.219,3.429,3.429,0,0,0-1.4,1.079c-.469.616-.657,1.282-1.2,1.959a4.826,4.826,0,0,1-2.6,1.267,45.778,45.778,0,0,1,2.1-4.2q.922-1.627,1.967-3.174c.488-.127,1.581-.385,2.261-.545.828-.195,1.012.645,2.688,1.2,2.718.894,5.511-.024,10.269-3.862-3.109.892-4.053.633-4.973,0a3.716,3.716,0,0,0-3.773-.892c-1.786.429-2.041,1.57-3.043,2.4a4.652,4.652,0,0,1-2.734.694,52.391,52.391,0,0,1,5.453-6.453c.446-.031,1.608-.092,2.3-.128.823-.043.846.79,2.35,1.6,2.416,1.293,5.355.9,10.57-2.22-3.144.469-4.033.062-4.81-.665A3.606,3.606,0,0,0,32.657,13.5c-1.786.137-2.2,1.176-3.312,1.81a4.521,4.521,0,0,1-2.769.185q1-.969,2.051-1.89a11.316,11.316,0,0,1,2.087-.9,17.772,17.772,0,0,0,5.1-2.459c1.513-1.238.958-2.509,6.771-6.493Z" transform="translate(0.001)" fill="#fff"></path><path id="Path_996" data-name="Path 996" d="M1063.037,3.75c6.07,2.306,7.63,2.138,9.768,3.627a10.1,10.1,0,0,1,3.089,3.464c.4.678.78,1.243,1.076,1.663q1.366,1.148,2.661,2.375a4.05,4.05,0,0,0-.481-2.812c-.871-1.14-1.623-1.187-2.711-2.953-1.279-2.075.395-4.712-1.682-9.115,6.825,3.5,7.34,9.372,6.85,10.859-.549,1.666-1.486,1.668-1.359,2.516s.211,1.778.255,2.347a53.527,53.527,0,0,1,5.619,6.509,4.118,4.118,0,0,0,.011-2.922c-.69-1.327-1.452-1.513-2.276-3.511-.969-2.347,1.185-4.769-.331-9.67,6.6,4.783,6.1,10.989,5.34,12.4-.858,1.606-1.82,1.428-1.845,2.32-.024.854-.11,1.782-.175,2.4q1.081,1.561,2.043,3.208a46.817,46.817,0,0,1,2.2,4.273,4.2,4.2,0,0,0,.6-2.951,14.783,14.783,0,0,0-1.09-2.305,8.351,8.351,0,0,1-.556-1.765c-.556-2.6,2.107-4.677,1.317-10.014a14.612,14.612,0,0,1,4.36,8.835,7.461,7.461,0,0,1-1.066,5.033c-1.211,1.47-2.161,1.079-2.375,1.988-.2.84-.47,1.73-.675,2.361a46.953,46.953,0,0,1,2.585,8.193,4.291,4.291,0,0,0,1.221-2.833c-.117-1.628-.79-2.139-.8-4.5-.014-2.776,3.192-4.323,3.354-10.051,5.18,7.75,1.771,13.957.5,14.973-1.545,1.232-2.423.628-2.836,1.5-.37.784-.821,1.6-1.172,2.206a45.065,45.065,0,0,1,.776,8.521,4.379,4.379,0,0,0,1.832-2.574c.239-1.678-.33-2.342.162-4.745.578-2.824,4.154-3.722,5.5-9.534,3.672,9.029-1.176,14.646-2.673,15.389-1.834.91-2.585.1-3.2.893-.533.692-1.148,1.389-1.65,1.934q-.055,1.541-.222,3.079a42.673,42.673,0,0,1-.94,5.388,4.475,4.475,0,0,0,2.421-2.157,19.436,19.436,0,0,0,.622-2.991,10.392,10.392,0,0,1,.63-1.789c1.213-2.743,5.032-2.874,7.6-8.546a16.351,16.351,0,0,1-1.641,11.091c-1.514,2.614-3.425,3.823-4.462,4.069-2.067.491-2.63-.513-3.439.147-.682.556-1.443,1.1-2.086,1.535a42.911,42.911,0,0,1-3.071,7.951,4.578,4.578,0,0,0,2.909-1.59c1.029-1.508.8-2.413,2.387-4.53.945-1.26,2.273-1.726,3.983-2.512a13.436,13.436,0,0,0,5.655-4.461,16.658,16.658,0,0,1-4.349,11.058c-2.111,2.194-4.279,2.933-5.341,2.938-2.2.009-2.523-1.135-3.494-.661-.8.388-1.667.742-2.422,1.028a41.142,41.142,0,0,1-4.83,6.987,4.658,4.658,0,0,0,3.273-.89c1.4-1.273,1.386-2.237,3.48-4,1.247-1.052,2.689-1.217,4.595-1.622a13.907,13.907,0,0,0,6.726-3.226,17.286,17.286,0,0,1-6.979,10.2c-2.66,1.739-5.024,1.972-6.093,1.722-2.209-.516-2.254-1.752-3.345-1.512-.872.192-1.807.332-2.641.432q-.212.229-.428.455a39.615,39.615,0,0,1-5.967,5.095,4.754,4.754,0,0,0,3.461-.06c1.72-.909,1.955-1.861,4.484-3.125l.032-.016c1.517-.762,3-.588,5.019-.558a14.234,14.234,0,0,0,7.543-1.751,18.931,18.931,0,0,1-7.1,7.633c-4.279,2.435-7.83,1.971-9.05,1.334-2.072-1.081-1.8-2.325-2.945-2.367-.9-.033-1.843-.131-2.7-.245a44.505,44.505,0,0,1-18.985,6.7l-.211-1.942a42.82,42.82,0,0,0,18.307-6.246c.252-.863.434-1.616.635-2.442.252-1.035-.78-1.31-1.5-3.418a10.148,10.148,0,0,1,.339-6.941,38.3,38.3,0,0,1,2.669-5.213c-.209,3.621.132,4.614,1.1,5.746.78.91,2.042,1.8,1.609,4.552a.711.711,0,0,1-.016.1c-.361,2.122-1.807,2.552-2.777,3.735a5.639,5.639,0,0,0-.862,3.1,37.535,37.535,0,0,0,5.74-4.8q.221-.226.439-.456c.028-.885.02-1.637.012-2.5-.015-1.035-1.055-1.041-2.239-2.852-1.814-2.776-1.777-6.176.173-12.4.547,3.551,1.11,4.438,2.27,5.289.947.694,2.321,1.241,2.541,3.963.176,2.184-1.1,2.915-1.75,4.3a5.51,5.51,0,0,0-.054,3.164,39.425,39.425,0,0,0,4.72-6.68c-.184-.856-.364-1.549-.585-2.405-.252-.976-1.236-.734-2.763-2.179-2.341-2.215-3.039-5.566-2.493-11.891,1.262,3.264,1.974,3.986,3.258,4.543,1.048.455,2.456.672,3.254,3.21.641,2.037-.407,3.009-.705,4.475a5.356,5.356,0,0,0,.687,3.036,41.565,41.565,0,0,0,3.05-7.654c-.372-.782-.689-1.384-1.108-2.185-.453-.866-1.33-.417-3.087-1.445a8.068,8.068,0,0,1-3.321-3.871,25.812,25.812,0,0,1-1.584-6.933c1.87,2.9,2.734,3.43,4.043,3.677a4.208,4.208,0,0,1,3.755,2.331,3.709,3.709,0,0,1,.546,1.7c.054.924-.262,1.662-.234,2.677A5.217,5.217,0,0,0,1092.7,59.4a41.419,41.419,0,0,0,.964-5.187q.18-1.5.251-3c-.535-.666-.95-1.148-1.555-1.849s-1.339-.095-3.217-.68c-2.878-.9-4.88-3.431-6.952-9.393,2.357,2.448,3.31,2.78,4.589,2.751a4.1,4.1,0,0,1,4.04,1.453c1.367,1.481.881,2.714,1.239,4.085a5.08,5.08,0,0,0,1.9,2.319,43.759,43.759,0,0,0-.668-8.3c-.473-.378-1.326-1.021-1.9-1.451-.733-.548-1.284.192-3.181.024-2.908-.258-5.363-2.328-8.475-7.626,2.706,1.893,3.676,2.024,4.882,1.748a3.965,3.965,0,0,1,4.114.591c1.592,1.139,1.379,2.4,2,3.634a4.93,4.93,0,0,0,2.316,1.815,45.892,45.892,0,0,0-2.437-8.018c-.5-.248-1.493-.714-2.137-1.012-.8-.371-1.173.442-3,.661a6.97,6.97,0,0,1-4.417-1,22.7,22.7,0,0,1-5.118-4.7c2.952,1.373,3.917,1.3,4.986.818a3.815,3.815,0,0,1,3.992-.219,3.431,3.431,0,0,1,1.405,1.079c.469.616.657,1.282,1.2,1.959a4.828,4.828,0,0,0,2.6,1.267,45.782,45.782,0,0,0-2.1-4.2q-.922-1.627-1.967-3.174c-.487-.127-1.581-.385-2.26-.545-.828-.195-1.012.645-2.688,1.2-2.718.894-5.511-.024-10.269-3.862,3.109.892,4.053.633,4.973,0a3.716,3.716,0,0,1,3.773-.892c1.786.429,2.041,1.57,3.043,2.4a4.652,4.652,0,0,0,2.734.694,52.427,52.427,0,0,0-5.453-6.453c-.447-.031-1.608-.092-2.3-.128-.823-.043-.846.79-2.351,1.6-2.416,1.293-5.355.9-10.57-2.22,3.144.469,4.033.062,4.81-.665a3.606,3.606,0,0,1,3.482-1.417c1.786.137,2.2,1.176,3.312,1.81a4.522,4.522,0,0,0,2.77.185q-1-.969-2.051-1.89a11.314,11.314,0,0,0-2.087-.9,17.765,17.765,0,0,1-5.1-2.459c-1.513-1.238-.958-2.509-6.772-6.493Z" transform="translate(-815.382)" fill="#fff"></path><path id="Path_997" data-name="Path 997" d="M317.738,214.686a2.489,2.489,0,0,1,1.33,2.3,2.9,2.9,0,0,1-3.025,2.773h-4.084v-9.609h3.973a2.635,2.635,0,0,1,2.889,2.471,2.528,2.528,0,0,1-1.083,2.07Zm-.756,2.077a1.055,1.055,0,0,0-1.134-1.072H314v2.155h1.846a1.057,1.057,0,0,0,1.134-1.083m-1.248-4.847H314v2.049h1.732a1.026,1.026,0,1,0,0-2.049" transform="translate(-240.584 -162.065)" fill="#fff"></path><path id="Path_998" data-name="Path 998" d="M355.394,223.306h-5.61a1.728,1.728,0,0,0,1.811,1.569,1.76,1.76,0,0,0,1.573-.86h2.106a4.058,4.058,0,1,1,.159-1.3,4.684,4.684,0,0,1-.039.588m-5.557-1.369h3.592a1.824,1.824,0,0,0-1.833-1.4,1.739,1.739,0,0,0-1.759,1.4" transform="translate(-268.187 -168.761)" fill="#fff"></path><path id="Path_999" data-name="Path 999" d="M388.572,226.659c-1.861,0-3.1-1.062-3.114-2.651h1.954c.01.66.515.99,1.234.99.556,0,1.055-.252,1.055-.747s-.643-.66-1.427-.791c-1.185-.2-2.691-.514-2.691-2.261,0-1.4,1.193-2.371,2.983-2.371s2.964,1,2.971,2.477h-1.9c-.008-.589-.421-.88-1.119-.88-.624,0-.992.286-.992.71,0,.494.633.609,1.4.749,1.209.217,2.753.473,2.753,2.279,0,1.512-1.237,2.5-3.109,2.5Z" transform="translate(-297.267 -168.76)" fill="#fff"></path><path id="Path_1000" data-name="Path 1000" d="M420.386,218.853v1.785h-1.424a2.44,2.44,0,0,1-2.633-2.647v-3.155h-1.34V214.4l2.927-3.113h.383v1.934h2.045v1.611h-2.012v2.889a1.032,1.032,0,0,0,1.142,1.128Z" transform="translate(-320.041 -162.948)" fill="#fff"></path><path id="Path_1001" data-name="Path 1001" d="M458.9,210.133h2v7.413h-2Zm0-2.852h2v1.863h-2Z" transform="translate(-353.903 -159.856)" fill="#fff"></path><path id="Path_1002" data-name="Path 1002" d="M483.023,222.072v4.493h-2V222.4c0-1.121-.425-1.661-1.293-1.661-1.033,0-1.664.74-1.664,1.933v3.9h-2v-7.413h1.375l.391.916a3.183,3.183,0,0,1,2.456-1.092c1.69,0,2.743,1.219,2.743,3.1" transform="translate(-367.138 -168.875)" fill="#fff"></path><path id="Path_1003" data-name="Path 1003" d="M531.991,219.264a5.012,5.012,0,0,1,0-10.024,4.635,4.635,0,0,1,4.65,3.828h-2.084a2.641,2.641,0,0,0-2.566-1.843,3.033,3.033,0,0,0,0,6.055,2.6,2.6,0,0,0,2.584-1.98h2.1a4.66,4.66,0,0,1-4.68,3.965Z" transform="translate(-406.447 -161.367)" fill="#fff"></path><rect id="Rectangle_267" data-name="Rectangle 267" width="2.004" height="10.084" transform="translate(131.585 47.605)" fill="#fff"></rect><path id="Path_1004" data-name="Path 1004" d="M598.183,219.027v7.413h-1.571l-.172-.663a3.6,3.6,0,0,1-2.4.884,3.916,3.916,0,0,1,0-7.832,3.615,3.615,0,0,1,2.435.906l.214-.708Zm-1.964,3.706a2.019,2.019,0,1,0-2.018,2.032,1.969,1.969,0,0,0,2.018-2.032" transform="translate(-455.125 -168.762)" fill="#fff"></path><path id="Path_1005" data-name="Path 1005" d="M634.69,226.659c-1.861,0-3.1-1.062-3.114-2.651h1.954c.01.66.515.99,1.234.99.556,0,1.054-.252,1.054-.747s-.643-.66-1.427-.791c-1.184-.2-2.691-.514-2.691-2.261,0-1.4,1.193-2.371,2.983-2.371s2.964,1,2.971,2.477h-1.9c-.008-.589-.421-.88-1.119-.88-.624,0-.992.286-.992.71,0,.494.633.609,1.4.749,1.209.217,2.753.473,2.753,2.279,0,1.512-1.237,2.5-3.109,2.5Z" transform="translate(-487.074 -168.76)" fill="#fff"></path><path id="Path_1006" data-name="Path 1006" d="M666.19,226.659c-1.861,0-3.1-1.062-3.114-2.651h1.954c.01.66.515.99,1.234.99.556,0,1.055-.252,1.055-.747s-.643-.66-1.427-.791c-1.184-.2-2.691-.514-2.691-2.261,0-1.4,1.193-2.371,2.983-2.371s2.964,1,2.971,2.477h-1.9c-.008-.589-.421-.88-1.119-.88-.624,0-.992.286-.992.71,0,.494.633.609,1.4.749,1.209.217,2.753.473,2.753,2.279,0,1.512-1.237,2.5-3.109,2.5Z" transform="translate(-511.367 -168.76)" fill="#fff"></path><path id="Path_1007" data-name="Path 1007" d="M709.138,214.241a5.118,5.118,0,1,1,5.128,5.014,4.959,4.959,0,0,1-5.128-5.014m8.127,0a3.01,3.01,0,1,0-3,3.052,2.956,2.956,0,0,0,3-3.052" transform="translate(-546.89 -161.357)" fill="#fff"></path><path id="Path_1008" data-name="Path 1008" d="M768,211.725h-1.864v5.66h-2v-5.66H761v5.66h-2v-5.66h-1.284v-1.652h1.3V209.4a2.129,2.129,0,0,1,2.353-2.328h1.491v1.577h-1.09a.721.721,0,0,0-.813.8v.621h3.195V209.4a2.129,2.129,0,0,1,2.352-2.328h1.491v1.577H766.9a.721.721,0,0,0-.814.8v.621H768Z" transform="translate(-584.349 -159.696)" fill="#fff"></path><path id="Path_1009" data-name="Path 1009" d="M812.591,223.306h-5.61a1.728,1.728,0,0,0,1.811,1.569,1.76,1.76,0,0,0,1.573-.86h2.106a4.058,4.058,0,1,1,.159-1.3,4.678,4.678,0,0,1-.039.588m-5.557-1.369h3.592a1.824,1.824,0,0,0-1.833-1.4,1.739,1.739,0,0,0-1.759,1.4" transform="translate(-620.779 -168.761)" fill="#fff"></path><path id="Path_1010" data-name="Path 1010" d="M849.205,219.564v1.891h-.87c-1.129,0-1.576.5-1.576,1.712v3.851h-2v-7.413h1.285l.356.908a2.529,2.529,0,0,1,2.15-.949Z" transform="translate(-651.478 -169.329)" fill="#fff"></path><path id="Path_1011" data-name="Path 1011" d="M869.174,210.133h2v7.413h-2Zm0-2.852h2v1.863h-2Z" transform="translate(-670.31 -159.856)" fill="#fff"></path><path id="Path_1012" data-name="Path 1012" d="M893.3,222.072v4.493h-2V222.4c0-1.121-.425-1.661-1.293-1.661-1.033,0-1.664.74-1.664,1.933v3.9h-2v-7.413h1.375l.391.916a3.183,3.183,0,0,1,2.456-1.092c1.689,0,2.743,1.219,2.743,3.1" transform="translate(-683.545 -168.875)" fill="#fff"></path><path id="Path_1013" data-name="Path 1013" d="M930.438,219.039v6.552a3.87,3.87,0,0,1-7.564,1.021h1.993a1.783,1.783,0,0,0,1.751,1.007,1.731,1.731,0,0,0,1.855-1.74V225.6a3.7,3.7,0,0,1-5.8-3.05,3.672,3.672,0,0,1,3.685-3.724,3.6,3.6,0,0,1,2.464.945l.323-.736Zm-1.957,3.514a1.891,1.891,0,1,0-1.889,1.918,1.834,1.834,0,0,0,1.889-1.918" transform="translate(-711.565 -168.762)" fill="#fff"></path><path id="Path_1014" data-name="Path 1014" d="M335.27,287.744a4.008,4.008,0,1,1,4.007,3.916,3.859,3.859,0,0,1-4.007-3.916m5.983,0a1.976,1.976,0,1,0-1.976,2.032,1.919,1.919,0,0,0,1.976-2.032" transform="translate(-258.561 -218.889)" fill="#fff"></path><path id="Path_1015" data-name="Path 1015" d="M378.447,276.725h-1.864v5.661h-2v-5.661h-1.284v-1.652h1.3V274.4a2.129,2.129,0,0,1,2.352-2.327h1.491v1.577h-1.089a.721.721,0,0,0-.814.8v.621h1.917Z" transform="translate(-287.886 -209.824)" fill="#fff"></path><rect id="Rectangle_268" data-name="Rectangle 268" width="2.079" height="9.609" transform="translate(94.849 62.952)" fill="#fff"></rect><path id="Path_1016" data-name="Path 1016" d="M439.281,287.072v4.493h-2V287.4c0-1.121-.425-1.661-1.293-1.661-1.033,0-1.664.74-1.664,1.933v3.9h-2v-7.413h1.375l.391.916a3.184,3.184,0,0,1,2.456-1.092c1.689,0,2.743,1.219,2.743,3.1" transform="translate(-333.404 -219.003)" fill="#fff"></path><path id="Path_1017" data-name="Path 1017" d="M473.82,284.745l-2.945,7.413h-1.849l-3.016-7.413h2.138l1.814,4.966,1.782-4.966Z" transform="translate(-359.388 -219.596)" fill="#fff"></path><path id="Path_1018" data-name="Path 1018" d="M509.174,288.306h-5.61a1.728,1.728,0,0,0,1.811,1.569,1.76,1.76,0,0,0,1.572-.86h2.106a4.058,4.058,0,1,1,.159-1.3,4.691,4.691,0,0,1-.039.588m-5.557-1.369h3.592a1.824,1.824,0,0,0-1.833-1.4,1.739,1.739,0,0,0-1.759,1.4" transform="translate(-386.783 -218.889)" fill="#fff"></path><path id="Path_1019" data-name="Path 1019" d="M542.352,291.659c-1.861,0-3.1-1.062-3.114-2.651h1.954c.01.66.515.99,1.234.99.556,0,1.055-.252,1.055-.747s-.643-.66-1.427-.791c-1.184-.2-2.691-.514-2.691-2.261,0-1.4,1.193-2.371,2.983-2.371s2.964,1,2.971,2.477h-1.9c-.008-.589-.421-.88-1.119-.88-.624,0-.992.286-.992.71,0,.494.633.609,1.4.749,1.209.217,2.753.473,2.753,2.279,0,1.512-1.237,2.5-3.109,2.5Z" transform="translate(-415.862 -218.888)" fill="#fff"></path><path id="Path_1020" data-name="Path 1020" d="M574.166,283.852v1.785h-1.424a2.44,2.44,0,0,1-2.633-2.647v-3.155h-1.34V279.4l2.927-3.112h.383v1.934h2.045v1.611h-2.012v2.889a1.032,1.032,0,0,0,1.142,1.128Z" transform="translate(-438.637 -213.076)" fill="#fff"></path><path id="Path_1021" data-name="Path 1021" d="M609.381,286.915v4.648h-2v-4.318c0-.99-.388-1.511-1.114-1.511-.895,0-1.425.659-1.425,1.819v4.009h-1.954v-4.318c0-.99-.377-1.511-1.095-1.511-.906,0-1.448.659-1.448,1.819v4.009h-2v-7.413h1.4l.375.919a2.851,2.851,0,0,1,2.211-1.1,2.4,2.4,0,0,1,2.152,1.186,2.8,2.8,0,0,1,2.294-1.186,2.667,2.667,0,0,1,2.611,2.94" transform="translate(-461.44 -219.003)" fill="#fff"></path><path id="Path_1022" data-name="Path 1022" d="M660.133,288.306h-5.61a1.728,1.728,0,0,0,1.811,1.569,1.76,1.76,0,0,0,1.573-.86h2.106a4.058,4.058,0,1,1,.159-1.3,4.691,4.691,0,0,1-.039.588m-5.557-1.369h3.592a1.824,1.824,0,0,0-1.833-1.4,1.739,1.739,0,0,0-1.759,1.4" transform="translate(-503.203 -218.889)" fill="#fff"></path><path id="Path_1023" data-name="Path 1023" d="M699.262,287.072v4.493h-2V287.4c0-1.121-.425-1.661-1.293-1.661-1.033,0-1.664.74-1.664,1.933v3.9h-2v-7.413h1.375l.391.916a3.183,3.183,0,0,1,2.456-1.092c1.689,0,2.743,1.219,2.743,3.1" transform="translate(-533.902 -219.003)" fill="#fff"></path><path id="Path_1024" data-name="Path 1024" d="M732.145,283.852v1.785h-1.424a2.44,2.44,0,0,1-2.633-2.647v-3.155h-1.34V279.4l2.928-3.112h.383v1.934H732.1v1.611h-2.011v2.889a1.032,1.032,0,0,0,1.142,1.128Z" transform="translate(-560.47 -213.076)" fill="#fff"></path><path id="Path_1025" data-name="Path 1025" d="M757.331,291.659c-1.861,0-3.1-1.062-3.114-2.651h1.954c.01.66.516.99,1.234.99.556,0,1.055-.252,1.055-.747s-.643-.66-1.427-.791c-1.184-.2-2.691-.514-2.691-2.261,0-1.4,1.193-2.371,2.983-2.371s2.964,1,2.971,2.477h-1.9c-.007-.589-.421-.88-1.119-.88-.624,0-.992.286-.992.71,0,.494.633.609,1.4.749,1.209.217,2.753.473,2.753,2.279,0,1.512-1.237,2.5-3.109,2.5Z" transform="translate(-581.655 -218.888)" fill="#fff"></path><path id="Path_1026" data-name="Path 1026" d="M806.313,283.9v1.841h-6.4v-.429c3.759-4.343,4.251-5.055,4.251-6a1,1,0,0,0-1.046-1.058,1.016,1.016,0,0,0-1.069,1.083v.175h-1.963v-.2a2.8,2.8,0,0,1,3-2.89,2.846,2.846,0,0,1,3.056,2.865c0,1.121-.482,2.142-2.615,4.61Z" transform="translate(-616.896 -213.181)" fill="#fff"></path><path id="Path_1027" data-name="Path 1027" d="M833.666,281.209c0-2.922,1.415-4.733,3.7-4.733s3.7,1.811,3.7,4.733-1.429,4.736-3.7,4.736-3.7-1.826-3.7-4.736m5.424.011c0-1.877-.62-2.915-1.722-2.915s-1.725,1.027-1.725,2.9.606,2.906,1.725,2.906,1.722-1.017,1.722-2.9" transform="translate(-642.926 -213.219)" fill="#fff"></path><path id="Path_1028" data-name="Path 1028" d="M877.231,283.9v1.841h-6.4v-.429c3.759-4.343,4.25-5.055,4.25-6a1,1,0,0,0-1.046-1.058,1.016,1.016,0,0,0-1.069,1.083v.175H871v-.2a2.8,2.8,0,0,1,3-2.89,2.846,2.846,0,0,1,3.056,2.865c0,1.121-.482,2.142-2.615,4.61Z" transform="translate(-671.588 -213.181)" fill="#fff"></path><path id="Path_1029" data-name="Path 1029" d="M910.619,283.444a3.074,3.074,0,0,1-3.235,3.094,3.023,3.023,0,0,1-3.155-3.046h1.961a1.169,1.169,0,0,0,1.194,1.217,1.3,1.3,0,1,0-.137-2.6H905.92v-.368L907.583,279H904.45v-1.755h5.823v.365l-1.889,3.01a2.781,2.781,0,0,1,2.235,2.825" transform="translate(-697.345 -213.812)" fill="#fff"></path><path id="Path_1030" data-name="Path 1030" d="M338.731,103.963h-1.5v-1.977h8.936a1.308,1.308,0,0,1,1.5,1.5v2.056H345.61v-1.028a.443.443,0,0,0-.4-.474h-4.191v5.219h5.535v1.977h-5.535V118.2h-2.293Z" transform="translate(-260.071 -78.652)" fill="#fff"></path><path id="Path_1031" data-name="Path 1031" d="M394.282,121a6.169,6.169,0,1,1-.158,0Zm0,10.2a4.156,4.156,0,1,0-3.954-4.349v.158A4.053,4.053,0,0,0,394.2,131.2h.079" transform="translate(-299.254 -93.313)" fill="#fff"></path><path id="Path_1032" data-name="Path 1032" d="M449.942,124.217a.443.443,0,0,0-.4-.475h-1.028v-1.9h2.135c1.028,0,1.5.4,1.5,1.344v.712a2.7,2.7,0,0,1-.079.791h.079a3.874,3.874,0,0,1,3.638-3.005,1.74,1.74,0,0,1,.633.079v2.214a1.964,1.964,0,0,0-.633-.079,3.452,3.452,0,0,0-3.242,2.768,9.248,9.248,0,0,0-.316,2.056v4.745h-2.214Z" transform="translate(-345.899 -93.845)" fill="#fff"></path><path id="Path_1033" data-name="Path 1033" d="M492.39,121c3.242,0,4.982,2.451,4.982,5.456,0,.316-.079.949-.079.949H488.91a3.881,3.881,0,0,0,3.875,3.875h.079a5.392,5.392,0,0,0,3.4-1.344l.949,1.582a6.765,6.765,0,0,1-4.508,1.661,5.912,5.912,0,0,1-6.168-5.615v-.4c0-3.8,2.531-6.168,5.852-6.168m2.689,4.745a2.742,2.742,0,0,0-2.768-2.926,3.294,3.294,0,0,0-3.4,2.926Z" transform="translate(-375.22 -93.313)" fill="#fff"></path><path id="Path_1034" data-name="Path 1034" d="M544.251,127.965l-2.214-3.321a.962.962,0,0,0-.949-.4h-.633v-1.9h1.423a1.819,1.819,0,0,1,1.977,1.186l1.423,2.214c.158.316.4.712.4.712h.079s.237-.4.4-.712l1.423-2.214a1.975,1.975,0,0,1,1.977-1.186h1.423v1.819h-.633a.856.856,0,0,0-.949.4l-2.214,3.321,3.954,5.931H548.6l-2.451-3.8-.316-.633h-.079a4.664,4.664,0,0,1-.4.633l-2.372,3.8h-2.53Z" transform="translate(-416.801 -94.35)" fill="#fff"></path><path id="Path_1035" data-name="Path 1035" d="M593.11,103.964h-1.5v-1.977h6.959c2.768,0,4.745,1.5,4.745,4.112a3.716,3.716,0,0,1-1.977,3.48v.079a4.014,4.014,0,0,1,2.689,3.954c0,3.084-2.372,4.587-5.219,4.587h-4.112c-1.028,0-1.5-.4-1.5-1.5Zm5.456,4.824a2.294,2.294,0,0,0,2.372-2.214v-.237a2.213,2.213,0,0,0-2.056-2.372H595.4v4.824Zm-2.61,7.433H598.8a2.623,2.623,0,0,0,2.768-2.372v-.4a2.585,2.585,0,0,0-2.451-2.768H595.4v5.061a.443.443,0,0,0,.4.475h.158" transform="translate(-456.25 -78.653)" fill="#fff"></path><path id="Path_1036" data-name="Path 1036" d="M653.515,124.217a.443.443,0,0,0-.4-.475h-1.028v-1.9h2.135c1.028,0,1.5.4,1.5,1.344v.712a2.7,2.7,0,0,1-.079.791h.079a3.874,3.874,0,0,1,3.638-3.005,1.739,1.739,0,0,1,.633.079v2.214a1.963,1.963,0,0,0-.633-.079,3.452,3.452,0,0,0-3.242,2.768,9.248,9.248,0,0,0-.316,2.056v4.745h-2.214v-9.252Z" transform="translate(-502.896 -93.845)" fill="#fff"></path><path id="Path_1037" data-name="Path 1037" d="M696.358,121a6.169,6.169,0,1,1-.158,0Zm0,10.2a4.156,4.156,0,1,0-3.954-4.349v.158a4.054,4.054,0,0,0,3.875,4.191h.079" transform="translate(-532.216 -93.313)" fill="#fff"></path><path id="Path_1038" data-name="Path 1038" d="M750.981,104.438a.443.443,0,0,0-.4-.475h-1.028v-1.977h2.214c1.028,0,1.5.316,1.5,1.344v7.513H754.3a1.493,1.493,0,0,0,1.186-.475l2.689-3.8h2.53l-3.163,4.349a4.534,4.534,0,0,1-.87.87v.079a1.9,1.9,0,0,1,.791.87l1.74,3.163c.158.4.4.475.949.475h.712v1.9h-1.582a1.671,1.671,0,0,1-1.9-1.107l-2.135-3.875a1.279,1.279,0,0,0-1.186-.475h-.87v5.456h-2.214Z" transform="translate(-578.062 -78.653)" fill="#fff"></path><path id="Path_1039" data-name="Path 1039" d="M808.369,121c3.242,0,4.982,2.451,4.982,5.456,0,.316-.079.949-.079.949H804.81a3.881,3.881,0,0,0,3.875,3.875h.079a5.393,5.393,0,0,0,3.4-1.344l.949,1.582a6.764,6.764,0,0,1-4.507,1.661,5.912,5.912,0,0,1-6.168-5.615v-.4c.079-3.8,2.61-6.168,5.931-6.168m2.689,4.745a2.742,2.742,0,0,0-2.768-2.926,3.294,3.294,0,0,0-3.4,2.926Z" transform="translate(-618.843 -93.313)" fill="#fff"></path><path id="Path_1040" data-name="Path 1040" d="M858.47,124.217a.443.443,0,0,0-.4-.475h-1.028v-1.9h2.135c1.028,0,1.5.4,1.5,1.344v.712a2.7,2.7,0,0,1-.079.791h.079a3.874,3.874,0,0,1,3.638-3.005,1.74,1.74,0,0,1,.633.079v2.214a1.964,1.964,0,0,0-.633-.079,3.452,3.452,0,0,0-3.242,2.768,6.1,6.1,0,0,0-.237,2.056v4.745h-2.214Z" transform="translate(-660.958 -93.845)" fill="#fff"></path><path id="Path_1041" data-name="Path 1041" d="M896.943,129.615a4.954,4.954,0,0,0,3.479,1.74c1.107,0,1.977-.475,1.977-1.5,0-2.056-6.326-1.9-6.326-5.614,0-2.214,1.977-3.242,4.349-3.242,1.424,0,3.8.475,3.8,2.214v1.107h-1.977v-.553c0-.712-1.028-.949-1.74-.949-1.344,0-2.135.475-2.135,1.344,0,2.214,6.326,1.74,6.326,5.614,0,2.056-1.819,3.4-4.27,3.4a5.965,5.965,0,0,1-4.666-2.056Z" transform="translate(-690.811 -93.313)" fill="#fff"></path><rect id="Rectangle_269" data-name="Rectangle 269" width="1.423" height="1.503" transform="translate(215.701 38.043)" fill="#fff"></rect><path id="Path_1042" data-name="Path 1042" d="M958.991,140.351c.87,0,2.609.4,2.609,1.581v.712h-1.265v-.4c0-.475-.791-.712-1.344-.712a2.57,2.57,0,1,0,.079,5.14,2.942,2.942,0,0,0,2.214-1.028l.633.949a3.914,3.914,0,0,1-6.722-2.609,3.666,3.666,0,0,1,3.8-3.638" transform="translate(-736.648 -108.239)" fill="#fff"></path><path id="Path_1043" data-name="Path 1043" d="M991.568,140.084a2.819,2.819,0,1,1-.158-.079.244.244,0,0,0,.158.079m0,6.326a2.573,2.573,0,1,0-2.451-2.689v.079a2.534,2.534,0,0,0,2.372,2.61h.079" transform="translate(-761.712 -107.972)" fill="#fff"></path><path id="Path_1044" data-name="Path 1044" d="M1026.236,141.677c0-.158-.079-.316-.237-.316h-.633v-1.186h1.344c.633,0,.949.237.949.791v.633a3.03,3.03,0,0,1,2.452-1.661,1.934,1.934,0,0,1,2.135,1.661,3.156,3.156,0,0,1,2.531-1.661c1.582,0,2.372.949,2.372,2.768v3.084c0,.158.079.316.237.316h.633v1.186h-1.344c-.633,0-.949-.237-.949-.87v-3.4c0-1.028-.158-1.819-1.265-1.819a2.357,2.357,0,0,0-2.056,1.819,3.842,3.842,0,0,0-.079.949v3.321H1030.9v-4.349c0-.949-.158-1.819-1.265-1.819a2.269,2.269,0,0,0-2.056,1.9,3.854,3.854,0,0,0-.079.949v3.321h-1.423Z" transform="translate(-790.766 -107.904)" fill="#fff"></path><path id="Path_1045" data-name="Path 1045" d="M273.223,133.094a.118.118,0,0,1-.032-.007l-.009,0-.012,0h0a2.105,2.105,0,0,0-.949.237.975.975,0,0,0-.316.633c0,.554.475.712,1.028.87l1.186.316a.973.973,0,0,1,.42.1Z" transform="translate(-209.694 -102.637)" fill="#fff"></path><path id="Path_1046" data-name="Path 1046" d="M211.306,116.8a2.322,2.322,0,0,1-.771,1.344,3.461,3.461,0,0,1-1.5.553v.87a.21.21,0,0,1-.237.237h-.633a.21.21,0,0,1-.237-.237v-.87a2.719,2.719,0,0,1-2.214-1.977.244.244,0,0,1,.079-.158c0-.079.079-.079.158-.079h1.028c.079,0,.237.079.237.158a1.221,1.221,0,0,0,1.265.712,1.427,1.427,0,0,0,.949-.237.976.976,0,0,0,.316-.633c0-.553-.475-.712-1.028-.87l-1.107-.316c-.791-.237-1.977-.712-1.977-2.056a2.213,2.213,0,0,1,.791-1.9,2.346,2.346,0,0,1,1.186-.553h0s.007-.006.012-.009l-2.979-4.864-.017.019a.284.284,0,0,1-.022.027v0l-2.451,3.005h1.5a.17.17,0,0,1,.158.158v.633a.17.17,0,0,1-.158.158h-1.5v.554h1.423a.17.17,0,0,1,.158.158v.712a.17.17,0,0,1-.158.158h-1.5v.949a.17.17,0,0,1-.158.158H200.65a.17.17,0,0,1-.158-.158v-.949h-1.5a.17.17,0,0,1-.158-.158v-.712a.17.17,0,0,1,.158-.158h1.5v-.554h-1.5a.17.17,0,0,1-.158-.158v-.712a.17.17,0,0,1,.158-.158h1.5l-2.6-2.919-2.852,4.658a4.23,4.23,0,0,1,2.213.87c.079.079.079.079.079.158s-.079.079-.079.158l-.712.87c-.079.079-.079.079-.158.079s-.079-.079-.158-.079a2.943,2.943,0,0,0-1.581-.553h-.524l-.875,1.428.054-.084h1.582a.17.17,0,0,1,.158.158v.712a.21.21,0,0,1-.237.237h-2.183l-.386.63a.347.347,0,0,1,.035.007l0,0h1.977c.079,0,.158.158.158.237v.712a.17.17,0,0,1-.158.158h-1.819a2.6,2.6,0,0,0,2.214,1.344,2.51,2.51,0,0,0,1.581-.633.241.241,0,0,1,.316,0l.712.791c.079.079.079.079.079.158s0,.158-.079.158a3.93,3.93,0,0,1-2.609.949,4.361,4.361,0,0,1-3.553-1.97l-.014-.017-3.154,5.151h26.728Zm-7.018,5.377h-5.773v-1.028c0-.079,0-.158.079-.158a2.265,2.265,0,0,0,1.265-1.661h-1.186a.252.252,0,0,1-.237-.237v-.712a.253.253,0,0,1,.237-.237H199.7a3.6,3.6,0,0,1,1.107-3.479,2.986,2.986,0,0,1,3.321-.079c0,.079.079.079.079.158v.158l-.633,1.107a.152.152,0,0,1-.237.079,1.307,1.307,0,0,0-1.5,0,2.142,2.142,0,0,0-.4,2.056h1.424a.253.253,0,0,1,.237.237v.712a.252.252,0,0,1-.237.237H201.52a3.385,3.385,0,0,1-.475,1.74h3.005a.253.253,0,0,1,.237.237Z" transform="translate(-144.924 -81.687)" fill="#fff"></path><path id="Path_1047" data-name="Path 1047" d="M238.035,81.941l-2.46,4.018a.343.343,0,0,1,.111.109c.031.009.056.024.056.064l2.293,2.768,2.293-2.768.008-.006a.763.763,0,0,0,.067-.057.376.376,0,0,1,.043-.04.3.3,0,0,1,.051-.054l0,0v0Z" transform="translate(-181.676 -63.193)" fill="#fff"></path></g></svg>