<svg xmlns="http://www.w3.org/2000/svg" xmlns:xlink="http://www.w3.org/1999/xlink" id="Group_836" data-name="Group 836" width="290.247" height="91.519" viewBox="0 0 290.247 91.519"><defs><clipPath id="clip-path"><rect id="Rectangle_254" data-name="Rectangle 254" width="290.247" height="91.519" fill="none"></rect></clipPath></defs><path id="Path_941" data-name="Path 941" d="M190.481,210.123h-3.287l4.285-20.274h10.733l-.6,2.843h-7.447l-1.331,6.3H199.8l-.624,2.815h-6.934Z" transform="translate(-144.365 -146.412)" fill="#fff"></path><g id="Group_835" data-name="Group 835"><g id="Group_834" data-name="Group 834" clip-path="url(#clip-path)"><path id="Path_942" data-name="Path 942" d="M245.363,204.4h-6.725l-2.9,5.63h-3.522l10.858-20.3h3.8l2.3,20.3h-3.245Zm-.222-2.885q-.555-5.769-.631-6.982t-.076-1.935a46.794,46.794,0,0,1-1.969,4.257l-2.385,4.66Z" transform="translate(-179.087 -146.32)" fill="#fff"></path><path id="Path_943" data-name="Path 943" d="M327.609,203.207a5.587,5.587,0,0,1-2,4.562,8.446,8.446,0,0,1-5.526,1.65,10.028,10.028,0,0,1-4.826-1.04v-3.106a9.833,9.833,0,0,0,4.853,1.345,4.935,4.935,0,0,0,3-.811,2.647,2.647,0,0,0,1.1-2.253,2.717,2.717,0,0,0-.569-1.7,9.825,9.825,0,0,0-2.385-1.893,10.817,10.817,0,0,1-2.15-1.692,5.582,5.582,0,0,1-1.061-1.671,5.289,5.289,0,0,1-.367-2,5.84,5.84,0,0,1,.853-3.148,5.628,5.628,0,0,1,2.413-2.122,8.018,8.018,0,0,1,3.515-.749,11.238,11.238,0,0,1,5.283,1.276l-1.193,2.649a9.5,9.5,0,0,0-4.091-1.082,3.524,3.524,0,0,0-2.427.812,2.693,2.693,0,0,0-.915,2.115,2.923,2.923,0,0,0,.208,1.144,2.8,2.8,0,0,0,.645.916,13.467,13.467,0,0,0,1.865,1.324,9.552,9.552,0,0,1,2.967,2.6,5.152,5.152,0,0,1,.818,2.878" transform="translate(-243.124 -145.431)" fill="#fff"></path><path id="Path_944" data-name="Path 944" d="M391.013,210.123h-3.287l3.661-17.431h-5.256l.624-2.843h13.839l-.6,2.843h-5.283Z" transform="translate(-297.786 -146.412)" fill="#fff"></path><path id="Path_945" data-name="Path 945" d="M462.745,145.932a8.922,8.922,0,0,1,6.75,2.7,10.085,10.085,0,0,1,2.587,7.278q0,6-3.7,9.256t-10.717,3.255a30.049,30.049,0,0,1-5.623-.506,10.022,10.022,0,0,1-3.9-1.4v-7.451a16.407,16.407,0,0,0,4.162,1.621,17.613,17.613,0,0,0,4.232.587q6.37,0,6.37-4.416a3.685,3.685,0,0,0-1.162-2.829,4.424,4.424,0,0,0-3.139-1.081,15.073,15.073,0,0,0-2.553.23,13.529,13.529,0,0,0-2.116.506l-2.806-2.116,4.945-17.225h18.7l-1.564,7.429H462.376l-1.357,4.255a15.27,15.27,0,0,1,1.725-.092" transform="translate(-345.608 -103.604)" fill="#fff"></path><path id="Path_946" data-name="Path 946" d="M586.538,143.576a35.192,35.192,0,0,1-1.955,12.177,18.136,18.136,0,0,1-5.4,8.106,12.373,12.373,0,0,1-8,2.783q-4.83,0-7.313-2.9t-2.484-8.256a36.357,36.357,0,0,1,1.955-12.269,18.613,18.613,0,0,1,5.4-8.337,12.188,12.188,0,0,1,8-2.851,9.47,9.47,0,0,1,5.3,1.437,9.1,9.1,0,0,1,3.346,4.014,14.855,14.855,0,0,1,1.15,6.094M575.706,139.3q-1.265,0-2.53,2.553a26.311,26.311,0,0,0-2.047,6.485,37.756,37.756,0,0,0-.782,7.337,8.491,8.491,0,0,0,.345,2.829,1.341,1.341,0,0,0,1.38.9q1.333,0,2.564-2.174a22.476,22.476,0,0,0,2.093-6.106,35.989,35.989,0,0,0,.863-7.727,8.486,8.486,0,0,0-.425-3.024,1.491,1.491,0,0,0-1.46-1.069" transform="translate(-432.937 -101.823)" fill="#fff"></path><path id="Path_947" data-name="Path 947" d="M219.307,125.587a8.731,8.731,0,0,1-.938,4.118,6.56,6.56,0,0,1-2.68,2.752,8.293,8.293,0,0,1-4.082.965h-3.145l2.76-13.061h3.055a4.955,4.955,0,0,1,3.747,1.336,5.4,5.4,0,0,1,1.282,3.89m-7.6,6.521a6.057,6.057,0,0,0,3.171-.818,5.358,5.358,0,0,0,2.095-2.309,7.685,7.685,0,0,0,.728-3.412,4.119,4.119,0,0,0-.92-2.907,3.51,3.51,0,0,0-2.7-.987h-1.59l-2.234,10.434Z" transform="translate(-160.767 -92.823)" fill="#fff"></path><path id="Path_948" data-name="Path 948" d="M263.549,144.018a3.417,3.417,0,0,1-2.582-.973,3.728,3.728,0,0,1-.938-2.7,8.04,8.04,0,0,1,.665-3.22,5.959,5.959,0,0,1,1.764-2.4,3.847,3.847,0,0,1,2.421-.858,3.071,3.071,0,0,1,2.055.594,2.073,2.073,0,0,1,.688,1.657,2.831,2.831,0,0,1-1.483,2.524,8.119,8.119,0,0,1-4.243.916H261.6l-.036.715a2.766,2.766,0,0,0,.549,1.827,2.1,2.1,0,0,0,1.7.656,4.412,4.412,0,0,0,1.157-.161,8.837,8.837,0,0,0,1.478-.59v1.3a8.086,8.086,0,0,1-1.483.549,6.01,6.01,0,0,1-1.42.156m1.242-8.87a2.388,2.388,0,0,0-1.729.839,5.486,5.486,0,0,0-1.237,2.332h.107a7.286,7.286,0,0,0,3.122-.532,1.668,1.668,0,0,0,1.086-1.541,1.045,1.045,0,0,0-.326-.786,1.437,1.437,0,0,0-1.023-.313" transform="translate(-200.535 -103.241)" fill="#fff"></path><path id="Path_949" data-name="Path 949" d="M296.484,130.592h-1.5l2.966-13.9h1.5Z" transform="translate(-227.492 -89.993)" fill="#fff"></path><path id="Path_950" data-name="Path 950" d="M319.118,134.1a3.576,3.576,0,0,1,2.68,1.005,3.784,3.784,0,0,1,.983,2.765,7.924,7.924,0,0,1-.643,3.171,5.483,5.483,0,0,1-1.742,2.3,4.069,4.069,0,0,1-2.483.813,3.56,3.56,0,0,1-2.689-1.01,3.808,3.808,0,0,1-.974-2.76,7.908,7.908,0,0,1,.652-3.194,5.411,5.411,0,0,1,1.76-2.3,4.1,4.1,0,0,1,2.457-.8m2.108,3.565a2.441,2.441,0,0,0-.558-1.666,1.908,1.908,0,0,0-1.514-.639,2.614,2.614,0,0,0-1.746.661,4.253,4.253,0,0,0-1.2,1.835,7.648,7.648,0,0,0-.425,2.613,2.635,2.635,0,0,0,.567,1.809,2.065,2.065,0,0,0,1.63.639,2.462,2.462,0,0,0,1.67-.652,4.253,4.253,0,0,0,1.157-1.853,8.387,8.387,0,0,0,.415-2.747" transform="translate(-242.35 -103.421)" fill="#fff"></path><path id="Path_951" data-name="Path 951" d="M355.732,132.188h-1.5l2.091-9.791h1.5Zm1.009-12.292a1.174,1.174,0,0,1,.286-.818.954.954,0,0,1,.742-.317.7.7,0,0,1,.786.8,1.211,1.211,0,0,1-.3.831.9.9,0,0,1-.692.34.826.826,0,0,1-.59-.219.813.813,0,0,1-.232-.621" transform="translate(-273.184 -91.589)" fill="#fff"></path><path id="Path_952" data-name="Path 952" d="M377.508,135.811a4.845,4.845,0,0,0,1.286-.232v1.152a4.128,4.128,0,0,1-.75.214,3.868,3.868,0,0,1-.715.089,2.485,2.485,0,0,1-1.711-.531,2.016,2.016,0,0,1-.594-1.586,6.481,6.481,0,0,1,.161-1.34l1.135-5.378h-1.537l.125-.652,1.653-.7,1.117-2.037h.875l-.491,2.251h2.448l-.232,1.134h-2.439l-1.152,5.4a6.352,6.352,0,0,0-.161,1.18,1.059,1.059,0,0,0,.259.768.96.96,0,0,0,.723.268" transform="translate(-289.034 -96.257)" fill="#fff"></path><path id="Path_953" data-name="Path 953" d="M404.633,135.811a4.845,4.845,0,0,0,1.286-.232v1.152a4.134,4.134,0,0,1-.75.214,3.868,3.868,0,0,1-.715.089,2.484,2.484,0,0,1-1.711-.531,2.016,2.016,0,0,1-.594-1.586,6.477,6.477,0,0,1,.161-1.34l1.135-5.378h-1.537l.125-.652,1.653-.7,1.117-2.037h.875l-.491,2.251h2.448L407.4,128.2h-2.439l-1.152,5.4a6.354,6.354,0,0,0-.161,1.18,1.06,1.06,0,0,0,.259.768.961.961,0,0,0,.724.268" transform="translate(-309.953 -96.257)" fill="#fff"></path><path id="Path_954" data-name="Path 954" d="M429.509,144.018a3.417,3.417,0,0,1-2.582-.973,3.728,3.728,0,0,1-.938-2.7,8.041,8.041,0,0,1,.666-3.22,5.958,5.958,0,0,1,1.765-2.4,3.846,3.846,0,0,1,2.42-.858,3.071,3.071,0,0,1,2.055.594,2.074,2.074,0,0,1,.688,1.657,2.831,2.831,0,0,1-1.483,2.524,8.12,8.12,0,0,1-4.243.916h-.295l-.036.715a2.767,2.767,0,0,0,.549,1.827,2.1,2.1,0,0,0,1.7.656,4.417,4.417,0,0,0,1.157-.161,8.851,8.851,0,0,0,1.478-.59v1.3a8.094,8.094,0,0,1-1.483.549,6.009,6.009,0,0,1-1.42.156m1.242-8.87a2.388,2.388,0,0,0-1.729.839,5.491,5.491,0,0,0-1.237,2.332h.107a7.286,7.286,0,0,0,3.122-.532,1.668,1.668,0,0,0,1.086-1.541,1.045,1.045,0,0,0-.326-.786,1.438,1.438,0,0,0-1.023-.313" transform="translate(-328.524 -103.241)" fill="#fff"></path><path id="Path_955" data-name="Path 955" d="M753.406,193.975a4.132,4.132,0,0,0,1.45.159c2.639,0,4.472-2.385,4.472-5.715,0-1.528-.751-2.106-2.038-2.106a4.063,4.063,0,0,0-2.722,1.345Zm1.88-10.232a6.117,6.117,0,0,1,4.351-1.613c3.472.126,5.643,1.949,5.643,5.523,0,6.845-4.279,10.7-10.65,10.7a23.56,23.56,0,0,1-7.581-1.319l3.706-19.823c.29-1.62.962-2.257,3.053-2.257l3.108,0Z" transform="translate(-576.128 -134.923)" fill="#fff"></path><path id="Path_956" data-name="Path 956" d="M754.193,198.081a23.507,23.507,0,0,1-7.62-1.326l-.091-.033.018-.095,3.706-19.823c.314-1.757,1.113-2.35,3.165-2.35l3.244,0-1.59,8.574a6.371,6.371,0,0,1,4.179-1.4c3.709.134,5.752,2.136,5.752,5.637,0,6.668-4.124,10.809-10.763,10.809m-7.451-1.507a23.319,23.319,0,0,0,7.451,1.279c6.5,0,10.536-4.055,10.536-10.582,0-3.359-1.965-5.28-5.533-5.409a5.935,5.935,0,0,0-4.264,1.576l-.267.288,1.677-9.042-2.97,0c-1.934,0-2.648.526-2.941,2.163Zm7.677-2.709a4.217,4.217,0,0,1-1.48-.163l-.1-.027,1.191-6.451a4.124,4.124,0,0,1,2.824-1.408c1.447,0,2.151.726,2.151,2.22,0,3.432-1.886,5.829-4.586,5.829m-1.319-.355a4.008,4.008,0,0,0,1.319.128c2.566,0,4.358-2.3,4.358-5.6,0-1.359-.611-1.992-1.924-1.992a4.041,4.041,0,0,0-2.614,1.269Z" transform="translate(-575.69 -134.54)" fill="#fff"></path><path id="Path_957" data-name="Path 957" d="M845.061,221.45c.189.388.674.8,1.78.788,1.266,0,2.688-.188,4.241-.188,2.431,0,3.286.151,6.451.2a1.875,1.875,0,0,0,2.191-1.651c.167-.732.341-1.589.525-2.8a23.756,23.756,0,0,1-3.575-.022,34.765,34.765,0,0,0-4.274-.081,18.564,18.564,0,0,1,3.027-3.291c.729-.651,2.044-1.7,3.44-3.142s3.015-3.119,2.519-5.258c-1.548.1-2.643.144-4.692.144-2.518,0-5.667-.142-7.346-.142-1.434,0-2.112.449-2.378,1.545-.228.934-.621,2.962-.621,2.962a15.547,15.547,0,0,1,2.327-.128c.954,0,3.517.067,4.062.135-.232.685-2.506,2.283-3.924,3.776a28.963,28.963,0,0,0-3.127,3.738c-1.964.991-3.082.692-2.9-.75l.809-4.316a16.916,16.916,0,0,0,.275-2.521c-.163-2.806-2.056-4.525-5.312-4.525a6.285,6.285,0,0,0-4.041,1.649s-.248-1.3-2.083-1.39l-3.164-.009-2.56,13.776c-.355,1.8.313,2.062,2,2.062l3.224.006,1.95-10.337a3.485,3.485,0,0,1,2.8-1.558c.918,0,1.718.424,1.524,1.554-.061.352-.995,5.566-.995,5.566A4.351,4.351,0,0,0,838.244,221a4.774,4.774,0,0,0,3.218,1.244,6.357,6.357,0,0,0,3.6-.8" transform="translate(-637.49 -158.806)" fill="#fff"></path><path id="Path_958" data-name="Path 958" d="M841.388,221.982c-.1,0-.21,0-.315-.006a4.89,4.89,0,0,1-3.294-1.277,4.5,4.5,0,0,1-1.056-3.86s.934-5.217,1-5.569a1.163,1.163,0,0,0-.2-.985,1.556,1.556,0,0,0-1.216-.436,3.373,3.373,0,0,0-2.694,1.481l-1.965,10.415h-.095l-3.224-.006c-.955,0-1.615-.083-1.955-.5a2.015,2.015,0,0,1-.161-1.7l2.577-13.868,1.677.005c1.015,0,1.422,0,1.586.029v-.024a2.192,2.192,0,0,1,2.136,1.311,6.309,6.309,0,0,1,3.983-1.571c3.278,0,5.255,1.688,5.426,4.632a8.046,8.046,0,0,1-.152,1.674c-.046.286-.094.584-.123.865l-.811,4.325a1.031,1.031,0,0,0,.3,1.039c.432.306,1.287.163,2.408-.4a30.291,30.291,0,0,1,3.123-3.729c.61-.642,1.385-1.311,2.069-1.9a11.463,11.463,0,0,0,1.762-1.7c-.751-.059-2.955-.114-3.887-.119a15.1,15.1,0,0,0-2.3.124l-.177.048.035-.18c0-.02.4-2.042.622-2.968.282-1.159,1-1.631,2.489-1.631.756,0,1.83.029,2.968.06,1.4.038,2.994.081,4.378.081,2.037,0,3.134-.047,4.685-.144l.1-.006.022.094c.51,2.2-1.113,3.876-2.544,5.358-1.063,1.1-2.08,1.971-2.822,2.607-.239.2-.451.386-.628.544a19.512,19.512,0,0,0-2.874,3.078,37.6,37.6,0,0,1,4.051.1,23.753,23.753,0,0,0,3.559.022l.145-.013-.022.143c-.2,1.329-.388,2.2-.527,2.81a1.964,1.964,0,0,1-2.224,1.74h-.079c-1.547-.022-2.553-.07-3.44-.112-.949-.045-1.768-.084-3.01-.084-.813,0-1.583.052-2.329.1-.687.046-1.349.09-1.95.087a1.93,1.93,0,0,1-1.78-.738,6.423,6.423,0,0,1-3.25.75m-5.082-12.361a1.773,1.773,0,0,1,1.39.518,1.375,1.375,0,0,1,.247,1.169c-.061.353-.995,5.567-.995,5.567a4.234,4.234,0,0,0,.985,3.656,4.675,4.675,0,0,0,3.148,1.217,6.329,6.329,0,0,0,3.528-.773l.11-.081.06.123c.132.272.522.725,1.64.725.609-.006,1.252-.041,1.934-.087.75-.05,1.524-.1,2.344-.1,1.247,0,2.069.039,3.021.084.886.042,1.889.09,3.432.112a1.771,1.771,0,0,0,2.078-1.562c.133-.585.309-1.409.5-2.65a24.674,24.674,0,0,1-3.448-.034,34.581,34.581,0,0,0-4.258-.08l-.235.017.133-.2a18.966,18.966,0,0,1,3.045-3.312c.178-.159.391-.342.631-.548.739-.634,1.751-1.5,2.8-2.589,1.373-1.422,2.924-3.027,2.51-5.059-1.5.094-2.6.138-4.6.138-1.387,0-2.98-.043-4.384-.081-1.136-.03-2.209-.06-2.962-.06-1.377,0-2.013.409-2.268,1.457-.187.767-.49,2.293-.588,2.794a16.755,16.755,0,0,1,2.183-.1c.9,0,3.517.067,4.075.135l.139.017-.045.132a7.682,7.682,0,0,1-1.9,1.934c-.68.586-1.451,1.251-2.053,1.885a29.842,29.842,0,0,0-3.113,3.72l-.017.027-.028.014c-1.231.621-2.155.757-2.67.394a1.221,1.221,0,0,1-.4-1.26l.81-4.323c.028-.279.076-.579.123-.869a7.832,7.832,0,0,0,.15-1.625c-.163-2.807-2.057-4.417-5.2-4.417a6.216,6.216,0,0,0-3.969,1.624l-.147.119-.037-.186c-.01-.05-.26-1.216-1.977-1.3l-3.064-.008-2.543,13.682c-.149.758-.113,1.239.112,1.513.283.345.891.414,1.779.414l3.13.006,1.942-10.273a3.612,3.612,0,0,1,2.906-1.622" transform="translate(-637.105 -158.423)" fill="#fff"></path><path id="Path_959" data-name="Path 959" d="M1018.32,123.759c.41,2.5.408,2.494.41,2.5a.5.5,0,0,0,.513.408h2.77l-2.512,1.544a.692.692,0,0,0-.343.655l.41,2.5,0,0-1.963-1.544a.655.655,0,0,0-.726,0c-.005,0-2.518,1.546-2.518,1.546l1.3-2.5a.524.524,0,0,0-.1-.658l-1.966-1.546h2.769a.786.786,0,0,0,.662-.4s1.3-2.5,1.3-2.5" transform="translate(-781.681 -95.443)" fill="#fff"></path><path id="Path_960" data-name="Path 960" d="M1012.616,130.478l1.326-2.549.161-.31a.415.415,0,0,0-.073-.519l-1.965-1.546-.36-.283.451.082h2.749a.668.668,0,0,0,.561-.342h0s.052-.1,1.3-2.5l.158-.3.413,2.522c.031.193.043.265.048.293l0,.021a.392.392,0,0,0,.4.312h3.173l-2.54,1.561-.32.2a.574.574,0,0,0-.286.538s.41,2.5.41,2.5l.035.21-.222-.1-1.716-1.35c-.25-.2-.25-.2-.256-.2a.548.548,0,0,0-.585.014c-.043.025-1.666,1.022-2.518,1.546Zm3.183-2.081a.681.681,0,0,1,.421.135l.246.194,1.491,1.172-.363-2.216a.8.8,0,0,1,.4-.771l.315-.194,1.854-1.14h-2.368a.618.618,0,0,1-.625-.5h0c-.008-.036-.021-.116-.053-.313l-.3-1.847c-.458.88-1.126,2.163-1.143,2.2a.9.9,0,0,1-.764.466h-2.439l1.7,1.341a.64.64,0,0,1,.136.8v0l-.164.315-.947,1.819c2.171-1.334,2.173-1.335,2.186-1.339a.788.788,0,0,1,.416-.116" transform="translate(-780.231 -94.243)" fill="#fff"></path><path id="Path_961" data-name="Path 961" d="M980.673,146.389c.409,2.5.409,2.495.409,2.5a.5.5,0,0,0,.514.408h2.771l-2.512,1.544a.688.688,0,0,0-.344.656s.41,2.5.41,2.5l0,0-1.963-1.544a.655.655,0,0,0-.725,0L976.711,154c1.3-2.5,1.3-2.494,1.3-2.5a.523.523,0,0,0-.1-.657l-1.966-1.547h2.77a.785.785,0,0,0,.661-.4s1.3-2.5,1.3-2.5" transform="translate(-752.648 -112.896)" fill="#fff"></path><path id="Path_962" data-name="Path 962" d="M974.695,153.109l1.326-2.549.161-.309a.415.415,0,0,0-.072-.52l-1.966-1.547-.441-.347.542.148,2.74,0a.668.668,0,0,0,.56-.343s.041-.081,1.3-2.5l.158-.3.413,2.522c.052.321.052.321.052.332a.39.39,0,0,0,.4.294h3.174l-2.541,1.561-.311.191a.577.577,0,0,0-.3.543c.008.052.41,2.5.41,2.5l.034.208-.221-.1-1.716-1.35-.244-.192a.543.543,0,0,0-.6,0l-2.517,1.546Zm3.6-1.946.247.194,1.49,1.172c-.364-2.22-.364-2.221-.364-2.234a.79.79,0,0,1,.4-.753l0,0,.318-.195,1.854-1.14H979.87a.62.62,0,0,1-.626-.5c0-.011-.009-.053-.051-.313l-.3-1.847-1.144,2.2a.9.9,0,0,1-.763.466h-2.439c1.708,1.343,1.709,1.345,1.716,1.352a.634.634,0,0,1,.125.79v0l-.164.316-.947,1.819c2.167-1.332,2.17-1.334,2.178-1.337a.756.756,0,0,1,.844.016Z" transform="translate(-750.922 -111.696)" fill="#fff"></path><path id="Path_963" data-name="Path 963" d="M1047.532,146.389c.409,2.5.409,2.495.409,2.5a.505.505,0,0,0,.514.408h2.771l-2.512,1.544a.687.687,0,0,0-.343.656l.41,2.5,0,0-1.963-1.544a.655.655,0,0,0-.725,0L1043.569,154l1.3-2.5a.523.523,0,0,0-.1-.657l-1.965-1.547h2.769a.784.784,0,0,0,.661-.4s1.3-2.5,1.3-2.5" transform="translate(-804.21 -112.896)" fill="#fff"></path><path id="Path_964" data-name="Path 964" d="M1041.309,153.109l1.49-2.862a.411.411,0,0,0-.074-.517l-1.965-1.547-.514-.4.606.2h2.747a.666.666,0,0,0,.56-.342l1.3-2.5.158-.3.413,2.522c.052.321.052.321.052.332a.4.4,0,0,0,.4.294h3.174l-2.541,1.561-.312.192a.576.576,0,0,0-.294.542s0,.027.41,2.5l.031.192-.219-.086-1.716-1.35-.244-.192a.543.543,0,0,0-.6,0l-2.518,1.546Zm3.6-1.946.247.194,1.491,1.173-.362-2.216a.8.8,0,0,1,.4-.771h0l.317-.195,1.854-1.14h-2.368a.62.62,0,0,1-.626-.5c0-.011-.009-.053-.051-.313l-.3-1.847-1.144,2.2a.894.894,0,0,1-.763.466h-2.438c1.707,1.343,1.708,1.345,1.715,1.352a.634.634,0,0,1,.126.79l-.163.314-.947,1.819c2.168-1.332,2.171-1.334,2.179-1.337a.756.756,0,0,1,.845.016h0" transform="translate(-802.241 -111.696)" fill="#fff"></path><path id="Path_965" data-name="Path 965" d="M1004.5,193.4c.409,2.5.409,2.494.409,2.5a.5.5,0,0,0,.514.408h2.771l-2.512,1.544a.69.69,0,0,0-.344.655s.411,2.5.411,2.5h0l-1.963-1.544a.655.655,0,0,0-.725,0c-.005,0-2.518,1.546-2.518,1.546l1.3-2.5a.523.523,0,0,0-.1-.657l-1.965-1.547h2.769a.784.784,0,0,0,.661-.4s1.3-2.5,1.3-2.5" transform="translate(-771.025 -149.147)" fill="#fff"></path><path id="Path_966" data-name="Path 966" d="M998.6,200.113l1.49-2.861a.412.412,0,0,0-.074-.517l-1.965-1.547-.418-.329.516.129,2.742,0a.667.667,0,0,0,.56-.342h0l1.3-2.5.158-.3.413,2.522c.052.321.052.321.052.332a.39.39,0,0,0,.4.294h3.174l-2.54,1.561-.313.193a.578.578,0,0,0-.294.542h0s.015.09.41,2.5l.031.192-.219-.086-1.716-1.35c-.25-.2-.25-.2-.256-.2a.544.544,0,0,0-.586.014c-.043.025-1.665,1.022-2.518,1.546Zm3.185-2.083a.676.676,0,0,1,.42.137l.246.194,1.491,1.173c-.107-.65-.357-2.18-.363-2.215a.8.8,0,0,1,.4-.773l.315-.194,1.854-1.14h-2.368a.621.621,0,0,1-.626-.5c0-.013-.009-.056-.051-.314l-.3-1.847c-.458.88-1.126,2.163-1.143,2.2a.9.9,0,0,1-.763.466h-2.44l1.706,1.343a.638.638,0,0,1,.136.8l-.163.314-.947,1.819c2.171-1.334,2.172-1.335,2.186-1.34a.793.793,0,0,1,.417-.118" transform="translate(-769.38 -147.945)" fill="#fff"></path><line id="Line_8" data-name="Line 8" y2="36.548" transform="translate(161.411 27.485)" fill="#fff"></line><path id="Path_967" data-name="Path 967" d="M704.922,156.287a.165.165,0,0,1-.164-.164V119.574a.165.165,0,1,1,.329,0v36.549a.165.165,0,0,1-.165.164" transform="translate(-543.511 -92.089)" fill="#fff"></path><path id="Path_968" data-name="Path 968" d="M42.592,3.75c-6.07,2.306-7.631,2.138-9.768,3.627a10.107,10.107,0,0,0-3.089,3.464c-.4.678-.78,1.243-1.075,1.663Q27.293,13.653,26,14.88a4.05,4.05,0,0,1,.481-2.812c.872-1.14,1.623-1.187,2.711-2.953C30.469,7.04,28.8,4.4,30.871,0c-6.825,3.5-7.34,9.372-6.85,10.859.549,1.666,1.486,1.668,1.359,2.516s-.211,1.778-.255,2.347a53.583,53.583,0,0,0-5.619,6.509,4.12,4.12,0,0,1-.011-2.922c.69-1.327,1.452-1.513,2.276-3.511.968-2.347-1.185-4.769.331-9.67-6.6,4.783-6.1,10.989-5.34,12.4.859,1.606,1.82,1.428,1.846,2.32.024.854.11,1.782.175,2.4q-1.081,1.561-2.043,3.208a46.87,46.87,0,0,0-2.2,4.273,4.191,4.191,0,0,1-.6-2.951,14.784,14.784,0,0,1,1.09-2.305,8.383,8.383,0,0,0,.556-1.765c.556-2.6-2.107-4.677-1.317-10.014a14.612,14.612,0,0,0-4.359,8.835,7.465,7.465,0,0,0,1.066,5.033c1.211,1.47,2.161,1.079,2.375,1.988.2.84.47,1.73.675,2.361A46.913,46.913,0,0,0,11.438,40.1a4.29,4.29,0,0,1-1.221-2.833c.117-1.628.79-2.139.8-4.5.014-2.776-3.193-4.323-3.354-10.051-5.18,7.75-1.771,13.957-.5,14.973,1.545,1.232,2.423.628,2.836,1.5.37.784.821,1.6,1.172,2.206a45.054,45.054,0,0,0-.776,8.521,4.378,4.378,0,0,1-1.832-2.574C8.327,45.669,8.9,45,8.4,42.6c-.577-2.824-4.154-3.722-5.5-9.534C-.768,42.1,4.08,47.714,5.577,48.456c1.833.91,2.585.1,3.2.893.532.692,1.148,1.389,1.649,1.934q.056,1.541.222,3.079a42.731,42.731,0,0,0,.941,5.388,4.473,4.473,0,0,1-2.421-2.157A19.465,19.465,0,0,1,8.545,54.6a10.369,10.369,0,0,0-.63-1.789C6.7,50.07,2.883,49.939.309,44.266A16.347,16.347,0,0,0,1.951,55.357c1.513,2.614,3.424,3.823,4.461,4.069,2.067.491,2.631-.513,3.44.147.681.556,1.442,1.1,2.086,1.535a42.905,42.905,0,0,0,3.071,7.951,4.577,4.577,0,0,1-2.909-1.59c-1.029-1.508-.8-2.413-2.387-4.53-.945-1.26-2.273-1.726-3.983-2.512A13.437,13.437,0,0,1,.075,55.966,16.66,16.66,0,0,0,4.424,67.024c2.111,2.194,4.279,2.933,5.341,2.938,2.2.009,2.523-1.135,3.494-.661.8.388,1.667.742,2.422,1.028a41.146,41.146,0,0,0,4.83,6.987,4.659,4.659,0,0,1-3.273-.89c-1.4-1.273-1.386-2.237-3.48-4C12.51,71.369,11.069,71.2,9.163,70.8a13.907,13.907,0,0,1-6.726-3.226,17.287,17.287,0,0,0,6.978,10.2c2.66,1.739,5.024,1.972,6.093,1.722,2.209-.516,2.253-1.752,3.345-1.512.872.192,1.807.332,2.641.432q.212.229.428.455a39.613,39.613,0,0,0,5.967,5.095,4.754,4.754,0,0,1-3.46-.06c-1.72-.909-1.955-1.861-4.484-3.125l-.032-.016c-1.517-.762-3-.588-5.019-.558a14.236,14.236,0,0,1-7.544-1.751,18.933,18.933,0,0,0,7.1,7.633c4.279,2.435,7.831,1.971,9.05,1.334,2.072-1.081,1.8-2.325,2.945-2.367.9-.033,1.842-.131,2.7-.245a44.506,44.506,0,0,0,18.985,6.7l.211-1.942a42.821,42.821,0,0,1-18.307-6.246c-.251-.863-.434-1.616-.635-2.442-.251-1.035.781-1.31,1.5-3.418a10.148,10.148,0,0,0-.34-6.941,38.242,38.242,0,0,0-2.669-5.213c.208,3.621-.132,4.614-1.1,5.746-.78.91-2.042,1.8-1.609,4.552a.776.776,0,0,0,.016.1c.361,2.122,1.807,2.552,2.777,3.735a5.639,5.639,0,0,1,.863,3.1,37.5,37.5,0,0,1-5.74-4.8q-.221-.226-.439-.456c-.028-.885-.02-1.637-.012-2.5.015-1.035,1.055-1.041,2.239-2.852,1.814-2.776,1.777-6.176-.173-12.4-.547,3.551-1.109,4.438-2.27,5.289-.947.694-2.321,1.241-2.541,3.963-.176,2.184,1.1,2.915,1.75,4.3a5.51,5.51,0,0,1,.054,3.164,39.444,39.444,0,0,1-4.719-6.68c.184-.856.364-1.549.585-2.405.252-.976,1.236-.734,2.763-2.179,2.341-2.215,3.039-5.566,2.493-11.891-1.262,3.264-1.974,3.986-3.258,4.543-1.048.455-2.456.672-3.254,3.21-.641,2.037.407,3.009.705,4.475a5.363,5.363,0,0,1-.687,3.036A41.559,41.559,0,0,1,13.28,60.7c.372-.782.689-1.384,1.108-2.185.453-.866,1.33-.417,3.087-1.445A8.066,8.066,0,0,0,20.8,53.2a25.8,25.8,0,0,0,1.585-6.933c-1.87,2.9-2.735,3.43-4.042,3.677a4.208,4.208,0,0,0-3.755,2.331,3.708,3.708,0,0,0-.546,1.7c-.055.924.262,1.662.234,2.677A5.22,5.22,0,0,1,12.931,59.4a41.277,41.277,0,0,1-.964-5.187q-.181-1.5-.251-3c.534-.666.95-1.148,1.555-1.849s1.339-.095,3.217-.68c2.878-.9,4.88-3.431,6.952-9.393-2.358,2.448-3.31,2.78-4.589,2.751a4.1,4.1,0,0,0-4.04,1.453c-1.367,1.481-.881,2.714-1.239,4.085a5.083,5.083,0,0,1-1.9,2.319,43.769,43.769,0,0,1,.668-8.3c.473-.378,1.326-1.021,1.9-1.451.733-.548,1.284.192,3.181.024,2.908-.258,5.363-2.328,8.475-7.626-2.706,1.893-3.676,2.024-4.882,1.748a3.965,3.965,0,0,0-4.114.591c-1.592,1.139-1.379,2.4-2,3.634a4.931,4.931,0,0,1-2.317,1.815,45.918,45.918,0,0,1,2.437-8.018c.5-.248,1.493-.714,2.137-1.012.8-.371,1.174.442,3,.661a6.969,6.969,0,0,0,4.416-1,22.7,22.7,0,0,0,5.118-4.7c-2.952,1.373-3.917,1.3-4.985.818a3.816,3.816,0,0,0-3.993-.219,3.429,3.429,0,0,0-1.4,1.079c-.469.616-.657,1.282-1.2,1.959a4.826,4.826,0,0,1-2.6,1.267,45.778,45.778,0,0,1,2.1-4.2q.922-1.627,1.967-3.174c.488-.127,1.581-.385,2.261-.545.828-.195,1.012.645,2.688,1.2,2.718.894,5.511-.024,10.269-3.862-3.109.892-4.053.633-4.973,0a3.716,3.716,0,0,0-3.773-.892c-1.786.429-2.041,1.57-3.043,2.4a4.652,4.652,0,0,1-2.734.694,52.391,52.391,0,0,1,5.453-6.453c.446-.031,1.608-.092,2.3-.128.823-.043.846.79,2.35,1.6,2.416,1.293,5.355.9,10.57-2.22-3.144.469-4.033.062-4.81-.665A3.606,3.606,0,0,0,32.657,13.5c-1.786.137-2.2,1.176-3.312,1.81a4.521,4.521,0,0,1-2.769.185q1-.969,2.051-1.89a11.316,11.316,0,0,1,2.087-.9,17.772,17.772,0,0,0,5.1-2.459c1.513-1.238.958-2.509,6.771-6.493Z" transform="translate(0.001)" fill="#fff"></path><path id="Path_969" data-name="Path 969" d="M1063.037,3.75c6.07,2.306,7.63,2.138,9.768,3.627a10.1,10.1,0,0,1,3.089,3.464c.4.678.78,1.243,1.076,1.663q1.366,1.148,2.661,2.375a4.05,4.05,0,0,0-.481-2.812c-.871-1.14-1.623-1.187-2.711-2.953-1.279-2.075.395-4.712-1.682-9.115,6.825,3.5,7.34,9.372,6.85,10.859-.549,1.666-1.486,1.668-1.359,2.516s.211,1.778.255,2.347a53.527,53.527,0,0,1,5.619,6.509,4.118,4.118,0,0,0,.011-2.922c-.69-1.327-1.452-1.513-2.276-3.511-.969-2.347,1.185-4.769-.331-9.67,6.6,4.783,6.1,10.989,5.34,12.4-.858,1.606-1.82,1.428-1.845,2.32-.024.854-.11,1.782-.175,2.4q1.081,1.561,2.043,3.208a46.817,46.817,0,0,1,2.2,4.273,4.2,4.2,0,0,0,.6-2.951,14.783,14.783,0,0,0-1.09-2.305,8.351,8.351,0,0,1-.556-1.765c-.556-2.6,2.107-4.677,1.317-10.014a14.612,14.612,0,0,1,4.36,8.835,7.461,7.461,0,0,1-1.066,5.033c-1.211,1.47-2.161,1.079-2.375,1.988-.2.84-.47,1.73-.675,2.361a46.953,46.953,0,0,1,2.585,8.193,4.291,4.291,0,0,0,1.221-2.833c-.117-1.628-.79-2.139-.8-4.5-.014-2.776,3.192-4.323,3.354-10.051,5.18,7.75,1.771,13.957.5,14.973-1.545,1.232-2.423.628-2.836,1.5-.37.784-.821,1.6-1.172,2.206a45.065,45.065,0,0,1,.776,8.521,4.379,4.379,0,0,0,1.832-2.574c.239-1.678-.33-2.342.162-4.745.578-2.824,4.154-3.722,5.5-9.534,3.672,9.029-1.176,14.646-2.673,15.389-1.834.91-2.585.1-3.2.893-.533.692-1.148,1.389-1.65,1.934q-.055,1.541-.222,3.079a42.673,42.673,0,0,1-.94,5.388,4.475,4.475,0,0,0,2.421-2.157,19.436,19.436,0,0,0,.622-2.991,10.392,10.392,0,0,1,.63-1.789c1.213-2.743,5.032-2.874,7.6-8.546a16.351,16.351,0,0,1-1.641,11.091c-1.514,2.614-3.425,3.823-4.462,4.069-2.067.491-2.63-.513-3.439.147-.682.556-1.443,1.1-2.086,1.535a42.911,42.911,0,0,1-3.071,7.951,4.578,4.578,0,0,0,2.909-1.59c1.029-1.508.8-2.413,2.387-4.53.945-1.26,2.273-1.726,3.983-2.512a13.436,13.436,0,0,0,5.655-4.461,16.658,16.658,0,0,1-4.349,11.058c-2.111,2.194-4.279,2.933-5.341,2.938-2.2.009-2.523-1.135-3.494-.661-.8.388-1.667.742-2.422,1.028a41.142,41.142,0,0,1-4.83,6.987,4.658,4.658,0,0,0,3.273-.89c1.4-1.273,1.386-2.237,3.48-4,1.247-1.052,2.689-1.217,4.595-1.622a13.907,13.907,0,0,0,6.726-3.226,17.286,17.286,0,0,1-6.979,10.2c-2.66,1.739-5.024,1.972-6.093,1.722-2.209-.516-2.254-1.752-3.345-1.512-.872.192-1.807.332-2.641.432q-.212.229-.428.455a39.615,39.615,0,0,1-5.967,5.095,4.754,4.754,0,0,0,3.461-.06c1.72-.909,1.955-1.861,4.484-3.125l.032-.016c1.517-.762,3-.588,5.019-.558a14.234,14.234,0,0,0,7.543-1.751,18.931,18.931,0,0,1-7.1,7.633c-4.279,2.435-7.83,1.971-9.05,1.334-2.072-1.081-1.8-2.325-2.945-2.367-.9-.033-1.843-.131-2.7-.245a44.505,44.505,0,0,1-18.985,6.7l-.211-1.942a42.82,42.82,0,0,0,18.307-6.246c.252-.863.434-1.616.635-2.442.252-1.035-.78-1.31-1.5-3.418a10.148,10.148,0,0,1,.339-6.941,38.3,38.3,0,0,1,2.669-5.213c-.209,3.621.132,4.614,1.1,5.746.78.91,2.042,1.8,1.609,4.552a.711.711,0,0,1-.016.1c-.361,2.122-1.807,2.552-2.777,3.735a5.639,5.639,0,0,0-.862,3.1,37.535,37.535,0,0,0,5.74-4.8q.221-.226.439-.456c.028-.885.02-1.637.012-2.5-.015-1.035-1.055-1.041-2.239-2.852-1.814-2.776-1.777-6.176.173-12.4.547,3.551,1.11,4.438,2.27,5.289.947.694,2.321,1.241,2.541,3.963.176,2.184-1.1,2.915-1.75,4.3a5.51,5.51,0,0,0-.054,3.164,39.425,39.425,0,0,0,4.72-6.68c-.184-.856-.364-1.549-.585-2.405-.252-.976-1.236-.734-2.763-2.179-2.341-2.215-3.039-5.566-2.493-11.891,1.262,3.264,1.974,3.986,3.258,4.543,1.048.455,2.456.672,3.254,3.21.641,2.037-.407,3.009-.705,4.475a5.356,5.356,0,0,0,.687,3.036,41.565,41.565,0,0,0,3.05-7.654c-.372-.782-.689-1.384-1.108-2.185-.453-.866-1.33-.417-3.087-1.445a8.068,8.068,0,0,1-3.321-3.871,25.812,25.812,0,0,1-1.584-6.933c1.87,2.9,2.734,3.43,4.043,3.677a4.208,4.208,0,0,1,3.755,2.331,3.709,3.709,0,0,1,.546,1.7c.054.924-.262,1.662-.234,2.677A5.217,5.217,0,0,0,1092.7,59.4a41.419,41.419,0,0,0,.964-5.187q.18-1.5.251-3c-.535-.666-.95-1.148-1.555-1.849s-1.339-.095-3.217-.68c-2.878-.9-4.88-3.431-6.952-9.393,2.357,2.448,3.31,2.78,4.589,2.751a4.1,4.1,0,0,1,4.04,1.453c1.367,1.481.881,2.714,1.239,4.085a5.08,5.08,0,0,0,1.9,2.319,43.759,43.759,0,0,0-.668-8.3c-.473-.378-1.326-1.021-1.9-1.451-.733-.548-1.284.192-3.181.024-2.908-.258-5.363-2.328-8.475-7.626,2.706,1.893,3.676,2.024,4.882,1.748a3.965,3.965,0,0,1,4.114.591c1.592,1.139,1.379,2.4,2,3.634a4.93,4.93,0,0,0,2.316,1.815,45.892,45.892,0,0,0-2.437-8.018c-.5-.248-1.493-.714-2.137-1.012-.8-.371-1.173.442-3,.661a6.97,6.97,0,0,1-4.417-1,22.7,22.7,0,0,1-5.118-4.7c2.952,1.373,3.917,1.3,4.986.818a3.815,3.815,0,0,1,3.992-.219,3.431,3.431,0,0,1,1.405,1.079c.469.616.657,1.282,1.2,1.959a4.828,4.828,0,0,0,2.6,1.267,45.782,45.782,0,0,0-2.1-4.2q-.922-1.627-1.967-3.174c-.487-.127-1.581-.385-2.26-.545-.828-.195-1.012.645-2.688,1.2-2.718.894-5.511-.024-10.269-3.862,3.109.892,4.053.633,4.973,0a3.716,3.716,0,0,1,3.773-.892c1.786.429,2.041,1.57,3.043,2.4a4.652,4.652,0,0,0,2.734.694,52.427,52.427,0,0,0-5.453-6.453c-.447-.031-1.608-.092-2.3-.128-.823-.043-.846.79-2.351,1.6-2.416,1.293-5.355.9-10.57-2.22,3.144.469,4.033.062,4.81-.665a3.606,3.606,0,0,1,3.482-1.417c1.786.137,2.2,1.176,3.312,1.81a4.522,4.522,0,0,0,2.77.185q-1-.969-2.051-1.89a11.314,11.314,0,0,0-2.087-.9,17.765,17.765,0,0,1-5.1-2.459c-1.513-1.238-.958-2.509-6.772-6.493Z" transform="translate(-815.382)" fill="#fff"></path></g></g></svg>