<?xml version="1.0" encoding="UTF-8"?> <svg xmlns="http://www.w3.org/2000/svg" version="1.2" viewBox="0 0 152 55" width="152" height="55"><style></style><path fill-rule="evenodd" d="m19.7 2.5c-9.8 11.6-19.3 26-19.4 36.7 0 4.1 1.2 7.6 4.3 10.3 4.5 3.8 9.4 5.2 14.3 5.2 7.2 0 14.3-2.9 19.8-5.1 9.4-3.7 112.8-48.7 112.8-48.7 1-0.5 0.8-1.1-0.4-0.8-0.5 0.2-112.6 30.5-112.6 30.5q-0.8 0.3-1.6 0.4-0.9 0.2-1.7 0.3-0.8 0.1-1.6 0.2-0.8 0.1-1.7 0.1c-8.6 0-16.2-4.8-16.2-14.8 0-4 1.2-8.7 4-14.3z"></path></svg> 