<svg xmlns="http://www.w3.org/2000/svg" xmlns:xlink="http://www.w3.org/1999/xlink" width="186" zoomAndPan="magnify" viewBox="0 0 139.5 46.499999" height="62" preserveAspectRatio="xMidYMid meet" version="1.0"><defs><g/><clipPath id="3913692cb0"><path d="M 0.632812 20 L 9 20 L 9 30.746094 L 0.632812 30.746094 Z M 0.632812 20 " clip-rule="nonzero"/></clipPath><clipPath id="544186facc"><path d="M 0.632812 10.714844 L 9 10.714844 L 9 24 L 0.632812 24 Z M 0.632812 10.714844 " clip-rule="nonzero"/></clipPath></defs><g clip-path="url(#3913692cb0)"><path fill="#030d40" d="M 7.816406 30.65625 L 0.644531 23.480469 L 3.355469 20.769531 L 7.816406 25.230469 C 9.3125 26.726562 9.3125 29.160156 7.816406 30.65625 Z M 7.816406 30.65625 " fill-opacity="1" fill-rule="nonzero"/></g><g clip-path="url(#544186facc)"><path fill="#5c628a" d="M 7.816406 16.308594 L 0.644531 23.480469 L 0.644531 18.058594 L 7.816406 10.886719 C 9.316406 12.382812 9.316406 14.8125 7.816406 16.308594 Z M 7.816406 16.308594 " fill-opacity="1" fill-rule="nonzero"/></g><g fill="#444a70" fill-opacity="1"><g transform="translate(16.561432, 29.345346)"><g><path d="M 12.226562 0 L 12.226562 -3.25 L 5.722656 -3.25 L 12.199219 -19.453125 L 0.890625 -19.453125 L 0.890625 -16.199219 L 7.417969 -16.199219 L 0.917969 0 Z M 12.226562 0 "/></g></g></g><g fill="#444a70" fill-opacity="1"><g transform="translate(27.811125, 29.345346)"><g><path d="M 5.445312 -16.199219 L 15.171875 -16.199219 L 15.171875 -19.453125 L 2.195312 -19.453125 L 2.195312 0 L 15.171875 0 L 15.171875 -3.25 L 5.445312 -3.25 L 5.445312 -8.113281 L 13.53125 -8.113281 L 13.53125 -11.335938 L 5.445312 -11.335938 Z M 5.445312 -16.199219 "/></g></g></g><g fill="#444a70" fill-opacity="1"><g transform="translate(42.199881, 29.345346)"><g><path d="M 12.394531 0 L 16.199219 0 L 10.921875 -8.449219 C 12.8125 -8.976562 15.199219 -10.335938 15.199219 -13.78125 C 15.199219 -19.453125 8.699219 -19.453125 8.699219 -19.453125 L 2.222656 -19.453125 L 2.222656 -16.199219 L 5.308594 -11.335938 L 2.222656 -11.335938 L 2.222656 0 L 5.472656 0 L 5.472656 -8.113281 L 7.335938 -8.113281 Z M 9.113281 -11.367188 L 6.085938 -16.199219 L 8.699219 -16.199219 C 8.699219 -16.199219 11.949219 -16.199219 11.949219 -13.78125 C 11.949219 -11.867188 9.976562 -11.449219 9.113281 -11.367188 Z M 9.113281 -11.367188 "/></g></g></g><g fill="#444a70" fill-opacity="1"><g transform="translate(57.255343, 29.345346)"><g><path d="M 11.171875 -2.25 L 12.03125 0 L 15.535156 0 L 7.753906 -20.007812 L 0 0 L 3.5 0 L 4.335938 -2.25 Z M 5.390625 -5.058594 L 7.753906 -11.808594 L 10.113281 -5.058594 Z M 5.390625 -5.058594 "/></g></g></g><g fill="#444a70" fill-opacity="1"><g transform="translate(70.838503, 29.345346)"><g><path d="M 16.839844 -19.453125 L 13.589844 -19.453125 L 13.589844 -11.394531 L 5.503906 -11.394531 L 5.503906 -19.453125 L 2.25 -19.453125 L 2.25 0 L 5.503906 0 L 5.503906 -8.113281 L 13.589844 -8.113281 L 13.589844 0 L 16.839844 0 Z M 16.839844 -19.453125 "/></g></g></g><g fill="#444a70" fill-opacity="1"><g transform="translate(87.949634, 29.345346)"><g><path d="M 5.445312 -16.199219 L 15.171875 -16.199219 L 15.171875 -19.453125 L 2.195312 -19.453125 L 2.195312 0 L 5.445312 0 L 5.445312 -8.113281 L 13.53125 -8.113281 L 13.53125 -11.335938 L 5.445312 -11.335938 Z M 5.445312 -16.199219 "/></g></g></g><g fill="#444a70" fill-opacity="1"><g transform="translate(102.116153, 29.345346)"><g><path d="M 7.417969 -9.726562 L 0.472656 0 L 4.445312 0 L 9.421875 -6.945312 L 14.367188 0 L 18.339844 0 L 11.394531 -9.726562 L 18.339844 -19.453125 L 14.367188 -19.453125 L 9.421875 -12.503906 L 4.445312 -19.453125 L 0.472656 -19.453125 Z M 7.417969 -9.726562 "/></g></g></g></svg>