<?xml version="1.0" encoding="utf-8"?>
<!-- Generator: Adobe Illustrator 26.5.0, SVG Export Plug-In . SVG Version: 6.00 Build 0)  -->
<svg version="1.1" id="Calque_1" xmlns="http://www.w3.org/2000/svg" xmlns:xlink="http://www.w3.org/1999/xlink" x="0px" y="0px"
	 width="24px" height="24px" viewBox="0 0 24 24" enable-background="new 0 0 24 24" xml:space="preserve">
<path fill="#051A2E" d="M8.99,24c-3.24-0.02-5.92-6.49-5.92-9.78c0-5.38,4.13-6.56,5.72-6.56c0.74,0.05,1.47,0.23,2.16,0.52
	c0.39,0.17,0.81,0.28,1.23,0.35c0.3-0.06,0.6-0.15,0.88-0.28c0.84-0.38,1.74-0.59,2.66-0.63h0.01c1.8-0.04,3.51,0.8,4.57,2.26
	l0.33,0.49l-0.48,0.35c-1.16,0.68-1.89,1.91-1.93,3.25c-0.03,1.45,0.79,2.78,2.1,3.4c0.3,0.18,0.61,0.36,0.61,0.76
	c0,0.26-2.12,5.84-5.2,5.84c-0.61-0.01-1.21-0.15-1.76-0.42c-0.49-0.24-1.02-0.36-1.56-0.37c-0.43,0.04-0.85,0.15-1.24,0.33
	C10.48,23.8,9.75,23.96,9.01,24L8.99,24z M15.82,0c0.07,3.05-1.86,5.17-3.79,5.03C11.71,2.6,13.96,0,15.82,0z"/>
</svg>
