<?xml version="1.0" encoding="utf-8"?>
<!-- Generator: Adobe Illustrator 26.5.0, SVG Export Plug-In . SVG Version: 6.00 Build 0)  -->
<svg version="1.1" id="Calque_1" xmlns="http://www.w3.org/2000/svg" xmlns:xlink="http://www.w3.org/1999/xlink" x="0px" y="0px"
	 width="24px" height="24px" viewBox="0 0 24 24" enable-background="new 0 0 24 24" xml:space="preserve">
<path id="Tracé_15" fill="#F44336" d="M2.89,4.18C7.22-0.85,14.8-1.42,19.83,2.9c1.18,1.02,2.16,2.26,2.87,3.65
	c-2.72,0-6.99,0-9.3,0c-1.68,0-2.76-0.04-3.93,0.58c-1.41,0.76-2.42,2.09-2.78,3.65L2.89,4.18z"/>
<path id="Tracé_16" fill="#2196F3" d="M8.01,12c0,2.2,1.79,3.99,3.99,3.99c2.2,0,3.99-1.79,3.99-3.99c0-2.2-1.79-3.99-3.99-3.99
	C9.8,8.01,8.01,9.79,8.01,12z"/>
<path id="Tracé_17" fill="#4CAF50" d="M13.55,17.22c-2.44,0.75-5.07-0.32-6.3-2.55c-1.1-1.89-3.99-6.93-5.31-9.23
	c-3.62,5.57-2.03,13.01,3.54,16.63c1.28,0.83,2.7,1.41,4.2,1.71L13.55,17.22z"/>
<path id="Tracé_18" fill="#FFC107" d="M15.7,8c1.86,1.73,2.28,4.52,1.01,6.72c-0.95,1.64-3.99,6.77-5.46,9.25
	c6.62,0.41,12.32-4.63,12.73-11.26c0.1-1.6-0.13-3.2-0.66-4.72L15.7,8z"/>
</svg>
