<?xml version="1.0" encoding="utf-8"?>
<!-- Generator: Adobe Illustrator 26.5.0, SVG Export Plug-In . SVG Version: 6.00 Build 0)  -->
<svg version="1.1" id="Calque_1" xmlns="http://www.w3.org/2000/svg" xmlns:xlink="http://www.w3.org/1999/xlink" x="0px" y="0px"
	 width="24px" height="24px" viewBox="0 0 24 24" enable-background="new 0 0 24 24" xml:space="preserve">
<linearGradient id="SVGID_1_" gradientUnits="userSpaceOnUse" x1="10.103" y1="-222.4052" x2="26.8158" y2="-222.4052" gradientTransform="matrix(1 0 0 1 -4.6 239)">
	<stop  offset="0" style="stop-color:#0C59A4"/>
	<stop  offset="1" style="stop-color:#114A8B"/>
</linearGradient>
<path fill="url(#SVGID_1_)" d="M21.66,17.87c-0.32,0.17-0.65,0.31-0.99,0.44c-1.08,0.4-2.22,0.6-3.37,0.6c-4.43,0-8.3-3.05-8.3-6.97
	c0.01-1.07,0.6-2.05,1.54-2.56c-4.01,0.17-5.04,4.35-5.04,6.8c0,6.94,6.38,7.63,7.76,7.63c0.74,0,1.86-0.22,2.53-0.43l0.12-0.04
	c2.58-0.89,4.79-2.64,6.24-4.95c0.11-0.18,0.05-0.41-0.13-0.52C21.92,17.81,21.78,17.8,21.66,17.87L21.66,17.87z"/>
<radialGradient id="SVGID_00000011031449138132902480000008649532161398892428_" cx="19.337" cy="-217.1376" r="8.9435" gradientTransform="matrix(1 0 0 0.9504 -4.6 223.0837)" gradientUnits="userSpaceOnUse">
	<stop  offset="0.7" style="stop-color:#000000;stop-opacity:0"/>
	<stop  offset="0.9" style="stop-color:#000000;stop-opacity:0.5"/>
	<stop  offset="1" style="stop-color:#000000"/>
</radialGradient>
<path opacity="0.35" fill="url(#SVGID_00000011031449138132902480000008649532161398892428_)" enable-background="new    " d="
	M21.66,17.87c-0.32,0.17-0.65,0.31-0.99,0.44c-1.08,0.4-2.22,0.6-3.37,0.6c-4.43,0-8.3-3.05-8.3-6.97c0.01-1.07,0.6-2.05,1.54-2.56
	c-4.01,0.17-5.04,4.35-5.04,6.8c0,6.94,6.38,7.63,7.76,7.63c0.74,0,1.86-0.22,2.53-0.43l0.12-0.04c2.58-0.89,4.79-2.64,6.24-4.95
	c0.11-0.18,0.05-0.41-0.13-0.52C21.92,17.81,21.78,17.8,21.66,17.87L21.66,17.87z"/>
<linearGradient id="SVGID_00000032643481489753330120000017437225070877041840_" gradientUnits="userSpaceOnUse" x1="18.9211" y1="-229.6544" x2="8.4846" y2="-218.2803" gradientTransform="matrix(1 0 0 1 -4.6 239)">
	<stop  offset="0" style="stop-color:#1B9DE2"/>
	<stop  offset="0.2" style="stop-color:#1595DF"/>
	<stop  offset="0.7" style="stop-color:#0680D7"/>
	<stop  offset="1" style="stop-color:#0078D4"/>
</linearGradient>
<path fill="url(#SVGID_00000032643481489753330120000017437225070877041840_)" d="M9.91,22.63c-0.83-0.52-1.56-1.2-2.13-2
	c-2.46-3.38-1.73-8.11,1.65-10.58c0.35-0.26,0.73-0.48,1.12-0.68c0.3-0.14,0.8-0.38,1.46-0.38c0.95,0.01,1.84,0.46,2.41,1.22
	c0.38,0.51,0.58,1.12,0.59,1.75c0-0.02,2.3-7.47-7.5-7.47c-4.12,0-7.5,3.9-7.5,7.33c-0.02,1.81,0.37,3.61,1.13,5.25
	c2.59,5.51,8.89,8.21,14.66,6.28C13.83,24,11.68,23.73,9.91,22.63L9.91,22.63z"/>
<radialGradient id="SVGID_00000017498948344978655730000004347491372118008494_" cx="-164.6248" cy="-158.2399" r="13.4246" gradientTransform="matrix(0.15 -0.9904 0.8 0.12 157.9 -125.387)" gradientUnits="userSpaceOnUse">
	<stop  offset="0.8" style="stop-color:#000000;stop-opacity:0"/>
	<stop  offset="0.9" style="stop-color:#000000;stop-opacity:0.5"/>
	<stop  offset="1" style="stop-color:#000000"/>
</radialGradient>
<path opacity="0.41" fill="url(#SVGID_00000017498948344978655730000004347491372118008494_)" enable-background="new    " d="
	M9.91,22.63c-0.83-0.52-1.56-1.2-2.13-2c-2.46-3.38-1.73-8.11,1.65-10.58c0.35-0.26,0.73-0.48,1.12-0.68
	c0.3-0.14,0.8-0.38,1.46-0.38c0.95,0.01,1.84,0.46,2.41,1.22c0.38,0.51,0.58,1.12,0.59,1.75c0-0.02,2.3-7.47-7.5-7.47
	c-4.12,0-7.5,3.9-7.5,7.33c-0.02,1.81,0.37,3.61,1.13,5.25c2.59,5.51,8.89,8.21,14.66,6.28C13.83,24,11.68,23.73,9.91,22.63
	L9.91,22.63z"/>
<radialGradient id="SVGID_00000160908058508614034110000014970407667282656949_" cx="75.692" cy="-531.5468" r="18.9744" gradientTransform="matrix(-0.04 1.0004 -2.13 -0.08 -1126.74 -113.8227)" gradientUnits="userSpaceOnUse">
	<stop  offset="0" style="stop-color:#35C1F1"/>
	<stop  offset="0.1" style="stop-color:#34C1ED"/>
	<stop  offset="0.2" style="stop-color:#2FC2DF"/>
	<stop  offset="0.3" style="stop-color:#2BC3D2"/>
	<stop  offset="0.7" style="stop-color:#36C752"/>
</radialGradient>
<path fill="url(#SVGID_00000160908058508614034110000014970407667282656949_)" d="M14.29,13.95c-0.08,0.09-0.32,0.23-0.32,0.53
	c0,0.24,0.16,0.49,0.45,0.68c1.34,0.94,3.88,0.81,3.89,0.81c1,0,1.98-0.27,2.84-0.78c1.76-1.03,2.85-2.92,2.85-4.96
	c0.03-2.1-0.75-3.5-1.06-4.12C20.94,2.23,16.66,0,12,0C5.44,0,0.09,5.27,0,11.84c0.05-3.42,3.45-6.19,7.5-6.19
	c0.33,0,2.2,0.03,3.94,0.94c1.22,0.61,2.23,1.56,2.9,2.75c0.57,0.99,0.67,2.26,0.67,2.77C15.01,12.6,14.76,13.35,14.29,13.95
	L14.29,13.95z"/>
<radialGradient id="SVGID_00000163035863339808725800000004978421117940579748_" cx="250.1595" cy="-304.8978" r="9.1216" gradientTransform="matrix(0.28 0.9604 -0.78 0.2301 -285.36 -162.8411)" gradientUnits="userSpaceOnUse">
	<stop  offset="0" style="stop-color:#66EB6E"/>
	<stop  offset="1" style="stop-color:#66EB6E;stop-opacity:0"/>
</radialGradient>
<path fill="url(#SVGID_00000163035863339808725800000004978421117940579748_)" d="M14.29,13.95c-0.08,0.09-0.32,0.23-0.32,0.53
	c0,0.24,0.16,0.49,0.45,0.68c1.34,0.94,3.88,0.81,3.89,0.81c1,0,1.98-0.27,2.84-0.78c1.76-1.03,2.85-2.92,2.85-4.96
	c0.03-2.1-0.75-3.5-1.06-4.12C20.94,2.23,16.66,0,12,0C5.44,0,0.09,5.27,0,11.84c0.05-3.42,3.45-6.19,7.5-6.19
	c0.33,0,2.2,0.03,3.94,0.94c1.22,0.61,2.23,1.56,2.9,2.75c0.57,0.99,0.67,2.26,0.67,2.77C15.01,12.6,14.76,13.35,14.29,13.95
	L14.29,13.95z"/>
</svg>
