<?xml version="1.0" encoding="utf-8"?>
<!-- Generator: Adobe Illustrator 26.5.0, SVG Export Plug-In . SVG Version: 6.00 Build 0)  -->
<svg version="1.1" id="Calque_1" xmlns="http://www.w3.org/2000/svg" xmlns:xlink="http://www.w3.org/1999/xlink" x="0px" y="0px"
	 width="24px" height="24px" viewBox="0 0 24 24" enable-background="new 0 0 24 24" xml:space="preserve">
<linearGradient id="SVGID_1_" gradientUnits="userSpaceOnUse" x1="21.2349" y1="22.2825" x2="1.9331" y2="3.66" gradientTransform="matrix(1 0 0 -1 0 26)">
	<stop  offset="0.05" style="stop-color:#FFF44F"/>
	<stop  offset="0.11" style="stop-color:#FFE847"/>
	<stop  offset="0.22" style="stop-color:#FFC830"/>
	<stop  offset="0.37" style="stop-color:#FF980E"/>
	<stop  offset="0.4" style="stop-color:#FF8B16"/>
	<stop  offset="0.46" style="stop-color:#FF672A"/>
	<stop  offset="0.53" style="stop-color:#FF3647"/>
	<stop  offset="0.7" style="stop-color:#E31587"/>
</linearGradient>
<path fill="url(#SVGID_1_)" d="M22.77,8.05c-0.51-1.22-1.53-2.53-2.33-2.94c0.65,1.28,1.03,2.57,1.18,3.53c0,0,0,0.01,0,0.02
	c-1.31-3.28-3.54-4.6-5.36-7.48c-0.09-0.15-0.18-0.29-0.27-0.45c-0.05-0.09-0.09-0.17-0.13-0.24c-0.08-0.15-0.13-0.3-0.17-0.46
	c0-0.02-0.01-0.03-0.03-0.03c-0.01,0-0.01,0-0.02,0c0,0,0,0-0.01,0c0,0-0.01,0-0.01,0l0-0.01c-2.92,1.71-3.91,4.88-4,6.46
	c-1.17,0.08-2.28,0.51-3.2,1.23c-0.1-0.08-0.2-0.16-0.3-0.23C7.85,6.54,7.84,5.56,8.09,4.63c-1.19,0.54-2.12,1.4-2.8,2.16H5.28
	C4.82,6.2,4.85,4.28,4.88,3.88C4.87,3.85,4.54,4.05,4.49,4.08C4.09,4.37,3.71,4.7,3.36,5.06c-0.4,0.4-0.76,0.84-1.09,1.3
	C1.52,7.42,0.99,8.62,0.71,9.88C0.7,9.91,0.7,9.93,0.69,9.96c-0.02,0.1-0.1,0.61-0.11,0.73v0.03c-0.1,0.53-0.17,1.07-0.19,1.6v0.06
	C0.39,18.79,5.59,24,12.02,24c5.75,0,10.53-4.18,11.46-9.66c0.02-0.15,0.04-0.3,0.05-0.45C23.76,11.9,23.5,9.8,22.77,8.05
	L22.77,8.05z M9.37,17.15c0.05,0.03,0.11,0.05,0.16,0.08l0.01,0C9.49,17.21,9.43,17.18,9.37,17.15L9.37,17.15z M21.62,8.66V8.65
	V8.66L21.62,8.66z"/>
<radialGradient id="SVGID_00000017504032318647395060000010706542614312606107_" cx="20.3433" cy="23.3362" r="24.239" gradientTransform="matrix(1 0 0 -1 0 26)" gradientUnits="userSpaceOnUse">
	<stop  offset="0.13" style="stop-color:#FFBD4F"/>
	<stop  offset="0.19" style="stop-color:#FFAC31"/>
	<stop  offset="0.25" style="stop-color:#FF9D17"/>
	<stop  offset="0.28" style="stop-color:#FF980E"/>
	<stop  offset="0.4" style="stop-color:#FF563B"/>
	<stop  offset="0.47" style="stop-color:#FF3750"/>
	<stop  offset="0.71" style="stop-color:#F5156C"/>
	<stop  offset="0.78" style="stop-color:#EB0878"/>
	<stop  offset="0.86" style="stop-color:#E50080"/>
</radialGradient>
<path fill="url(#SVGID_00000017504032318647395060000010706542614312606107_)" d="M22.77,8.05c-0.51-1.22-1.53-2.53-2.33-2.94
	c0.65,1.28,1.03,2.57,1.18,3.53v0.02c1.1,2.97,0.5,6-0.36,7.85c-1.33,2.86-4.56,5.79-9.61,5.65C6.2,22,1.39,17.95,0.5,12.65
	c-0.16-0.84,0-1.26,0.08-1.94c-0.1,0.52-0.14,0.67-0.19,1.6v0.06C0.39,18.79,5.6,24,12.02,24c5.75,0,10.53-4.18,11.46-9.66
	c0.02-0.15,0.04-0.3,0.05-0.45C23.76,11.9,23.5,9.8,22.77,8.05z"/>
<radialGradient id="SVGID_00000044178240863321529660000003664781373685494408_" cx="11.4863" cy="13.4269" r="24.239" gradientTransform="matrix(1 0 0 -1 0 26)" gradientUnits="userSpaceOnUse">
	<stop  offset="0.3" style="stop-color:#960E18"/>
	<stop  offset="0.35" style="stop-color:#B11927;stop-opacity:0.74"/>
	<stop  offset="0.43" style="stop-color:#DB293D;stop-opacity:0.34"/>
	<stop  offset="0.5" style="stop-color:#F5334B;stop-opacity:0.09"/>
	<stop  offset="0.53" style="stop-color:#FF3750;stop-opacity:0"/>
</radialGradient>
<path fill="url(#SVGID_00000044178240863321529660000003664781373685494408_)" d="M22.77,8.05c-0.51-1.22-1.53-2.53-2.33-2.94
	c0.65,1.28,1.03,2.57,1.18,3.53v0.02c1.1,2.97,0.5,6-0.36,7.85c-1.33,2.86-4.56,5.79-9.61,5.65C6.2,22,1.39,17.95,0.5,12.65
	c-0.16-0.84,0-1.26,0.08-1.94c-0.1,0.52-0.14,0.67-0.19,1.6v0.06C0.39,18.79,5.6,24,12.02,24c5.75,0,10.53-4.18,11.46-9.66
	c0.02-0.15,0.04-0.3,0.05-0.45C23.76,11.9,23.5,9.8,22.77,8.05z"/>
<radialGradient id="SVGID_00000062883024929198272110000003845979356756732076_" cx="14.4089" cy="28.837" r="17.5601" gradientTransform="matrix(1 0 0 -1 0 26)" gradientUnits="userSpaceOnUse">
	<stop  offset="0.13" style="stop-color:#FFF44F"/>
	<stop  offset="0.25" style="stop-color:#FFDC3E"/>
	<stop  offset="0.51" style="stop-color:#FF9D12"/>
	<stop  offset="0.53" style="stop-color:#FF980E"/>
</radialGradient>
<path fill="url(#SVGID_00000062883024929198272110000003845979356756732076_)" d="M17.12,9.42c0.03,0.02,0.05,0.04,0.07,0.05
	c-0.29-0.52-0.66-0.99-1.08-1.41c-3.61-3.61-0.95-7.84-0.5-8.05l0-0.01c-2.92,1.71-3.91,4.88-4,6.46c0.14-0.01,0.27-0.02,0.41-0.02
	C14.21,6.44,16.11,7.64,17.12,9.42L17.12,9.42z"/>
<radialGradient id="SVGID_00000062883637804712134810000017886839872274225317_" cx="8.8055" cy="7.0954" r="11.5411" gradientTransform="matrix(1 0 0 -1 0 26)" gradientUnits="userSpaceOnUse">
	<stop  offset="0.35" style="stop-color:#3A8EE6"/>
	<stop  offset="0.47" style="stop-color:#5C79F0"/>
	<stop  offset="0.67" style="stop-color:#9059FF"/>
	<stop  offset="1" style="stop-color:#C139E6"/>
</radialGradient>
<path fill="url(#SVGID_00000062883637804712134810000017886839872274225317_)" d="M12.04,10.14c-0.02,0.29-1.04,1.29-1.4,1.29
	c-3.31,0-3.84,2-3.84,2c0.15,1.68,1.32,3.07,2.74,3.81c0.06,0.03,0.13,0.06,0.19,0.09c0.11,0.05,0.23,0.1,0.34,0.14
	c0.49,0.17,1,0.27,1.51,0.29c5.79,0.27,6.92-6.93,2.74-9.02c1.07-0.19,2.18,0.24,2.8,0.68c-1.02-1.78-2.91-2.97-5.09-2.97
	c-0.14,0-0.27,0.01-0.41,0.02c-1.17,0.08-2.28,0.51-3.2,1.23C8.6,7.85,8.8,8.05,9.22,8.46C10.01,9.24,12.03,10.04,12.04,10.14
	L12.04,10.14z"/>
<radialGradient id="SVGID_00000069366699534806884060000002208044803046186919_" cx="63.9567" cy="31.6913" r="6.1191" gradientTransform="matrix(0.97 -0.24 -0.28 -1.14 -41.33 61.17)" gradientUnits="userSpaceOnUse">
	<stop  offset="0.21" style="stop-color:#9059FF;stop-opacity:0"/>
	<stop  offset="0.28" style="stop-color:#8C4FF3;stop-opacity:0.06"/>
	<stop  offset="0.75" style="stop-color:#7716A8;stop-opacity:0.45"/>
	<stop  offset="0.97" style="stop-color:#6E008B;stop-opacity:0.6"/>
</radialGradient>
<path fill="url(#SVGID_00000069366699534806884060000002208044803046186919_)" d="M12.04,10.14c-0.02,0.29-1.04,1.29-1.4,1.29
	c-3.31,0-3.84,2-3.84,2c0.15,1.68,1.32,3.07,2.74,3.81c0.06,0.03,0.13,0.06,0.19,0.09c0.11,0.05,0.23,0.1,0.34,0.14
	c0.49,0.17,1,0.27,1.51,0.29c5.79,0.27,6.92-6.93,2.74-9.02c1.07-0.19,2.18,0.24,2.8,0.68c-1.02-1.78-2.91-2.97-5.09-2.97
	c-0.14,0-0.27,0.01-0.41,0.02c-1.17,0.08-2.28,0.51-3.2,1.23C8.6,7.85,8.8,8.05,9.22,8.46C10.01,9.24,12.03,10.04,12.04,10.14
	L12.04,10.14z"/>
<radialGradient id="SVGID_00000004521989504686673590000010436347031938577830_" cx="11.18" cy="24.328" r="8.303" gradientTransform="matrix(1 0 0 -1 0 26)" gradientUnits="userSpaceOnUse">
	<stop  offset="0" style="stop-color:#FFE226"/>
	<stop  offset="0.12" style="stop-color:#FFDB27"/>
	<stop  offset="0.3" style="stop-color:#FFC82A"/>
	<stop  offset="0.5" style="stop-color:#FFA930"/>
	<stop  offset="0.73" style="stop-color:#FF7E37"/>
	<stop  offset="0.79" style="stop-color:#FF7139"/>
</radialGradient>
<path fill="url(#SVGID_00000004521989504686673590000010436347031938577830_)" d="M7.88,7.31c0.09,0.06,0.17,0.11,0.24,0.16
	C7.86,6.54,7.84,5.56,8.09,4.63c-1.19,0.54-2.12,1.4-2.8,2.16C5.34,6.79,7.03,6.76,7.88,7.31L7.88,7.31z"/>
<radialGradient id="SVGID_00000088846766899926647160000006684858982893412024_" cx="17.7065" cy="29.5942" r="35.4245" gradientTransform="matrix(1 0 0 -1 0 26)" gradientUnits="userSpaceOnUse">
	<stop  offset="0.11" style="stop-color:#FFF44F"/>
	<stop  offset="0.46" style="stop-color:#FF980E"/>
	<stop  offset="0.62" style="stop-color:#FF5634"/>
	<stop  offset="0.72" style="stop-color:#FF3647"/>
	<stop  offset="0.9" style="stop-color:#E31587"/>
</radialGradient>
<path fill="url(#SVGID_00000088846766899926647160000006684858982893412024_)" d="M0.5,12.65c0.9,5.3,5.7,9.35,11.16,9.5
	c5.05,0.14,8.27-2.79,9.61-5.65c0.86-1.85,1.46-4.87,0.36-7.85V8.64c0,0,0,0.01,0,0.02c0.41,2.69-0.96,5.3-3.1,7.07
	c0,0,0,0.01-0.01,0.01c-4.17,3.4-8.17,2.05-8.97,1.5c-0.06-0.03-0.11-0.06-0.17-0.08c-2.43-1.16-3.44-3.38-3.22-5.28
	c-2.05,0-2.75-1.73-2.75-1.73s1.84-1.31,4.27-0.17c2.25,1.06,4.37,0.17,4.37,0.17c0-0.09-2.03-0.9-2.82-1.68
	C8.8,8.05,8.6,7.85,8.42,7.7c-0.1-0.08-0.2-0.16-0.3-0.23c-0.07-0.05-0.15-0.1-0.24-0.16C7.03,6.76,5.35,6.79,5.29,6.79H5.29
	c-0.46-0.58-0.43-2.51-0.4-2.91C4.88,3.85,4.54,4.06,4.5,4.09C4.09,4.38,3.71,4.7,3.36,5.06c-0.4,0.4-0.76,0.84-1.09,1.3
	C1.53,7.42,1,8.62,0.71,9.88C0.71,9.91,0.29,11.71,0.5,12.65L0.5,12.65z"/>
<radialGradient id="SVGID_00000167359447535906370270000003281632642512752024_" cx="267.966" cy="-422.2835" r="25.9497" gradientTransform="matrix(0.1 0.99 0.65 -0.07 261.97 -294.57)" gradientUnits="userSpaceOnUse">
	<stop  offset="0" style="stop-color:#FFF44F"/>
	<stop  offset="0.06" style="stop-color:#FFE847"/>
	<stop  offset="0.17" style="stop-color:#FFC830"/>
	<stop  offset="0.3" style="stop-color:#FF980E"/>
	<stop  offset="0.36" style="stop-color:#FF8B16"/>
	<stop  offset="0.45" style="stop-color:#FF672A"/>
	<stop  offset="0.57" style="stop-color:#FF3647"/>
	<stop  offset="0.74" style="stop-color:#E31587"/>
</radialGradient>
<path fill="url(#SVGID_00000167359447535906370270000003281632642512752024_)" d="M16.12,8.06c0.42,0.42,0.79,0.89,1.08,1.41
	c0.06,0.05,0.12,0.09,0.17,0.15c2.64,2.43,1.26,5.86,1.15,6.11c2.14-1.76,3.51-4.37,3.1-7.07c-1.31-3.28-3.54-4.6-5.36-7.48
	c-0.09-0.15-0.18-0.29-0.27-0.45c-0.05-0.09-0.09-0.17-0.13-0.24c-0.08-0.15-0.13-0.3-0.17-0.46c0-0.02-0.01-0.03-0.03-0.03
	c-0.01,0-0.01,0-0.02,0c0,0,0,0-0.01,0c0,0-0.01,0-0.01,0C15.17,0.22,12.5,4.45,16.12,8.06z"/>
<radialGradient id="SVGID_00000137105411571835021970000015547499583127155130_" cx="10.9846" cy="21.2529" r="22.1156" gradientTransform="matrix(1 0 0 -1 0 26)" gradientUnits="userSpaceOnUse">
	<stop  offset="0.14" style="stop-color:#FFF44F"/>
	<stop  offset="0.48" style="stop-color:#FF980E"/>
	<stop  offset="0.59" style="stop-color:#FF5634"/>
	<stop  offset="0.66" style="stop-color:#FF3647"/>
	<stop  offset="0.9" style="stop-color:#E31587"/>
</radialGradient>
<path fill="url(#SVGID_00000137105411571835021970000015547499583127155130_)" d="M17.37,9.61c-0.06-0.05-0.11-0.1-0.17-0.15
	c-0.02-0.02-0.05-0.04-0.07-0.05c-0.62-0.44-1.73-0.87-2.8-0.68c4.18,2.09,3.06,9.29-2.74,9.02c-0.52-0.02-1.03-0.12-1.51-0.29
	c-0.11-0.04-0.23-0.09-0.34-0.14c-0.07-0.03-0.13-0.06-0.19-0.09l0.01,0c0.81,0.55,4.8,1.9,8.97-1.5c0,0,0-0.01,0.01-0.01
	C18.63,15.48,20.01,12.04,17.37,9.61z"/>
<radialGradient id="SVGID_00000071544201651667333690000010055546901967109548_" cx="16.8226" cy="19.9583" r="24.2056" gradientTransform="matrix(1 0 0 -1 0 26)" gradientUnits="userSpaceOnUse">
	<stop  offset="0.09" style="stop-color:#FFF44F"/>
	<stop  offset="0.23" style="stop-color:#FFE141"/>
	<stop  offset="0.51" style="stop-color:#FFAF1E"/>
	<stop  offset="0.63" style="stop-color:#FF980E"/>
</radialGradient>
<path fill="url(#SVGID_00000071544201651667333690000010055546901967109548_)" d="M6.8,13.42c0,0,0.54-2,3.84-2
	c0.36,0,1.38-1,1.4-1.29c0.02-0.29-2.11,0.89-4.37-0.17C5.24,8.82,3.4,10.14,3.4,10.14s0.7,1.73,2.75,1.73
	c-0.22,1.9,0.79,4.12,3.22,5.28c0.05,0.03,0.11,0.05,0.16,0.08C8.11,16.5,6.94,15.11,6.8,13.42L6.8,13.42z"/>
<linearGradient id="SVGID_00000127037403554042847970000015341687671986489500_" gradientUnits="userSpaceOnUse" x1="21.0032" y1="22.3816" x2="4.58" y2="5.958" gradientTransform="matrix(1 0 0 -1 0 26)">
	<stop  offset="0.17" style="stop-color:#FFF44F;stop-opacity:0.8"/>
	<stop  offset="0.27" style="stop-color:#FFF44F;stop-opacity:0.63"/>
	<stop  offset="0.49" style="stop-color:#FFF44F;stop-opacity:0.22"/>
	<stop  offset="0.6" style="stop-color:#FFF44F;stop-opacity:0"/>
</linearGradient>
<path fill="url(#SVGID_00000127037403554042847970000015341687671986489500_)" d="M22.77,8.05c-0.51-1.22-1.53-2.53-2.33-2.94
	c0.65,1.28,1.03,2.57,1.18,3.53c0,0,0,0.01,0,0.02c-1.31-3.28-3.54-4.6-5.36-7.48c-0.09-0.15-0.18-0.29-0.27-0.45
	c-0.05-0.09-0.09-0.17-0.13-0.24c-0.08-0.15-0.13-0.3-0.17-0.46c0-0.02-0.01-0.03-0.03-0.03c-0.01,0-0.01,0-0.02,0c0,0,0,0-0.01,0
	c0,0-0.01,0-0.01,0l0-0.01c-2.92,1.71-3.91,4.88-4,6.46c0.14-0.01,0.27-0.02,0.41-0.02c2.18,0,4.08,1.2,5.09,2.97
	c-0.62-0.44-1.73-0.87-2.8-0.68c4.18,2.09,3.06,9.29-2.74,9.02c-0.52-0.02-1.03-0.12-1.51-0.29c-0.11-0.04-0.23-0.09-0.34-0.14
	c-0.07-0.03-0.13-0.06-0.19-0.09l0.01,0c-0.06-0.03-0.11-0.06-0.17-0.08c0.05,0.03,0.11,0.05,0.16,0.08
	c-1.42-0.73-2.6-2.12-2.74-3.81c0,0,0.54-2,3.84-2c0.36,0,1.38-1,1.4-1.29c0-0.09-2.03-0.9-2.82-1.68C8.8,8.05,8.6,7.85,8.42,7.69
	c-0.1-0.08-0.2-0.16-0.3-0.23C7.86,6.54,7.84,5.56,8.09,4.63c-1.19,0.54-2.12,1.4-2.8,2.16H5.28C4.82,6.2,4.85,4.28,4.88,3.88
	C4.88,3.85,4.54,4.05,4.49,4.08C4.09,4.37,3.71,4.7,3.36,5.06c-0.4,0.4-0.76,0.84-1.09,1.3C1.52,7.42,0.99,8.62,0.71,9.88
	C0.71,9.91,0.7,9.93,0.7,9.96c-0.02,0.1-0.12,0.62-0.13,0.73c0,0.01,0-0.01,0,0c-0.09,0.54-0.15,1.08-0.17,1.62v0.06
	C0.39,18.79,5.59,24,12.02,24c5.75,0,10.53-4.18,11.46-9.66c0.02-0.15,0.04-0.3,0.05-0.45C23.76,11.9,23.5,9.8,22.77,8.05
	L22.77,8.05z M21.62,8.65v0.01V8.65z"/>
</svg>
