<?xml version="1.0" encoding="utf-8"?>
<!-- Generator: Adobe Illustrator 26.5.0, SVG Export Plug-In . SVG Version: 6.00 Build 0)  -->
<svg version="1.1" id="Calque_1" xmlns="http://www.w3.org/2000/svg" xmlns:xlink="http://www.w3.org/1999/xlink" x="0px" y="0px"
	 width="24px" height="24px" viewBox="0 0 24 24" enable-background="new 0 0 24 24" xml:space="preserve">
<path fill="#020204" d="M19.97,14.53c-0.25-1.31-0.68-2.61-1.43-3.71c-0.56-0.72-1.33-1.47-1.78-2.25c-0.26-0.52-0.5-1.05-0.72-1.58
	c-0.41-1.31-0.07-2.87-0.38-4.06c-0.55-2.28-3.29-3.67-5.4-2.54C7.6,1.98,8.89,5.58,8.75,8.11c-0.44,1.3-1.81,2.05-2.36,3.32
	C6.02,12.63,5.65,13.81,5,14.89c-0.45,0.66-0.44,1.5-0.03,2.18c0.16,0.31,3.12,6.11,3.69,5.92c1.93-0.56,3.99-0.48,5.93,0
	c0.59,0.18,1.19,0.29,1.8,0.35c0.16,0.01,2.01-5.34,2.21-5.39C20.28,17.81,20.17,15.77,19.97,14.53z"/>
<path fill="#FDFDFB" d="M16.15,12.26c-0.22-0.45-0.51-0.86-0.85-1.22c-0.12-1.04-0.61-1.98-1.07-2.9c-0.15,0.15-0.37,0-0.54-0.01
	c-0.27-0.01-0.47,0.21-0.65,0.38c-0.53,0.4-1.44,0.98-2.05,1.18C10.19,9.65,9.56,8.83,9.41,8.1c0.01,0.97-0.95,1.56-1.18,2.47
	c-0.04,1.01-0.52,1.54-0.93,2.42c-0.49,1.11-0.77,2.32-0.7,3.53c0.8,1.08,2.53,1.67,2.95,2.95c0.05,1.04-1.25,0.76-1.81,0.35
	c2.32,3.07,6.23,1.92,8.15-0.93C16.95,16.89,16.98,14.36,16.15,12.26z"/>
<path fill="#C7C7C6" enable-background="new    " d="M8.2,11.81c0.59-0.4,1.26-0.67,1.98-0.73c-1.91,0.27-1.78-0.15-1.86-0.28h0
	c-0.05-0.07-0.06-0.17-0.06-0.27c-0.18,0.85-0.07,1.02-0.62,1.8C7.81,12.14,7.99,11.96,8.2,11.81z"/>
<path fill="#E2E2E0" enable-background="new    " d="M14.46,10.69c-0.57,0.46-2.46,0.3-2.84,0.33c1.63,0.1,3.24,0.5,4.35,1.76
	c0.04-0.71-0.62-1.16-0.84-1.79c-0.09-0.4-0.16-0.81-0.18-1.22C14.89,10.12,14.72,10.44,14.46,10.69z"/>
<path fill="#F0F0EE" enable-background="new    " d="M10.8,10.11c-0.01,0.63-0.3,0.84-0.91,0.91c0.22,0.03,0.51,0,0.63,0.23
	c0.11,0.23,0.09,0.49,0.08,0.73c0.04-0.52,0.48-1.07,1.04-0.98C11.17,11.03,10.65,10.61,10.8,10.11z"/>
<path fill="#E1E1DF" enable-background="new    " d="M10.3,12.86c-0.24,1.48-0.55,3.42-0.06,4.85
	C10.21,16.09,10.33,14.47,10.3,12.86z"/>
<path opacity="0.75" fill="#7C7C7C" enable-background="new    " d="M16.88,12.3c0.23,0.02,1.09,0.93,0.27,0.75
	c-0.11,0-0.41,0.14-0.46,0.05c-0.05-0.08,0.13-0.28,0.23-0.45C16.99,12.52,16.78,12.32,16.88,12.3z"/>
<path fill="#7C7C7C" d="M13.26,1.04c-0.21,0.15-0.12,0.33-0.03,0.51c0.09,0.18-0.2,0.71-0.2,0.73c0.26-0.11,0.5-0.26,0.71-0.46
	c0.18-0.22,0.64,0.3,0.61,0.22C14.37,1.91,13.47,0.9,13.26,1.04z"/>
<path fill="#838384" d="M14.83,7.19c-0.17,0.16,0.08,0.4,0.2,0.68c0.08,0.17,0.28,0.42,0.49,0.38c0.15-0.03,0.25-0.25,0.23-0.4
	c-0.03-0.3-0.28-0.37-0.46-0.47C15.15,7.29,14.96,7.07,14.83,7.19z"/>
<path fill="#767676" enable-background="new    " d="M6.78,16.73c-1.51-1.38-0.4-3.68,0.59-5.05c-0.8,0.65-1.17,1.79-1.41,2.78
	c0,0.42,0.14,1.02-0.37,1.2c0.61,0.15,0.59,1.09,1.25,1.13C6.83,16.77,6.8,16.75,6.78,16.73z"/>
<path fill="#838384" d="M17.19,11.84c-0.31-0.23-0.65-0.39-0.99-0.57c0.29,0.24,0.66,0.4,0.93,0.64c0.91,0.73,1.1,2,0.82,3.08
	c-0.12,0.8-0.7,1.54-0.58,2.35C17.87,15.53,19.12,13.3,17.19,11.84z"/>
<linearGradient id="SVGID_1_" gradientUnits="userSpaceOnUse" x1="136.2757" y1="-81.3407" x2="136.8466" y2="-81.9327" gradientTransform="matrix(2.126 0 0 -3.857 -281.826 -293.9301)">
	<stop  offset="0" style="stop-color:#EBC40C"/>
	<stop  offset="1" style="stop-color:#EBC40C;stop-opacity:0"/>
</linearGradient>
<path fill="url(#SVGID_1_)" d="M6.67,17.64c0.51,1.35,1.47,2.59,2.13,3.86C8.46,20.15,7.34,18.88,6.67,17.64z"/>
<path fill="#CACAC9" d="M16.12,17.94c-1.97-0.2-1.18,0.72-1.23,2.06c0.64-0.54,1.18-1.22,1.42-2.03
	C16.25,17.96,16.18,17.95,16.12,17.94z"/>
<linearGradient id="SVGID_00000098199222890128794770000002169621996504267933_" gradientUnits="userSpaceOnUse" x1="42.0707" y1="-32.5754" x2="42.626" y2="-31.7024" gradientTransform="matrix(6.9911 0 0 -7.2044 -278.2263 -211.094)">
	<stop  offset="0" style="stop-color:#3E2A06"/>
	<stop  offset="1" style="stop-color:#AD780A"/>
</linearGradient>
<path fill="url(#SVGID_00000098199222890128794770000002169621996504267933_)" d="M21.88,20.9c-0.93,0.86-2.3,1.09-3.17,2.06
	c-0.67,0.8-1.74,1.37-2.76,0.84c-1.56-0.69-0.48-2.7-0.47-3.97c0.11-0.86,0.03-1.73,0.03-2.59c0.01-0.12,0.07-0.24,0.16-0.33
	c0.89-0.4,1.87,0.41,2.8,0.28c0.58-0.12,1.48-0.34,1.76,0.36c0.11,0.26,0.09,0.54,0.13,0.81c0.09,0.43,0.42,0.73,0.74,1
	C21.6,19.79,22.59,20.15,21.88,20.9z"/>
<path fill="#CD8907" d="M21.86,20.26c-0.42,0.89-1.55,1.02-2.3,1.56c-0.8,0.46-1.3,1.41-2.26,1.55c-0.59,0.07-1.28-0.11-1.64-0.61
	c-0.44-0.99,0.11-2.1,0.16-3.12c0.07-0.66,3.78-2.49,3.89-2.45c0.53,0.13,0.54,0.74,0.52,1.18c0.02,0.11,0.61,0.89,0.77,1.03
	C21.3,19.65,21.99,19.74,21.86,20.26z"/>
<path fill="#F5C021" d="M20.87,20.98c0.43-0.17,0.97-0.54,0.98-1.05c-0.19-0.23-0.52-0.37-0.73-0.59c-0.21-0.08-0.28-0.3-0.45-0.43
	c-0.22-0.22-0.23-0.56-0.45-0.78c-0.15-0.17-0.09-0.39-0.08-0.6c-0.1-0.74-1.14-0.45-1.65-0.35c-0.85,0.07-1.63-0.42-2.48-0.39
	c-0.23,0-0.28,0.11-0.2,0.32c0.03,1.5,0.17,2.99,0.03,4.48c-0.05,1.18,1.46,0.96,2.19,0.64c0.51-0.22,0.92-0.62,1.42-0.85
	C19.89,21.18,20.4,21.16,20.87,20.98z"/>
<path fill="#020204" d="M19.64,16.75c-0.15-0.38-0.6-0.46-0.95-0.52c-0.36-0.06-0.72-0.18-1.08-0.11c-0.82,0.21-1.09,1.41-0.63,2.06
	C17.89,19.06,19.82,17.96,19.64,16.75z"/>
<linearGradient id="SVGID_00000021813247357020809910000013220937483206037635_" gradientUnits="userSpaceOnUse" x1="17.3338" y1="16.0201" x2="19.4462" y2="17.0965">
	<stop  offset="0" style="stop-color:#7C7C7C"/>
	<stop  offset="1" style="stop-color:#454547"/>
</linearGradient>
<path fill="url(#SVGID_00000021813247357020809910000013220937483206037635_)" d="M18.89,17.23c-0.04,0.04-0.09,0.08-0.13,0.12
	c0.4-0.03,1.14-0.45,0.67-0.87c-0.36-0.26-0.84-0.25-1.26-0.35c-0.36-0.08-0.81-0.03-1.03,0.29C17.55,16.06,19.67,16.45,18.89,17.23
	z"/>
<radialGradient id="SVGID_00000110455587062292631040000007931747908049919617_" cx="105.7587" cy="-74.7203" r="0.3573" gradientTransform="matrix(2.7133 -0.0271 -0.0441 -4.1495 -274.4965 -298.8817)" gradientUnits="userSpaceOnUse">
	<stop  offset="0" style="stop-color:#FEFEFC"/>
	<stop  offset="0.75" style="stop-color:#FEFEFC"/>
	<stop  offset="1" style="stop-color:#D4D4D4"/>
</radialGradient>
<path fill="url(#SVGID_00000110455587062292631040000007931747908049919617_)" d="M9.79,3.59C8.77,3.67,8.94,6.07,9.8,6.28
	c0.12,0.03,0.89-0.49,0.94-0.66C10.93,4.88,10.69,3.67,9.79,3.59z"/>
<path fill="#020204" d="M9.44,4.78c-0.21,0.55,0.6,1.56,0.92,0.71C10.65,4.79,9.72,3.7,9.44,4.78z"/>
<linearGradient id="SVGID_00000137832452489787790680000009847887481878468766_" gradientUnits="userSpaceOnUse" x1="670.2769" y1="-572.4133" x2="671.3811" y2="-573.6437" gradientTransform="matrix(0.4278 0 0 -0.6827 -276.9811 -386.4065)">
	<stop  offset="0" style="stop-color:#757574;stop-opacity:0"/>
	<stop  offset="0.25" style="stop-color:#757574"/>
	<stop  offset="0.5" style="stop-color:#757574"/>
	<stop  offset="1" style="stop-color:#757574;stop-opacity:0"/>
</linearGradient>
<path fill="url(#SVGID_00000137832452489787790680000009847887481878468766_)" d="M9.83,4.65C9.89,4.73,10,4.78,10.04,4.89
	c0.03,0.11-0.05,0.38,0.14,0.3c0.15-0.18,0.03-0.53-0.18-0.64C9.92,4.5,9.78,4.53,9.83,4.65z"/>
<radialGradient id="SVGID_00000172434924081771484970000017107049005174328489_" cx="9.0784" cy="4.3689" r="0.1568" gradientUnits="userSpaceOnUse">
	<stop  offset="0" style="stop-color:#C8C8C8"/>
	<stop  offset="1" style="stop-color:#797978"/>
</radialGradient>
<path fill="url(#SVGID_00000172434924081771484970000017107049005174328489_)" d="M9.11,4.53c0.32-0.48,0.91-0.61,1.44-0.42
	C10.06,3.24,9.11,3.56,9.11,4.53z"/>
<linearGradient id="SVGID_00000061454957528802989520000009594739682408616864_" gradientUnits="userSpaceOnUse" x1="254.176" y1="-375.4622" x2="255.0728" y2="-376.4803" gradientTransform="matrix(1.1316 0 0 -1.0185 -277.7983 -379.4556)">
	<stop  offset="0" style="stop-color:#646464;stop-opacity:0"/>
	<stop  offset="0.31" style="stop-color:#646464;stop-opacity:0.58"/>
	<stop  offset="0.47" style="stop-color:#646464"/>
	<stop  offset="0.73" style="stop-color:#646464;stop-opacity:0.259"/>
	<stop  offset="1" style="stop-color:#646464;stop-opacity:0"/>
</linearGradient>
<path fill="url(#SVGID_00000061454957528802989520000009594739682408616864_)" d="M10.38,3.43c0.2,0.19,0.35,0.42,0.45,0.67
	c-0.03-0.56-0.55-1.04-1.12-1.02C9.9,3.11,10.22,3.25,10.38,3.43z"/>
<radialGradient id="SVGID_00000116205252239595106760000014964959372945753015_" cx="97.2771" cy="-102.4897" r="0.4454" gradientTransform="matrix(2.8638 -0.0886 -0.1025 -3.2855 -272.2482 -322.2526)" gradientUnits="userSpaceOnUse">
	<stop  offset="0" style="stop-color:#FEFEFC"/>
	<stop  offset="0.75" style="stop-color:#FEFEFC"/>
	<stop  offset="1" style="stop-color:#D4D4D4"/>
</radialGradient>
<path fill="url(#SVGID_00000116205252239595106760000014964959372945753015_)" d="M12.34,3.59c-1.22,0.81-0.31,3,1.14,2.58
	C14.71,5.46,13.83,2.69,12.34,3.59z"/>
<path fill="#020204" d="M12.85,4.27c-1,0.14-0.55,2.05,0.43,1.46C13.83,5.33,13.58,4.24,12.85,4.27L12.85,4.27z"/>
<linearGradient id="SVGID_00000160880624119759918710000000980349893014845353_" gradientUnits="userSpaceOnUse" x1="509.3307" y1="-709.8669" x2="510.2935" y2="-711.0246" gradientTransform="matrix(0.5635 0 0 -0.5552 -274.0948 -389.6672)">
	<stop  offset="0" style="stop-color:#949494;stop-opacity:0.388"/>
	<stop  offset="0.5" style="stop-color:#949494"/>
	<stop  offset="1" style="stop-color:#949494;stop-opacity:0.388"/>
</linearGradient>
<path fill="url(#SVGID_00000160880624119759918710000000980349893014845353_)" d="M13.38,5c0.09-0.09-0.07-0.34-0.19-0.44
	c-0.09-0.07-0.35-0.15-0.34-0.07C12.86,4.59,13.31,5.05,13.38,5z"/>
<linearGradient id="SVGID_00000110462323870744534550000012094239348447205037_" gradientUnits="userSpaceOnUse" x1="12.1256" y1="3.6097" x2="13.939" y2="4.5521">
	<stop  offset="0" style="stop-color:#747474"/>
	<stop  offset="0.13" style="stop-color:#8C8C8C"/>
	<stop  offset="0.25" style="stop-color:#A4A4A4"/>
	<stop  offset="0.5" style="stop-color:#D4D4D4"/>
	<stop  offset="0.62" style="stop-color:#D4D4D4"/>
	<stop  offset="1" style="stop-color:#7C7C7C"/>
</linearGradient>
<path fill="url(#SVGID_00000110462323870744534550000012094239348447205037_)" d="M12.14,4.05c0.65-0.22,1.36,0,1.85,0.46
	c-0.15-1.21-1.65-1.53-2.13-0.34C11.95,4.13,12.05,4.08,12.14,4.05z"/>
<linearGradient id="SVGID_00000044139836080668833660000006652157966107344773_" gradientUnits="userSpaceOnUse" x1="231.277" y1="-331.9367" x2="232.2039" y2="-332.8857" gradientTransform="matrix(1.244 0 0 -1.143 -274.6 -376.502)">
	<stop  offset="0" style="stop-color:#646464;stop-opacity:0"/>
	<stop  offset="0.31" style="stop-color:#646464;stop-opacity:0.58"/>
	<stop  offset="0.47" style="stop-color:#646464"/>
	<stop  offset="0.73" style="stop-color:#646464;stop-opacity:0.259"/>
	<stop  offset="1" style="stop-color:#646464;stop-opacity:0"/>
</linearGradient>
<path fill="url(#SVGID_00000044139836080668833660000006652157966107344773_)" d="M13.12,2.92c-0.04,0.05-0.07,0.1-0.1,0.16
	c0.52,0.11,0.92,0.52,1.14,0.98C14.43,3.67,13.51,2.99,13.12,2.92z"/>
<radialGradient id="SVGID_00000137120549967190547670000002722318401678602647_" cx="-3.4904" cy="-279.5936" r="0.3338" gradientTransform="matrix(1.4675 -1.0657 -0.9684 -1.3303 -254.4151 -373.7265)" gradientUnits="userSpaceOnUse">
	<stop  offset="0" style="stop-color:#020204"/>
	<stop  offset="0.73" style="stop-color:#020204"/>
	<stop  offset="1" style="stop-color:#5C5C5C"/>
</radialGradient>
<path fill="url(#SVGID_00000137120549967190547670000002722318401678602647_)" d="M10.47,5.49c0.56-0.89,1.09-1.22,1.6-0.06
	C12.15,5.51,10.39,5.58,10.47,5.49z"/>
<radialGradient id="SVGID_00000090264293291501049320000010559295135063828414_" cx="46.7972" cy="-260.0339" r="0.9639" gradientTransform="matrix(2.255 -0.9284 -0.6513 -1.5814 -265.4997 -364.8605)" gradientUnits="userSpaceOnUse">
	<stop  offset="0" style="stop-color:#D2940A"/>
	<stop  offset="0.75" style="stop-color:#D89C08"/>
	<stop  offset="0.87" style="stop-color:#B67E07"/>
	<stop  offset="1" style="stop-color:#946106"/>
</radialGradient>
<path fill="url(#SVGID_00000090264293291501049320000010559295135063828414_)" d="M9.1,7.04c0.15,0.28,0.54,0.38,0.7,0.69
	c0.38,0.69,1.14,1.09,1.91,0.8c0.74-0.2,1.25-0.87,1.99-1.09c0.19-0.07,0.26-0.27,0.26-0.45C13.99,6.78,14.09,6.59,14,6.4
	c-0.04-0.07-0.1-0.13-0.17-0.17C13.76,6.19,9.12,6.99,9.1,7.04z"/>
<path fill="#D9B30D" d="M10.3,7.37c-0.17,0.71,0.94,0.92,1.11,0.25C11.47,7.15,10.46,7.09,10.3,7.37z"/>
<path fill="#604405" d="M13.53,6.56c0.05-0.03,0.03-0.1-0.01-0.14C13.51,6.4,9.29,7.04,9.29,7.07C9.28,7.12,9.31,7.18,9.36,7.19
	c0.47,0.15,0.65,0.65,1.26,0.6c0.78-0.04,1.6-0.24,2.2-0.76C13.02,6.82,13.28,6.69,13.53,6.56z"/>
<linearGradient id="SVGID_00000038388393385197948000000002228861304970147253_" gradientUnits="userSpaceOnUse" x1="59.8249" y1="-142.061" x2="60.7603" y2="-142.047" gradientTransform="matrix(4.87 0 0 -2.4497 -282.148 -341.5316)">
	<stop  offset="0" style="stop-color:#AD780A"/>
	<stop  offset="0.12" style="stop-color:#D89E08"/>
	<stop  offset="0.25" style="stop-color:#EDB80B"/>
	<stop  offset="0.39" style="stop-color:#EBC80D"/>
	<stop  offset="0.53" style="stop-color:#F5D838"/>
	<stop  offset="0.77" style="stop-color:#F6D811"/>
	<stop  offset="1" style="stop-color:#F5CD31"/>
</linearGradient>
<path fill="url(#SVGID_00000038388393385197948000000002228861304970147253_)" d="M9.74,5.99C9.4,6.22,9.01,6.64,9.12,7.08
	c0.3,0.07,0.51,0.19,0.76,0.39c1.22,0.62,2.59-0.17,3.51-0.97c0.16-0.05,0.32,0.06,0.47,0c0.31-0.23-0.17-0.47-0.39-0.48
	c-0.62-0.12-1.14-0.51-1.72-0.73C11.02,5.08,10.22,5.43,9.74,5.99z"/>
<path fill="#F6DA4A" d="M12.13,6.07c-0.08-0.1-0.23-0.04-0.32,0.03c-0.32,0.25-0.79,0.71-0.63,1.14c0.11,0.1,0.26,0.01,0.35-0.08
	C11.82,6.9,12.22,6.48,12.13,6.07z"/>
<radialGradient id="SVGID_00000141422295674120756130000014123488640201362583_" cx="1343.2506" cy="-1850.5312" r="0.6047" gradientTransform="matrix(0.2135 0 0 -0.2176 -275.2784 -396.6107)" gradientUnits="userSpaceOnUse">
	<stop  offset="0" style="stop-color:#3A2903"/>
	<stop  offset="0.55" style="stop-color:#735208"/>
	<stop  offset="1" style="stop-color:#AC8C04"/>
</radialGradient>
<path opacity="0.8" fill="url(#SVGID_00000141422295674120756130000014123488640201362583_)" enable-background="new    " d="
	M10.57,5.54c-0.1-0.04-0.25,0.2-0.09,0.2C10.53,5.67,10.66,5.58,10.57,5.54z"/>
<radialGradient id="SVGID_00000154421807972604905950000017579866633002482100_" cx="1191.377" cy="-2888.1646" r="1.084" gradientTransform="matrix(0.2407 0 0 -0.1401 -279.6713 -401.2733)" gradientUnits="userSpaceOnUse">
	<stop  offset="0" style="stop-color:#3A2903"/>
	<stop  offset="0.55" style="stop-color:#735208"/>
	<stop  offset="1" style="stop-color:#AC8C04"/>
</radialGradient>
<path opacity="0.8" fill="url(#SVGID_00000154421807972604905950000017579866633002482100_)" enable-background="new    " d="
	M11.49,5.57c0.02,0.06,0.11,0.05,0.17,0.08c0.06,0.03,0.09,0.08,0.14,0.08c0.05,0,0.13-0.02,0.14-0.07
	C11.94,5.52,11.54,5.41,11.49,5.57z"/>
<linearGradient id="SVGID_00000156545902012048703550000005677848426579856293_" gradientUnits="userSpaceOnUse" x1="614.5579" y1="-692.2778" x2="614.5579" y2="-692.8669" gradientTransform="matrix(0.4671 0 0 -0.569 -273.312 -387.576)">
	<stop  offset="0" style="stop-color:#F5CE2D"/>
	<stop  offset="1" style="stop-color:#D79B08"/>
</linearGradient>
<path fill="url(#SVGID_00000156545902012048703550000005677848426579856293_)" d="M13.99,6.48c-0.01,0.15-0.12,0.27-0.26,0.28
	c-0.22,0-0.26-0.34-0.11-0.48C13.77,6.09,14.04,6.26,13.99,6.48z"/>
<linearGradient id="SVGID_00000170986335238335676800000008811614306002672001_" gradientUnits="userSpaceOnUse" x1="38.4187" y1="-28.8428" x2="38.9198" y2="-29.693" gradientTransform="matrix(7.6998 0 0 -7.6139 -292.1999 -201.2678)">
	<stop  offset="0" style="stop-color:#B98309"/>
	<stop  offset="1" style="stop-color:#382605"/>
</linearGradient>
<path fill="url(#SVGID_00000170986335238335676800000008811614306002672001_)" d="M5.15,16.44c0.57-0.22,1.07,0.3,1.36,0.74
	c0.72,0.92,1.24,1.97,1.89,2.93c0.4,0.54,0.92,1.03,1.1,1.7C9.83,22.84,9,24.04,7.89,24c-1.46-0.35-2.62-0.89-4.35-1.23
	c-0.52-0.24-1.22-0.2-1.59-0.66c-0.22-0.41,0.1-0.82,0.26-1.19c0.33-0.82-0.05-1.69,0.05-2.52c0.16-0.94,1.26-0.43,1.85-0.74
	C4.59,17.37,4.63,16.67,5.15,16.44z"/>
<path fill="#D99A03" d="M5.36,16.66c0.24-0.1,0.52-0.02,0.71,0.14c0.91,0.96,1.34,2.29,2.12,3.35c0.36,0.49,0.84,0.91,1.01,1.51
	c0.3,0.96-0.5,2.03-1.52,1.96c-1.28-0.36-2.51-0.76-3.83-0.97c-0.52-0.23-1.23-0.18-1.61-0.64c-0.21-0.4,0.12-0.79,0.26-1.16
	c0.29-0.73-0.07-1.5,0.03-2.25c0.23-1.12,1.77-0.02,2.17-0.97C4.89,17.32,4.96,16.78,5.36,16.66z"/>
<path fill="#F5BD0C" d="M5.25,16.37c1.12-0.31,1.4,1.6,1.98,2.26c0.73,1.05,1.87,2.32,1.31,3.68c-0.49,0.92-1.65,0.69-2.42,0.29
	c-1.09-0.32-2.24-0.49-3.33-0.82c-0.21-0.07-0.38-0.27-0.35-0.5c0.02-0.28,0.22-0.5,0.3-0.76c0.21-0.66-0.31-1.29-0.18-1.95
	c0.29-1.1,1.95,0.2,2.22-0.95C4.9,17.18,4.8,16.61,5.25,16.37L5.25,16.37z"/>
</svg>
