<?xml version="1.0" encoding="utf-8"?>
<!-- Generator: Adobe Illustrator 26.5.0, SVG Export Plug-In . SVG Version: 6.00 Build 0)  -->
<svg version="1.1" id="Calque_1" xmlns="http://www.w3.org/2000/svg" xmlns:xlink="http://www.w3.org/1999/xlink" x="0px" y="0px"
	 width="24px" height="24px" viewBox="0 0 24 24" enable-background="new 0 0 24 24" xml:space="preserve">
<linearGradient id="SVGID_1_" gradientUnits="userSpaceOnUse" x1="330.9084" y1="-57.3129" x2="330.9084" y2="-33.2284" gradientTransform="matrix(0.9965 0 0 -0.9965 -317.7473 -33.1118)">
	<stop  offset="0" style="stop-color:#BDBDBD"/>
	<stop  offset="1" style="stop-color:#FFFFFF"/>
</linearGradient>
<path fill="url(#SVGID_1_)" d="M24,12c0,6.63-5.37,12-12,12l0,0C5.37,24,0,18.63,0,12S5.37,0,12,0l0,0C18.63,0,24,5.37,24,12L24,12
	L24,12z"/>
<radialGradient id="SVGID_00000153685056612104534080000009005961290365254029_" cx="858.4693" cy="-583.311" r="82.1254" gradientTransform="matrix(0.1461 0 0 -0.1461 -113.3876 -74.8446)" gradientUnits="userSpaceOnUse">
	<stop  offset="0" style="stop-color:#06C2E7"/>
	<stop  offset="0.25" style="stop-color:#0DB8EC"/>
	<stop  offset="0.5" style="stop-color:#12AEF1"/>
	<stop  offset="0.75" style="stop-color:#1F86F9"/>
	<stop  offset="1" style="stop-color:#107DDD"/>
</radialGradient>
<path fill="url(#SVGID_00000153685056612104534080000009005961290365254029_)" d="M23.06,12c0,6.11-4.95,11.06-11.06,11.06l0,0
	C5.89,23.06,0.94,18.11,0.94,12l0,0C0.94,5.89,5.89,0.94,12,0.94l0,0C18.11,0.94,23.06,5.89,23.06,12L23.06,12z"/>
<path fill="#F4F2F3" d="M12,1.52c-0.09,0-0.16,0.07-0.16,0.16v1.86c0,0.09,0.07,0.16,0.16,0.16c0.09,0,0.16-0.07,0.16-0.16V1.68
	C12.16,1.59,12.09,1.52,12,1.52z M10.95,1.58c-0.01,0-0.02,0-0.03,0c-0.09,0.01-0.15,0.09-0.14,0.18l0.08,0.78
	c0.01,0.09,0.09,0.15,0.18,0.14c0.09-0.01,0.15-0.09,0.14-0.18l-0.08-0.78C11.08,1.65,11.02,1.59,10.95,1.58L10.95,1.58z
	 M13.06,1.58c-0.07,0.01-0.14,0.07-0.14,0.14l-0.08,0.78c-0.01,0.09,0.05,0.17,0.14,0.18c0.09,0.01,0.17-0.05,0.18-0.14l0.08-0.78
	c0.01-0.09-0.05-0.17-0.14-0.18C13.08,1.58,13.07,1.58,13.06,1.58L13.06,1.58z M9.86,1.74c-0.01,0-0.02,0-0.03,0
	C9.74,1.76,9.69,1.85,9.7,1.94l0.39,1.82c0.02,0.09,0.1,0.14,0.19,0.12c0.09-0.02,0.14-0.1,0.12-0.19l-0.39-1.82
	C10,1.79,9.94,1.74,9.86,1.74L9.86,1.74z M14.15,1.74c-0.08,0-0.14,0.05-0.16,0.13L13.6,3.69c-0.02,0.09,0.04,0.17,0.12,0.19
	c0.09,0.02,0.17-0.04,0.19-0.12l0.39-1.82c0.02-0.09-0.04-0.17-0.12-0.19C14.17,1.74,14.16,1.74,14.15,1.74L14.15,1.74z M8.83,2.03
	c-0.02,0-0.04,0-0.06,0.01c-0.08,0.03-0.13,0.12-0.1,0.2L8.9,2.99c0.03,0.08,0.12,0.13,0.2,0.1c0.08-0.03,0.13-0.12,0.1-0.2
	L8.97,2.14C8.95,2.08,8.89,2.04,8.83,2.03L8.83,2.03z M15.17,2.03c-0.06,0.01-0.12,0.05-0.14,0.11l-0.24,0.74
	c-0.03,0.08,0.02,0.18,0.1,0.2c0.08,0.03,0.18-0.02,0.2-0.1l0.24-0.74c0.03-0.08-0.02-0.18-0.1-0.2
	C15.22,2.03,15.19,2.03,15.17,2.03L15.17,2.03z M7.8,2.41c-0.02,0-0.04,0-0.06,0.01C7.66,2.46,7.62,2.55,7.66,2.63l0.76,1.7
	c0.04,0.08,0.13,0.12,0.21,0.08C8.71,4.38,8.75,4.28,8.71,4.2L7.95,2.5C7.93,2.44,7.87,2.41,7.8,2.41L7.8,2.41z M16.21,2.41
	c-0.06,0-0.12,0.03-0.15,0.1l-0.76,1.7c-0.04,0.08,0,0.18,0.08,0.21c0.08,0.04,0.18,0,0.21-0.08l0.76-1.7
	c0.04-0.08,0-0.18-0.08-0.21C16.25,2.42,16.23,2.41,16.21,2.41L16.21,2.41z M6.86,2.91c-0.03,0-0.06,0-0.09,0.02
	C6.69,2.97,6.66,3.07,6.7,3.15L7.1,3.83c0.04,0.08,0.14,0.1,0.22,0.06c0.08-0.04,0.1-0.14,0.06-0.22L6.98,2.99
	C6.96,2.94,6.91,2.91,6.86,2.91L6.86,2.91z M17.14,2.91c-0.05,0-0.1,0.03-0.13,0.08l-0.39,0.68c-0.04,0.08-0.02,0.18,0.06,0.22
	c0.08,0.04,0.18,0.02,0.22-0.06l0.39-0.68c0.04-0.08,0.02-0.18-0.06-0.22C17.21,2.91,17.18,2.91,17.14,2.91L17.14,2.91z M5.93,3.48
	c-0.03,0-0.06,0.01-0.09,0.03C5.77,3.57,5.76,3.67,5.81,3.74L6.9,5.25c0.05,0.07,0.15,0.09,0.23,0.04C7.2,5.23,7.21,5.13,7.16,5.06
	L6.07,3.55C6.04,3.51,5.99,3.48,5.93,3.48L5.93,3.48z M18.08,3.49c-0.05,0-0.1,0.02-0.14,0.07l-1.09,1.5
	c-0.05,0.07-0.04,0.17,0.04,0.23c0.07,0.05,0.17,0.04,0.23-0.04l1.09-1.5c0.05-0.07,0.04-0.17-0.04-0.23
	C18.14,3.5,18.11,3.49,18.08,3.49L18.08,3.49z M5.11,4.17c-0.04,0-0.08,0.01-0.12,0.04C4.93,4.28,4.92,4.38,4.98,4.44l0.52,0.58
	C5.56,5.09,5.67,5.1,5.73,5.04C5.8,4.98,5.8,4.88,5.74,4.81L5.22,4.23C5.19,4.19,5.15,4.18,5.11,4.17L5.11,4.17z M18.89,4.18
	c-0.04,0-0.08,0.02-0.11,0.05l-0.52,0.58c-0.06,0.07-0.05,0.17,0.01,0.23c0.07,0.06,0.17,0.05,0.23-0.01l0.52-0.58
	c0.06-0.07,0.05-0.17-0.01-0.23C18.97,4.19,18.93,4.17,18.89,4.18L18.89,4.18z M4.32,4.93c-0.04,0-0.08,0.02-0.11,0.05
	C4.15,5.05,4.15,5.15,4.22,5.21L5.6,6.46c0.07,0.06,0.17,0.05,0.23-0.01c0.06-0.07,0.05-0.17-0.01-0.23L4.44,4.97
	C4.4,4.94,4.36,4.93,4.32,4.93L4.32,4.93z M19.68,4.94c-0.04,0-0.08,0.01-0.12,0.04l-1.38,1.24c-0.07,0.06-0.07,0.16-0.01,0.23
	c0.06,0.07,0.16,0.07,0.23,0.01l1.38-1.24c0.07-0.06,0.07-0.16,0.01-0.23C19.77,4.96,19.73,4.94,19.68,4.94L19.68,4.94z M3.66,5.78
	c-0.05,0-0.1,0.02-0.14,0.07C3.47,5.92,3.49,6.02,3.56,6.07L4.2,6.53c0.07,0.05,0.17,0.04,0.23-0.04c0.05-0.07,0.04-0.17-0.04-0.23
	L3.75,5.81C3.73,5.79,3.69,5.78,3.66,5.78L3.66,5.78z M20.34,5.78c-0.03,0-0.06,0.01-0.09,0.03l-0.63,0.46
	c-0.07,0.05-0.09,0.15-0.04,0.23c0.05,0.07,0.15,0.09,0.23,0.04l0.63-0.46c0.07-0.05,0.09-0.15,0.04-0.23
	C20.44,5.8,20.39,5.78,20.34,5.78L20.34,5.78z M3.05,6.68c-0.05,0-0.1,0.03-0.13,0.08C2.88,6.84,2.9,6.93,2.98,6.98l1.61,0.93
	c0.08,0.04,0.18,0.02,0.22-0.06c0.04-0.08,0.02-0.18-0.06-0.22L3.14,6.7C3.11,6.68,3.08,6.68,3.05,6.68L3.05,6.68z M20.95,6.68
	c-0.03,0-0.06,0-0.09,0.02l-1.61,0.93c-0.08,0.04-0.1,0.14-0.06,0.22c0.04,0.08,0.14,0.1,0.22,0.06l1.61-0.93
	c0.08-0.04,0.1-0.14,0.06-0.22C21.05,6.71,21,6.68,20.95,6.68L20.95,6.68z M2.59,7.64c-0.06,0-0.12,0.03-0.15,0.1
	c-0.04,0.08,0,0.18,0.08,0.21l0.71,0.32c0.08,0.04,0.18,0,0.21-0.08c0.04-0.08,0-0.18-0.08-0.21L2.65,7.65
	C2.63,7.64,2.61,7.64,2.59,7.64z M21.42,7.65c-0.02,0-0.04,0-0.06,0.01l-0.71,0.32c-0.08,0.04-0.12,0.13-0.08,0.21
	c0.04,0.08,0.13,0.12,0.21,0.08l0.71-0.32c0.08-0.04,0.12-0.13,0.08-0.21C21.54,7.68,21.48,7.64,21.42,7.65L21.42,7.65z M2.17,8.64
	C2.11,8.65,2.05,8.69,2.03,8.75c-0.03,0.08,0.02,0.18,0.1,0.2L3.9,9.53c0.08,0.03,0.18-0.02,0.2-0.1C4.14,9.34,4.09,9.25,4,9.23
	L2.24,8.65C2.21,8.64,2.19,8.64,2.17,8.64L2.17,8.64z M21.83,8.65c-0.02,0-0.04,0-0.06,0.01L20,9.23c-0.08,0.03-0.13,0.12-0.1,0.2
	c0.03,0.08,0.12,0.13,0.2,0.1l1.77-0.57c0.08-0.03,0.13-0.12,0.1-0.2C21.95,8.7,21.89,8.65,21.83,8.65L21.83,8.65z M1.91,9.7
	c-0.08,0-0.14,0.05-0.16,0.13C1.74,9.91,1.79,10,1.88,10.01l0.77,0.16c0.09,0.02,0.17-0.04,0.19-0.12C2.86,9.97,2.8,9.88,2.71,9.86
	L1.95,9.7C1.94,9.7,1.93,9.7,1.91,9.7L1.91,9.7z M22.09,9.7c-0.01,0-0.02,0-0.03,0l-0.77,0.16c-0.09,0.02-0.14,0.1-0.12,0.19
	c0.02,0.09,0.1,0.14,0.19,0.12l0.77-0.16c0.09-0.02,0.14-0.1,0.12-0.19C22.23,9.75,22.16,9.7,22.09,9.7L22.09,9.7z M1.72,10.75
	c-0.07,0.01-0.14,0.07-0.14,0.14c-0.01,0.09,0.05,0.17,0.14,0.18l1.85,0.2c0.09,0.01,0.17-0.05,0.18-0.14
	c0.01-0.09-0.05-0.17-0.14-0.18l-1.85-0.2C1.74,10.75,1.73,10.75,1.72,10.75L1.72,10.75z M22.28,10.77c-0.01,0-0.02,0-0.03,0
	l-1.85,0.19c-0.09,0.01-0.15,0.09-0.14,0.18c0.01,0.09,0.09,0.15,0.18,0.14l1.85-0.19c0.09-0.01,0.15-0.09,0.14-0.18
	C22.42,10.83,22.36,10.78,22.28,10.77L22.28,10.77z M1.69,11.84c-0.09,0-0.16,0.07-0.16,0.16c0,0.09,0.07,0.16,0.16,0.16h0.78
	c0.09,0,0.16-0.07,0.16-0.16c0-0.09-0.07-0.16-0.16-0.16H1.69z M21.53,11.84c-0.09,0-0.16,0.07-0.16,0.16
	c0,0.09,0.07,0.16,0.16,0.16h0.78c0.09,0,0.16-0.07,0.16-0.16c0-0.09-0.07-0.16-0.16-0.16H21.53z M3.6,12.72c-0.01,0-0.02,0-0.03,0
	l-1.85,0.19C1.63,12.92,1.56,13,1.57,13.09c0.01,0.09,0.09,0.15,0.18,0.14l1.85-0.19c0.09-0.01,0.15-0.09,0.14-0.18
	C3.74,12.78,3.67,12.73,3.6,12.72L3.6,12.72z M20.4,12.73c-0.07,0.01-0.14,0.07-0.14,0.14c-0.01,0.09,0.05,0.17,0.14,0.18l1.85,0.2
	c0.09,0.01,0.17-0.05,0.18-0.14c0.01-0.09-0.05-0.17-0.14-0.18l-1.85-0.2C20.42,12.73,20.41,12.73,20.4,12.73L20.4,12.73z
	 M2.68,13.82c-0.01,0-0.02,0-0.03,0l-0.77,0.16c-0.09,0.02-0.14,0.1-0.12,0.19c0.02,0.09,0.1,0.14,0.19,0.12l0.77-0.16
	c0.09-0.02,0.14-0.1,0.12-0.19C2.82,13.87,2.75,13.82,2.68,13.82L2.68,13.82z M21.32,13.82c-0.08,0-0.14,0.05-0.16,0.13
	c-0.02,0.09,0.04,0.17,0.12,0.19l0.77,0.16c0.09,0.02,0.17-0.04,0.19-0.12c0.02-0.09-0.04-0.17-0.12-0.19l-0.77-0.16
	C21.34,13.82,21.33,13.82,21.32,13.82L21.32,13.82z M3.97,14.46c-0.02,0-0.04,0-0.06,0.01l-1.77,0.57c-0.08,0.03-0.13,0.12-0.1,0.2
	c0.03,0.08,0.12,0.13,0.2,0.1L4,14.77c0.08-0.03,0.13-0.12,0.1-0.2C4.09,14.5,4.03,14.46,3.97,14.46L3.97,14.46z M20.03,14.46
	c-0.06,0.01-0.12,0.05-0.14,0.11c-0.03,0.08,0.02,0.18,0.1,0.2l1.77,0.58c0.08,0.03,0.18-0.02,0.2-0.1c0.03-0.08-0.02-0.18-0.1-0.2
	l-1.77-0.58C20.07,14.46,20.05,14.46,20.03,14.46L20.03,14.46z M3.29,15.71c-0.02,0-0.04,0-0.06,0.01l-0.71,0.32
	c-0.08,0.04-0.12,0.13-0.08,0.21c0.04,0.08,0.13,0.12,0.21,0.08l0.71-0.32c0.08-0.04,0.12-0.13,0.08-0.21
	C3.41,15.75,3.35,15.71,3.29,15.71L3.29,15.71z M20.71,15.72c-0.06,0-0.12,0.03-0.15,0.1c-0.04,0.08,0,0.18,0.08,0.21l0.71,0.32
	c0.08,0.04,0.18,0,0.21-0.08c0.04-0.08,0-0.18-0.08-0.21l-0.71-0.32C20.75,15.73,20.73,15.72,20.71,15.72L20.71,15.72z M4.68,16.07
	c-0.03,0-0.06,0-0.09,0.02l-1.61,0.93c-0.08,0.04-0.1,0.14-0.06,0.22c0.04,0.08,0.14,0.1,0.22,0.06l1.61-0.93
	c0.08-0.04,0.1-0.14,0.06-0.22C4.78,16.1,4.73,16.07,4.68,16.07L4.68,16.07z M19.32,16.07c-0.05,0-0.1,0.03-0.13,0.08
	c-0.04,0.08-0.02,0.18,0.06,0.22l1.61,0.93c0.08,0.04,0.18,0.02,0.22-0.06c0.04-0.08,0.02-0.18-0.06-0.22l-1.61-0.93
	C19.38,16.07,19.35,16.07,19.32,16.07L19.32,16.07z M4.28,17.43c-0.03,0-0.06,0.01-0.09,0.03l-0.63,0.46
	c-0.07,0.05-0.09,0.15-0.04,0.23c0.05,0.07,0.15,0.09,0.23,0.04l0.63-0.46c0.07-0.05,0.09-0.15,0.04-0.23
	C4.38,17.46,4.33,17.43,4.28,17.43L4.28,17.43z M19.71,17.44c-0.05,0-0.1,0.02-0.14,0.07c-0.05,0.07-0.04,0.17,0.04,0.23l0.63,0.46
	c0.07,0.05,0.17,0.04,0.23-0.04c0.05-0.07,0.04-0.17-0.04-0.23l-0.63-0.46C19.78,17.45,19.75,17.44,19.71,17.44L19.71,17.44z
	 M5.72,17.5c-0.04,0-0.08,0.01-0.12,0.04l-1.38,1.24c-0.07,0.06-0.07,0.16-0.01,0.23c0.06,0.07,0.16,0.07,0.23,0.01l1.38-1.24
	c0.07-0.06,0.07-0.16,0.01-0.23C5.8,17.52,5.76,17.5,5.72,17.5z M18.28,17.5c-0.04,0-0.08,0.02-0.11,0.05
	c-0.06,0.07-0.05,0.17,0.01,0.23l1.38,1.24c0.07,0.06,0.17,0.05,0.23-0.01c0.06-0.07,0.05-0.17-0.01-0.23l-1.38-1.24
	C18.36,17.51,18.32,17.5,18.28,17.5L18.28,17.5z M7.03,18.68c-0.05,0-0.1,0.02-0.14,0.07l-1.09,1.5c-0.05,0.07-0.04,0.17,0.04,0.23
	c0.07,0.05,0.17,0.04,0.23-0.04l1.09-1.5c0.05-0.07,0.04-0.17-0.04-0.23C7.09,18.69,7.06,18.68,7.03,18.68z M16.96,18.69
	c-0.03,0-0.06,0.01-0.09,0.03c-0.07,0.05-0.09,0.15-0.04,0.23l1.09,1.51c0.05,0.07,0.15,0.09,0.23,0.04
	c0.07-0.05,0.09-0.15,0.04-0.23l-1.09-1.51C17.07,18.71,17.01,18.69,16.96,18.69L16.96,18.69z M5.62,18.92
	c-0.04,0-0.08,0.02-0.11,0.05l-0.52,0.58c-0.06,0.07-0.05,0.17,0.01,0.23c0.07,0.06,0.17,0.05,0.23-0.01l0.52-0.58
	c0.06-0.07,0.05-0.17-0.01-0.23C5.7,18.93,5.66,18.92,5.62,18.92L5.62,18.92z M18.38,18.92c-0.04,0-0.08,0.01-0.12,0.04
	c-0.07,0.06-0.07,0.16-0.01,0.23l0.52,0.58c0.06,0.07,0.16,0.07,0.23,0.01c0.07-0.06,0.07-0.16,0.01-0.23l-0.52-0.58
	C18.47,18.94,18.42,18.92,18.38,18.92L18.38,18.92z M8.56,19.57c-0.06,0-0.12,0.03-0.15,0.1l-0.76,1.7c-0.04,0.08,0,0.18,0.08,0.21
	c0.08,0.04,0.18,0,0.21-0.08l0.76-1.7c0.04-0.08,0-0.18-0.08-0.21C8.6,19.57,8.58,19.57,8.56,19.57L8.56,19.57z M15.43,19.57
	c-0.02,0-0.04,0-0.06,0.01c-0.08,0.04-0.12,0.13-0.08,0.21l0.76,1.7c0.04,0.08,0.13,0.12,0.21,0.08c0.08-0.04,0.12-0.13,0.08-0.21
	l-0.76-1.7C15.56,19.61,15.5,19.57,15.43,19.57L15.43,19.57z M7.22,20.09c-0.05,0-0.1,0.03-0.13,0.08L6.7,20.85
	c-0.04,0.08-0.02,0.18,0.06,0.22c0.08,0.04,0.18,0.02,0.22-0.06l0.39-0.68c0.04-0.08,0.02-0.18-0.06-0.22
	C7.29,20.1,7.26,20.09,7.22,20.09L7.22,20.09z M16.78,20.09c-0.03,0-0.06,0-0.09,0.02c-0.08,0.04-0.1,0.14-0.06,0.22l0.39,0.68
	c0.04,0.08,0.14,0.1,0.22,0.06c0.08-0.04,0.1-0.14,0.06-0.22l-0.39-0.68C16.88,20.12,16.83,20.1,16.78,20.09L16.78,20.09z
	 M10.24,20.12c-0.08,0-0.14,0.05-0.16,0.13L9.7,22.06c-0.02,0.09,0.04,0.17,0.12,0.19c0.09,0.02,0.17-0.04,0.19-0.12l0.39-1.82
	c0.02-0.09-0.04-0.17-0.12-0.19C10.26,20.12,10.25,20.12,10.24,20.12L10.24,20.12z M13.75,20.12c-0.01,0-0.02,0-0.03,0
	c-0.09,0.02-0.14,0.1-0.12,0.19l0.39,1.82c0.02,0.09,0.1,0.14,0.19,0.12c0.09-0.02,0.14-0.1,0.12-0.19l-0.39-1.82
	C13.89,20.17,13.83,20.12,13.75,20.12L13.75,20.12z M12,20.3c-0.09,0-0.16,0.07-0.16,0.16v1.86c0,0.09,0.07,0.16,0.16,0.16
	c0.09,0,0.16-0.07,0.16-0.16v-1.86C12.16,20.37,12.09,20.3,12,20.3z M9.04,20.9c-0.06,0.01-0.12,0.05-0.14,0.11l-0.24,0.74
	c-0.03,0.08,0.02,0.18,0.1,0.2c0.08,0.03,0.18-0.02,0.2-0.1l0.24-0.74c0.03-0.08-0.02-0.18-0.1-0.2C9.08,20.9,9.06,20.9,9.04,20.9
	L9.04,20.9z M14.96,20.9c-0.02,0-0.04,0-0.06,0.01c-0.08,0.03-0.13,0.12-0.1,0.2l0.24,0.74c0.03,0.08,0.12,0.13,0.2,0.1
	c0.08-0.03,0.13-0.12,0.1-0.2l-0.24-0.74C15.08,20.95,15.02,20.91,14.96,20.9L14.96,20.9z M10.99,21.32
	c-0.07,0.01-0.14,0.07-0.14,0.14l-0.08,0.78c-0.01,0.09,0.05,0.17,0.14,0.18c0.09,0.01,0.17-0.05,0.18-0.14l0.08-0.78
	c0.01-0.09-0.05-0.17-0.14-0.18C11.01,21.32,11,21.32,10.99,21.32L10.99,21.32z M13.01,21.32c-0.01,0-0.02,0-0.03,0
	c-0.09,0.01-0.15,0.09-0.14,0.18l0.08,0.78c0.01,0.09,0.09,0.15,0.18,0.14c0.09-0.01,0.15-0.09,0.14-0.18l-0.08-0.78
	C13.14,21.38,13.08,21.32,13.01,21.32L13.01,21.32z"/>
<path fill="#FF5150" d="M13.26,13.32l-2.53-2.65l8.97-6.03L13.26,13.32z"/>
<path fill="#F1F1F1" d="M13.26,13.32l-2.53-2.65l-6.44,8.68L13.26,13.32z"/>
<path opacity="0.243" enable-background="new    " d="M4.29,19.36l8.97-6.03l6.44-8.68L4.29,19.36z"/>
</svg>
