<?xml version="1.0" encoding="utf-8"?>
<!-- Generator: Adobe Illustrator 27.3.1, SVG Export Plug-In . SVG Version: 6.00 Build 0)  -->
<svg version="1.1" id="Calque_1" xmlns="http://www.w3.org/2000/svg" xmlns:xlink="http://www.w3.org/1999/xlink" x="0px" y="0px"
	 width="16px" height="16px" viewBox="0 0 16 16" enable-background="new 0 0 16 16" xml:space="preserve">
<path fill="#5CB8EC" d="M5,8.25v5.5C5,13.89,4.89,14,4.75,14H4v1.75C4,15.89,3.89,16,3.75,16h-0.5C3.11,16,3,15.89,3,15.75V14H2.25
	C2.11,14,2,13.89,2,13.75v-5.5C2,8.11,2.11,8,2.25,8H3V6.25C3,6.11,3.11,6,3.25,6h0.5C3.89,6,4,6.11,4,6.25V8h0.75
	C4.89,8,5,8.11,5,8.25z M10,6.25v4.5C10,10.89,9.89,11,9.75,11H9v1.75C9,12.89,8.89,13,8.75,13h-0.5C8.11,13,8,12.89,8,12.75V11
	H7.25C7.11,11,7,10.89,7,10.75v-4.5C7,6.11,7.11,6,7.25,6H8V4.25C8,4.11,8.11,4,8.25,4h0.5C8.89,4,9,4.11,9,4.25V6h0.75
	C9.89,6,10,6.11,10,6.25z M9,7H8v3h1V7z M15,2.25v5.5C15,7.89,14.89,8,14.75,8H14v1.75C14,9.89,13.89,10,13.75,10h-0.5
	C13.11,10,13,9.89,13,9.75V8h-0.75C12.11,8,12,7.89,12,7.75v-5.5C12,2.11,12.11,2,12.25,2H13V0.25C13,0.11,13.11,0,13.25,0h0.5
	C13.89,0,14,0.11,14,0.25V2h0.75C14.89,2,15,2.11,15,2.25z M14,3h-1v4h1V3z"/>
</svg>
