<?xml version="1.0" encoding="utf-8"?>
<!-- Generator: Adobe Illustrator 27.8.1, SVG Export Plug-In . SVG Version: 6.00 Build 0)  -->
<svg version="1.1" id="Layer_1" xmlns="http://www.w3.org/2000/svg" xmlns:xlink="http://www.w3.org/1999/xlink" x="0px" y="0px"
	 viewBox="0 0 48 48" style="enable-background:new 0 0 48 48;" xml:space="preserve">
<style type="text/css">
	.st0{fill:#007A3D;}
	.st1{fill:#FFFFFF;}
</style>
<g>
	<circle class="st0" cx="24" cy="24" r="20"/>
	<g transform="translate(-1.8222656,-2.5957797)">
		<path class="st1" d="M35.1,26.2c-0.2,0.3-0.6,0.5-1,0.8c-0.4,0.3-0.9,0.5-1.5,0.7c-0.6,0.2-1.3,0.4-2.1,0.5
			c-0.8,0.1-1.7,0.2-2.8,0.3c-0.1,0.3-0.2,0.6-0.3,0.9c-0.1,0.3-0.2,0.7-0.3,1H27c0,0-0.1-0.1-0.1-0.2c0-0.1-0.1-0.2-0.1-0.3
			c0-0.2,0.1-0.5,0.1-0.7c0.1-0.2,0.1-0.5,0.2-0.7c-0.5,0-0.9-0.1-1.3-0.2c0,1.7-0.4,3.3-1.2,4.8c-0.9,1.6-2.7,2.4-5.5,2.4
			c-1.1,0-2-0.3-2.7-1c-0.7-0.7-1.1-1.5-1.1-2.5c0-1,0.5-2.3,1.5-3.8l0.3,0.1c-0.7,1.2-1,2.2-1,3c0,0.4,0.1,0.7,0.3,1.1
			c0.2,0.3,0.5,0.6,0.8,0.8c0.4,0.2,0.8,0.4,1.3,0.5c0.5,0.1,1.1,0.2,1.7,0.2c1,0,1.9-0.2,2.7-0.5c0.8-0.3,1.4-0.8,1.7-1.3
			c0.3-0.5,0.4-1.2,0.4-2.2c0-0.5-0.1-1.1-0.2-1.6c-0.2-0.5-0.4-1-0.7-1.4l0.7-1.6c0.2,0.2,0.3,0.4,0.4,0.7c0.1,0.3,0.2,0.5,0.3,0.6
			c0.3,0.1,0.5,0.2,0.8,0.2c0.3,0,0.5,0.1,0.8,0.1c0.1,0,0.2,0,0.3,0c0.1,0,0.2,0,0.3,0c0.5-0.8,1-1.6,1.6-2.2
			c0.6-0.7,1.2-1.3,1.8-1.8c0.5-0.4,1-0.8,1.5-1c0.5-0.2,0.9-0.4,1.2-0.4c0.3,0,0.6,0.1,0.9,0.2c0.3,0.1,0.6,0.3,0.8,0.4
			c0.2,0.2,0.4,0.4,0.5,0.5c0.1,0.2,0.2,0.4,0.2,0.5c0,0.4,0,0.7-0.1,1c-0.1,0.3-0.2,0.6-0.3,0.8c-0.1,0.2-0.2,0.5-0.4,0.7
			C35.4,25.9,35.3,26,35.1,26.2z M33.4,23.3c-0.2,0-0.6,0.1-0.9,0.2c-0.4,0.2-0.8,0.4-1.2,0.7c-0.4,0.3-0.9,0.7-1.4,1.1
			c-0.5,0.4-0.9,0.9-1.3,1.5c0.2,0,0.3,0,0.4,0c0.1,0,0.3,0,0.5,0c0.6,0,1.3-0.1,1.9-0.3c0.6-0.1,1.3-0.4,2-0.6
			c0.6-0.2,1-0.4,1.4-0.7c0.3-0.2,0.6-0.4,0.7-0.6c-0.1-0.2-0.2-0.3-0.4-0.5c-0.2-0.2-0.3-0.3-0.5-0.4c-0.2-0.1-0.4-0.2-0.6-0.3
			C33.8,23.3,33.6,23.3,33.4,23.3L33.4,23.3z M31,18.8l-0.9,1.4l-1.3-1.1l0.9-1.4L31,18.8z"/>
	</g>
</g>
</svg>
