<svg width="40" height="40" viewBox="0 0 40 40" fill="none" xmlns="http://www.w3.org/2000/svg">
<g clip-path="url(#clip0_234_901)">
<mask id="mask0_234_901" style="mask-type:luminance" maskUnits="userSpaceOnUse" x="0" y="0" width="40" height="40">
<path d="M40 0H0V40H40V0Z" fill="white"/>
</mask>
<g mask="url(#mask0_234_901)">
<path d="M20 2C29.9 2 38 10.1 38 20C38 29.9 29.9 38 20 38C10.1 38 2 29.9 2 20C2 10.1 10.1 2 20 2ZM20 0C9 0 0 9 0 20C0 31 9 40 20 40C31 40 40 31 40 20C40 9 31 0 20 0ZM26.8 13.9C26.4 13.5 25.8 13.6 25.4 14L17.6 22.8L14.1 18.8C13.7 18.4 13.1 18.4 12.7 18.7C12.3 19.1 12.3 19.7 12.6 20.1L16.9 24.9C17.1 25.1 17.3 25.2 17.6 25.2C17.9 25.2 18.2 25.1 18.3 24.9L26.8 15.3C27.2 14.9 27.2 14.2 26.8 13.9Z" fill="#5CB8EC"/>
</g>
</g>
<defs>
<clipPath id="clip0_234_901">
<rect width="40" height="40" fill="white"/>
</clipPath>
</defs>
</svg>
