<?xml version="1.0" encoding="utf-8"?>
<!-- Generator: Adobe Illustrator 25.0.0, SVG Export Plug-In . SVG Version: 6.00 Build 0)  -->
<svg version="1.1" id="Calque_1" xmlns="http://www.w3.org/2000/svg" xmlns:xlink="http://www.w3.org/1999/xlink" x="0px" y="0px"
	 width="40px" height="40px" viewBox="0 0 40 40" style="enable-background:new 0 0 40 40;" xml:space="preserve">
<style type="text/css">
	.st0{fill:#1197F8;}
</style>
<path class="st0" d="M20,2c9.9,0,18,8.1,18,18s-8.1,18-18,18S2,29.9,2,20S10.1,2,20,2 M20,0C9,0,0,9,0,20s9,20,20,20s20-9,20-20
	S31,0,20,0L20,0z M26.8,13.9c-0.4-0.4-1-0.3-1.4,0.1l-7.8,8.8l-3.5-4c-0.4-0.4-1-0.4-1.4-0.1c-0.4,0.4-0.4,1-0.1,1.4l4.3,4.8l0,0
	c0.2,0.2,0.4,0.3,0.7,0.3s0.6-0.1,0.7-0.3l0,0l8.5-9.6C27.2,14.9,27.2,14.2,26.8,13.9z"/>
</svg>
