<svg version="1.1" id="Calque_1" xmlns="http://www.w3.org/2000/svg" xmlns:xlink="http://www.w3.org/1999/xlink" x="0px" y="0px"
	 width="26px" height="22px" viewBox="0 0 26 22" enable-background="new 0 0 26 22" xml:space="preserve">
<path d="M24,0H2C0.9,0,0,0.9,0,2v13c0,1.1,0.9,2,2,2h9v2H8c-1.31,0-2.42,0.84-2.83,2H2.5C2.22,21,2,21.22,2,21.5
	C2,21.78,2.22,22,2.5,22h21c0.28,0,0.5-0.22,0.5-0.5c0-0.28-0.22-0.5-0.5-0.5h-2.67c-0.41-1.16-1.52-2-2.83-2h-3v-2h9
	c1.1,0,2-0.9,2-2V2C26,0.9,25.1,0,24,0z M18,20c0.74,0,1.39,0.4,1.73,1H6.27c0.35-0.6,0.99-1,1.73-1H18z M14,19h-2v-2h2V19z M25,15
	c0,0.55-0.45,1-1,1H2c-0.55,0-1-0.45-1-1V2c0-0.55,0.45-1,1-1h22c0.55,0,1,0.45,1,1V15z"/>
</svg>
