<?xml version="1.0" encoding="utf-8"?>
<!-- Generator: Adobe Illustrator 26.0.1, SVG Export Plug-In . SVG Version: 6.00 Build 0)  -->
<svg version="1.1" id="Calque_1" xmlns="http://www.w3.org/2000/svg" xmlns:xlink="http://www.w3.org/1999/xlink" x="0px" y="0px"
	 fill="#5CB8EC" width="24px" height="48px" viewBox="0 0 24 48" enable-background="new 0 0 24 48" xml:space="preserve">
<path d="M20,12c0,0.55-0.45,1-1,1h-6v6c0,0.55-0.45,1-1,1s-1-0.45-1-1v-6H5c-0.55,0-1-0.45-1-1c0-0.55,0.45-1,1-1h6V5
	c0-0.55,0.45-1,1-1s1,0.45,1,1v6h6C19.55,11,20,11.45,20,12z M19,37c0.55,0,1-0.45,1-1c0-0.55-0.45-1-1-1H5c-0.55,0-1,0.45-1,1
	c0,0.55,0.45,1,1,1H19z"/>
</svg>
