<?xml version="1.0" encoding="utf-8"?>
<!-- Generator: $$$/GeneralStr/196=Adobe Illustrator 27.6.0, SVG Export Plug-In . SVG Version: 6.00 Build 0)  -->
<svg version="1.1" id="Calque_1" xmlns="http://www.w3.org/2000/svg" xmlns:xlink="http://www.w3.org/1999/xlink" x="0px" y="0px"
	 width="346px" height="73px" viewBox="0 0 346 73" enable-background="new 0 0 346 73" xml:space="preserve">
<path fill="#F6594B" d="M34.85,24.15l7.75,1.29L27.76,38.06l-9.82-16.73l8.04,1.34C26.68,10.91,37.14-9.94,58,5.47
	C45.5,0.45,36.3,3.23,34.85,24.15z"/>
<path fill="#32C832" d="M21.25,50.83l-7.11-1.18l13.62-11.58l9.02,15.36l-7.38-1.23C28.74,62.99,19.14,82.12,0,67.98
	C11.47,72.58,19.92,70.03,21.25,50.83z"/>
<path fill="#FFFFFF" d="M67.18,30.55H63v9.63h-5V15.09h9.18c6,0,9,3.41,9,7.77C76.18,26.67,73.61,30.55,67.18,30.55z M66.96,26.49
	c2.82,0,4.07-1.4,4.07-3.63c0-2.3-1.25-3.67-4.07-3.67H63v7.3H66.96z M88.18,19.94c3.18,0,5.36,1.51,6.54,3.16v-2.84h5.04v19.92
	h-5.04v-2.91c-1.18,1.73-3.43,3.24-6.57,3.24c-5,0-9-4.13-9-10.35C79.14,23.94,83.14,19.94,88.18,19.94z M89.46,24.37
	c-2.68,0-5.21,2.01-5.21,5.79c0,3.78,2.54,5.93,5.21,5.93c2.75,0,5.25-2.09,5.25-5.86S92.21,24.37,89.46,24.37z M116.89,19.94
	c5.07,0,9.04,3.99,9.04,10.21c0,6.22-3.96,10.35-9.04,10.35c-3.11,0-5.32-1.55-6.54-3.16v12.33h-5V20.27h5v2.88
	C111.54,21.45,113.82,19.94,116.89,19.94z M115.57,24.37c-2.68,0-5.21,2.09-5.21,5.86s2.54,5.86,5.21,5.86
	c2.71,0,5.25-2.16,5.25-5.93C120.82,26.38,118.28,24.37,115.57,24.37z M138.93,40.51c-5.75,0-9.93-4.03-9.93-10.28
	c0-6.29,4.07-10.28,9.93-10.28c5.71,0,9.75,3.92,9.75,9.85c0,0.65-0.03,1.29-0.14,1.94h-14.46c0.25,2.95,2.25,4.6,4.75,4.6
	c2.14,0,3.32-1.08,3.96-2.41h5.39C147.11,37.6,143.82,40.51,138.93,40.51z M134.11,28.36h9.39c-0.07-2.62-2.14-4.28-4.71-4.28
	C136.39,24.08,134.5,25.63,134.11,28.36z M158.04,40.19h-5V20.27h5v3.09c1.25-2.05,3.32-3.38,6.07-3.38v5.28h-1.32
	c-2.96,0-4.75,1.15-4.75,5V40.19z M176.07,15.09h18.28v4.06h-6.64v21.03h-5V19.15h-6.64V15.09z M203.71,40.19h-5V20.27h5v3.09
	c1.25-2.05,3.32-3.38,6.07-3.38v5.28h-1.32c-2.96,0-4.75,1.15-4.75,5V40.19z M221.61,19.94c3.18,0,5.36,1.51,6.54,3.16v-2.84h5.04
	v19.92h-5.04v-2.91c-1.18,1.73-3.43,3.24-6.57,3.24c-5,0-9-4.13-9-10.35C212.57,23.94,216.57,19.94,221.61,19.94z M222.89,24.37
	c-2.68,0-5.21,2.01-5.21,5.79c0,3.78,2.54,5.93,5.21,5.93c2.75,0,5.25-2.09,5.25-5.86S225.64,24.37,222.89,24.37z M246.57,19.94
	c2.61,0,5.11,1.22,6.46,3.09v-9.46h5.07v26.6h-5.07v-2.95c-1.18,1.83-3.39,3.27-6.5,3.27c-5.04,0-9.04-4.13-9.04-10.35
	C237.5,23.94,241.5,19.94,246.57,19.94z M247.82,24.37c-2.68,0-5.21,2.01-5.21,5.79c0,3.78,2.54,5.93,5.21,5.93
	c2.75,0,5.25-2.09,5.25-5.86S250.57,24.37,247.82,24.37z M263.18,14.95c0-1.65,1.29-2.95,3.07-2.95c1.75,0,3.07,1.29,3.07,2.95
	c0,1.65-1.32,2.95-3.07,2.95C264.46,17.9,263.18,16.6,263.18,14.95z M263.71,20.27h5v19.92h-5V20.27z M288.21,29.18
	c0-3.2-1.75-4.93-4.39-4.93c-2.71,0-4.46,1.73-4.46,4.93v11h-5V20.27h5v2.48c1.29-1.69,3.43-2.77,5.96-2.77
	c4.61,0,7.89,3.02,7.89,8.52v11.68h-5V29.18z M306.43,19.94c3.11,0,5.36,1.44,6.54,3.16v-2.84H318v20.06c0,5.39-3.29,9.67-9.79,9.67
	c-5.57,0-9.46-2.8-9.96-7.37h4.96c0.5,1.8,2.36,2.98,4.86,2.98c2.75,0,4.89-1.58,4.89-5.29v-3.09c-1.18,1.73-3.43,3.27-6.54,3.27
	c-5.04,0-9.04-4.13-9.04-10.35C297.39,23.94,301.39,19.94,306.43,19.94z M307.71,24.37c-2.68,0-5.21,2.01-5.21,5.79
	c0,3.78,2.54,5.93,5.21,5.93c2.75,0,5.25-2.09,5.25-5.86S310.46,24.37,307.71,24.37z"/>
<path fill="#5CB8EC" d="M212.59,58.7h-1.4v3.21h-1.68v-8.37h3.08c2.02,0,3.02,1.14,3.02,2.59C215.62,57.41,214.75,58.7,212.59,58.7z
	 M212.52,57.35c0.95,0,1.37-0.47,1.37-1.21c0-0.77-0.42-1.22-1.37-1.22h-1.33v2.43H212.52z M222.95,53.54
	c2.01,0,3.02,1.16,3.02,2.57c0,1.02-0.56,2.05-1.91,2.41l2,3.39h-1.94l-1.85-3.26h-0.79v3.26h-1.68v-8.37H222.95z M222.89,54.94
	h-1.4v2.46h1.4c0.94,0,1.36-0.49,1.36-1.25C224.25,55.4,223.83,54.94,222.89,54.94z M234.39,62c-2.36,0-4.29-1.78-4.29-4.29
	c0-2.51,1.93-4.28,4.29-4.28c2.39,0,4.28,1.77,4.28,4.28C238.67,60.22,236.76,62,234.39,62z M234.39,60.5
	c1.51,0,2.55-1.09,2.55-2.79s-1.04-2.77-2.55-2.77c-1.52,0-2.57,1.07-2.57,2.77S232.86,60.5,234.39,60.5z M246.06,53.54
	c2.02,0,3.02,1.16,3.02,2.57c0,1.02-0.56,2.05-1.91,2.41l2,3.39h-1.94l-1.85-3.26h-0.79v3.26h-1.68v-8.37H246.06z M246,54.94h-1.4
	v2.46h1.4c0.94,0,1.36-0.49,1.36-1.25C247.36,55.4,246.94,54.94,246,54.94z M258.47,54.9h-3.18V57h2.82v1.33h-2.82v2.22h3.18v1.37
	h-4.86v-8.38h4.86V54.9z M268.13,60.32h-3.33l-0.55,1.59h-1.76l3.01-8.38h1.96l3.01,8.38h-1.78L268.13,60.32z M266.46,55.48
	l-1.21,3.5h2.42L266.46,55.48z M276.27,53.54v7.04h2.76v1.33h-4.44v-8.37H276.27z M282.65,53.54h6.14v1.35h-2.23v7.02h-1.68V54.9
	h-2.23V53.54z M293.02,53.54h1.68v8.37h-1.68V53.54z M299.36,53.54h1.91l2.66,6.22l2.66-6.22h1.9v8.37h-1.68v-5.45l-2.24,5.45h-1.27
	l-2.25-5.45v5.45h-1.68V53.54z M318,54.9h-3.18V57h2.82v1.33h-2.82v2.22H318v1.37h-4.86v-8.38H318V54.9z M191.06,55.22
	c1.77,0,3.12,1.32,3.12,3.37c0,2.04-1.36,3.42-3.12,3.42c-1.2,0-2.05-0.6-2.46-1.32v1.21h-1.09v-8.88h1.09v3.53
	C189.02,55.82,189.9,55.22,191.06,55.22z M190.83,56.17c-1.19,0-2.23,0.91-2.23,2.43c0,1.55,1.04,2.45,2.23,2.45
	c1.21,0,2.23-0.91,2.23-2.46C193.07,57.05,192.05,56.17,190.83,56.17z M200.76,55.33h1.13L197.93,65h-1.13l1.29-3.17l-2.65-6.5h1.21
	l2.06,5.33L200.76,55.33z M181,61H58v1h123V61z"/>
</svg>
