<?xml version="1.0" encoding="utf-8"?>
<!-- Generator: Adobe Illustrator 25.4.1, SVG Export Plug-In . SVG Version: 6.00 Build 0)  -->
<svg version="1.1" id="Calque_1" xmlns="http://www.w3.org/2000/svg" xmlns:xlink="http://www.w3.org/1999/xlink" x="0px" y="0px"
	 width="48px" height="48px" viewBox="0 0 48 48" enable-background="new 0 0 48 48" xml:space="preserve">
<path d="M16,18c0,0.55-0.45,1-1,1s-1-0.45-1-1s0.45-1,1-1S16,17.45,16,18z M18,17c-0.55,0-1,0.45-1,1s0.45,1,1,1s1-0.45,1-1
	S18.55,17,18,17z M21,17c-0.55,0-1,0.45-1,1s0.45,1,1,1s1-0.45,1-1S21.55,17,21,17z M37,13h-5c-0.55,0-1,0.45-1,1s0.45,1,1,1h2.59
	l-9.29,9.29c-0.39,0.39-0.39,1.02,0,1.41s1.02,0.39,1.41,0L36,16.41V19c0,0.55,0.45,1,1,1s1-0.45,1-1v-5C38,13.45,37.55,13,37,13z
	 M38,31v-6c0-0.55-0.45-1-1-1s-1,0.45-1,1v6c0,1.1-0.9,2-2,2H14c-1.1,0-2-0.9-2-2V17c0-1.1,0.9-2,2-2h12c0.55,0,1-0.45,1-1
	s-0.45-1-1-1H14c-2.21,0-4,1.79-4,4v14c0,2.21,1.79,4,4,4h20C36.21,35,38,33.21,38,31z"/>
</svg>
