<?xml version="1.0" encoding="utf-8"?>
<!-- Generator: Adobe Illustrator 25.4.1, SVG Export Plug-In . SVG Version: 6.00 Build 0)  -->
<svg version="1.1" id="Calque_1" xmlns="http://www.w3.org/2000/svg" xmlns:xlink="http://www.w3.org/1999/xlink" x="0px" y="0px"
	 width="48px" height="48px" viewBox="0 0 48 48" enable-background="new 0 0 48 48" xml:space="preserve">
<path d="M4,35h40c0.55,0,1,0.45,1,1l0,0c0,0.55-0.45,1-1,1H4c-0.55,0-1-0.45-1-1l0,0C3,35.45,3.45,35,4,35z M27.71,22.29
	c-0.39-0.39-1.02-0.39-1.41,0L25,23.59V12c0-0.55-0.45-1-1-1h0c-0.55,0-1,0.45-1,1v11.59l-1.29-1.29c-0.39-0.39-1.02-0.39-1.41,0
	s-0.39,1.02,0,1.41l3,3C23.49,26.9,23.74,27,24,27s0.51-0.1,0.71-0.29l3-3C28.1,23.32,28.1,22.68,27.71,22.29z M40,29V15
	c0-2.21-1.79-4-4-4h-6c-0.55,0-1,0.45-1,1s0.45,1,1,1h6c1.1,0,2,0.9,2,2v14c0,1.1-0.9,2-2,2H12c-1.1,0-2-0.9-2-2V15c0-1.1,0.9-2,2-2
	h6c0.55,0,1-0.45,1-1s-0.45-1-1-1h-6c-2.21,0-4,1.79-4,4v14c0,2.21,1.79,4,4,4h24C38.21,33,40,31.21,40,29z"/>
</svg>
