<?xml version="1.0" encoding="utf-8"?>
<!-- Generator: Adobe Illustrator 25.4.1, SVG Export Plug-In . SVG Version: 6.00 Build 0)  -->
<svg version="1.1" id="Calque_1" xmlns="http://www.w3.org/2000/svg" xmlns:xlink="http://www.w3.org/1999/xlink" x="0px" y="0px"
	 width="48px" height="48px" viewBox="0 0 48 48" enable-background="new 0 0 48 48" xml:space="preserve">
<path d="M26,35c0,1.1-0.9,2-2,2s-2-0.9-2-2s0.9-2,2-2S26,33.9,26,35z M35,37V11c0-2.21-1.79-4-4-4H17c-2.21,0-4,1.79-4,4v26
	c0,2.21,1.79,4,4,4h14C33.21,41,35,39.21,35,37z M31,9c1.1,0,2,0.9,2,2v26c0,1.1-0.9,2-2,2H17c-1.1,0-2-0.9-2-2V11c0-1.1,0.9-2,2-2
	H31z"/>
</svg>
