<?xml version="1.0" encoding="utf-8"?>
<!-- Generator: $$$/GeneralStr/196=Adobe Illustrator 27.6.0, SVG Export Plug-In . SVG Version: 6.00 Build 0)  -->
<svg version="1.1" id="Calque_1" xmlns="http://www.w3.org/2000/svg" xmlns:xlink="http://www.w3.org/1999/xlink" x="0px" y="0px"
	 width="20px" height="20px" viewBox="0 0 20 20" enable-background="new 0 0 20 20" xml:space="preserve">
<path d="M10,0C4.48,0,0,4.48,0,10c0,5.52,4.48,10,10,10s10-4.48,10-10C20,4.48,15.52,0,10,0z M13.83,7.56l-3.99,5.99
	C9.66,13.82,9.35,14,9,14c-0.35,0-0.66-0.18-0.84-0.46l-1.99-2.98C5.86,10.1,5.99,9.47,6.45,9.17C6.9,8.86,7.53,8.99,7.83,9.45
	L9,11.2l3.17-4.75c0.3-0.46,0.93-0.59,1.39-0.28C14.01,6.47,14.14,7.1,13.83,7.56z"/>
</svg>
