<?xml version="1.0" encoding="utf-8"?>
<!-- Generator: $$$/GeneralStr/196=Adobe Illustrator 27.6.0, SVG Export Plug-In . SVG Version: 6.00 Build 0)  -->
<svg version="1.1" id="Calque_1" xmlns="http://www.w3.org/2000/svg" xmlns:xlink="http://www.w3.org/1999/xlink" x="0px" y="0px"
	 width="38px" height="180px" viewBox="0 0 38 180" enable-background="new 0 0 38 180" xml:space="preserve">
<path fill="#FFDC0A" d="M19,72.5V102c-0.26,0-0.51,0.06-0.74,0.18L10,106.5l-1.79,0.93c-0.26,0.14-0.56,0.06-0.74-0.15
	c-0.08-0.09-0.16-0.25-0.12-0.47L9.27,95.7c0.09-0.52-0.08-1.04-0.46-1.41l-8.13-7.87c-0.16-0.16-0.22-0.38-0.15-0.6
	c0.07-0.22,0.25-0.37,0.48-0.4l8.99-1.3l2.24-0.32c0.52-0.08,0.97-0.4,1.2-0.87l5.02-10.12C18.57,72.6,18.78,72.5,19,72.5z
	 M37.32,158.41c0.16-0.16,0.22-0.38,0.15-0.6c-0.07-0.22-0.25-0.37-0.48-0.4l-8.99-1.3l-2.24-0.32c-0.52-0.08-0.97-0.4-1.2-0.87
	l-5.02-10.11c-0.1-0.21-0.32-0.31-0.53-0.31s-0.43,0.1-0.53,0.31l-5.02,10.12c-0.23,0.47-0.68,0.79-1.2,0.87L10,156.12l-8.99,1.3
	c-0.23,0.03-0.41,0.18-0.48,0.4c-0.07,0.22-0.01,0.44,0.15,0.6l8.13,7.87c0.38,0.36,0.55,0.89,0.46,1.41l-1.92,11.12
	c-0.04,0.22,0.05,0.38,0.12,0.47c0.18,0.21,0.48,0.28,0.74,0.15L10,178.5l8.26-4.32c0.23-0.12,0.49-0.18,0.74-0.18
	s0.51,0.06,0.74,0.18L28,178.5l1.79,0.93c0.25,0.13,0.56,0.06,0.74-0.15c0.08-0.09,0.16-0.25,0.12-0.47l-1.92-11.12
	c-0.09-0.52,0.08-1.04,0.46-1.41L37.32,158.41z M12,47.83l-2,0.29l-8.99,1.3c-0.23,0.03-0.41,0.18-0.48,0.4
	c-0.07,0.22-0.01,0.44,0.15,0.6l8.13,7.87c0.38,0.36,0.55,0.89,0.46,1.41L7.35,70.81c-0.04,0.22,0.05,0.38,0.12,0.47
	c0.18,0.21,0.48,0.28,0.74,0.15L10,70.5l2-1.05V47.83z M26,119.83l-0.24-0.03c-0.52-0.08-0.97-0.4-1.2-0.87l-5.02-10.11
	c-0.1-0.21-0.32-0.31-0.53-0.31s-0.43,0.1-0.53,0.31l-5.02,10.12c-0.23,0.47-0.68,0.79-1.2,0.87L10,120.12l-8.99,1.3
	c-0.23,0.03-0.41,0.18-0.48,0.4c-0.07,0.22-0.01,0.44,0.15,0.6l8.13,7.87c0.38,0.36,0.55,0.89,0.46,1.41l-1.92,11.12
	c-0.04,0.22,0.05,0.38,0.12,0.47c0.18,0.21,0.48,0.28,0.74,0.15L10,142.5l8.26-4.32c0.23-0.12,0.49-0.18,0.74-0.18
	s0.51,0.06,0.74,0.18l6.26,3.27V119.83z"/>
<path fill="#FFAA00" d="M19,1c0.06,0,0.08,0.03,0.09,0.05l5.02,10.11c0.31,0.62,0.9,1.04,1.58,1.14l11.23,1.62
	c0.02,0,0.06,0.01,0.08,0.06c0.02,0.05-0.01,0.07-0.02,0.09l-8.13,7.87c-0.5,0.48-0.72,1.17-0.6,1.85l1.92,11.11
	c0,0.03,0,0.04-0.01,0.06c-0.02,0.02-0.04,0.03-0.08,0.03c-0.01,0-0.03,0-0.05-0.01l-10.05-5.25c-0.3-0.16-0.64-0.24-0.97-0.24
	c-0.34,0-0.67,0.08-0.97,0.24L7.93,35c-0.03,0-0.06-0.02-0.08-0.04c-0.02-0.02-0.02-0.03-0.01-0.06l1.92-11.11
	c0.12-0.68-0.11-1.37-0.6-1.85l-8.13-7.87c-0.02-0.02-0.04-0.04-0.02-0.09c0.02-0.05,0.06-0.06,0.08-0.06l11.23-1.62
	c0.68-0.1,1.27-0.52,1.58-1.14l5.02-10.11C18.92,1.03,18.94,1,19,1z M19,0c-0.39,0-0.78,0.2-0.98,0.61L13,10.71
	c-0.16,0.32-0.47,0.54-0.82,0.59L0.94,12.93c-0.9,0.13-1.26,1.23-0.61,1.85l8.13,7.87c0.26,0.25,0.38,0.61,0.31,0.96L6.86,34.73
	C6.73,35.43,7.3,36,7.93,36c0.17,0,0.34-0.04,0.51-0.13l10.05-5.25c0.16-0.08,0.33-0.12,0.51-0.12s0.35,0.04,0.51,0.12l10.05,5.25
	C29.72,35.96,29.9,36,30.07,36c0.64,0,1.2-0.57,1.08-1.27l-1.92-11.11c-0.06-0.35,0.06-0.71,0.31-0.96l8.13-7.87
	c0.65-0.63,0.29-1.73-0.61-1.85l-11.23-1.62c-0.36-0.05-0.66-0.27-0.82-0.59L19.98,0.61C19.78,0.2,19.39,0,19,0L19,0z M19,73
	c0.06,0,0.08,0.03,0.09,0.05l5.02,10.11c0.31,0.62,0.9,1.04,1.58,1.14l11.23,1.62c0.02,0,0.06,0.01,0.08,0.06
	c0.02,0.05-0.01,0.07-0.02,0.09l-8.13,7.87c-0.5,0.48-0.72,1.17-0.6,1.85l1.92,11.11c0,0.03,0,0.04-0.01,0.06
	c-0.02,0.02-0.04,0.03-0.08,0.03c-0.01,0-0.03,0-0.05-0.01l-10.05-5.25c-0.3-0.16-0.64-0.24-0.97-0.24c-0.34,0-0.67,0.08-0.97,0.24
	L7.93,107c-0.03,0-0.06-0.02-0.08-0.04c-0.02-0.02-0.02-0.03-0.01-0.06l1.92-11.11c0.12-0.68-0.11-1.37-0.6-1.85l-8.13-7.87
	c-0.02-0.02-0.04-0.04-0.02-0.09c0.02-0.05,0.06-0.06,0.08-0.06l11.23-1.62c0.68-0.1,1.27-0.52,1.58-1.14l5.02-10.11
	C18.92,73.03,18.94,73,19,73z M19,72c-0.39,0-0.78,0.2-0.98,0.61L13,82.71c-0.16,0.32-0.47,0.54-0.82,0.59L0.94,84.93
	c-0.9,0.13-1.26,1.23-0.61,1.85l8.13,7.87c0.26,0.25,0.38,0.61,0.31,0.96l-1.92,11.11C6.73,107.43,7.3,108,7.93,108
	c0.17,0,0.34-0.04,0.51-0.13l10.05-5.25c0.16-0.08,0.33-0.12,0.51-0.12s0.35,0.04,0.51,0.12l10.05,5.25
	c0.17,0.09,0.34,0.13,0.51,0.13c0.64,0,1.2-0.57,1.08-1.27l-1.92-11.11c-0.06-0.35,0.06-0.71,0.31-0.96l8.13-7.87
	c0.65-0.63,0.29-1.73-0.61-1.85l-11.23-1.62c-0.36-0.05-0.66-0.27-0.82-0.59l-5.02-10.11C19.78,72.2,19.39,72,19,72L19,72z M19,37
	c0.06,0,0.08,0.03,0.09,0.05l5.02,10.11c0.31,0.62,0.9,1.04,1.58,1.14l11.23,1.62c0.02,0,0.06,0.01,0.08,0.06
	c0.02,0.05-0.01,0.07-0.02,0.09l-8.13,7.87c-0.5,0.48-0.72,1.17-0.6,1.85l1.92,11.11c0,0.03,0,0.04-0.01,0.06
	c-0.02,0.02-0.04,0.03-0.08,0.03c-0.01,0-0.03,0-0.05-0.01l-10.05-5.25c-0.3-0.16-0.64-0.24-0.97-0.24c-0.34,0-0.67,0.08-0.97,0.24
	L7.93,71c-0.03,0-0.06-0.02-0.08-0.04c-0.02-0.02-0.02-0.03-0.01-0.06l1.92-11.11c0.12-0.68-0.11-1.37-0.6-1.85l-8.13-7.87
	c-0.02-0.02-0.04-0.04-0.02-0.09c0.02-0.05,0.06-0.06,0.08-0.06l11.23-1.62c0.68-0.1,1.27-0.52,1.58-1.14l5.02-10.11
	C18.92,37.03,18.94,37,19,37z M19,36c-0.39,0-0.78,0.2-0.98,0.61L13,46.71c-0.16,0.32-0.47,0.54-0.82,0.59L0.94,48.93
	c-0.9,0.13-1.26,1.23-0.61,1.85l8.13,7.87c0.26,0.25,0.38,0.61,0.31,0.96L6.86,70.73C6.73,71.43,7.3,72,7.93,72
	c0.17,0,0.34-0.04,0.51-0.13l10.05-5.25c0.16-0.08,0.33-0.12,0.51-0.12s0.35,0.04,0.51,0.12l10.05,5.25
	C29.72,71.96,29.9,72,30.07,72c0.64,0,1.2-0.57,1.08-1.27l-1.92-11.11c-0.06-0.35,0.06-0.71,0.31-0.96l8.13-7.87
	c0.65-0.63,0.29-1.73-0.61-1.85l-11.23-1.62c-0.36-0.05-0.66-0.27-0.82-0.59l-5.02-10.11C19.78,36.2,19.39,36,19,36L19,36z M19,145
	c0.06,0,0.08,0.03,0.09,0.05l5.02,10.11c0.31,0.62,0.9,1.04,1.58,1.14l11.23,1.62c0.02,0,0.06,0.01,0.08,0.06
	c0.02,0.05-0.01,0.07-0.02,0.09l-8.13,7.87c-0.5,0.48-0.72,1.17-0.6,1.85l1.92,11.11c0,0.03,0,0.04-0.01,0.06
	c-0.02,0.02-0.04,0.03-0.08,0.03c-0.01,0-0.03,0-0.05-0.01l-10.05-5.25c-0.3-0.16-0.64-0.24-0.97-0.24c-0.34,0-0.67,0.08-0.97,0.24
	L7.93,179c-0.03,0-0.06-0.02-0.08-0.04c-0.02-0.02-0.02-0.03-0.01-0.06l1.92-11.11c0.12-0.68-0.11-1.37-0.6-1.85l-8.13-7.87
	c-0.02-0.02-0.04-0.04-0.02-0.09c0.02-0.05,0.06-0.06,0.08-0.06l11.23-1.62c0.68-0.1,1.27-0.52,1.58-1.14l5.02-10.11
	C18.92,145.03,18.94,145,19,145z M19,144c-0.39,0-0.78,0.2-0.98,0.61L13,154.71c-0.16,0.32-0.47,0.54-0.82,0.59l-11.23,1.62
	c-0.9,0.13-1.26,1.23-0.61,1.85l8.13,7.87c0.26,0.25,0.38,0.61,0.31,0.96l-1.92,11.11C6.73,179.43,7.3,180,7.93,180
	c0.17,0,0.34-0.04,0.51-0.13l10.05-5.25c0.16-0.08,0.33-0.12,0.51-0.12s0.35,0.04,0.51,0.12l10.05,5.25
	c0.17,0.09,0.34,0.13,0.51,0.13c0.64,0,1.2-0.57,1.08-1.27l-1.92-11.11c-0.06-0.35,0.06-0.71,0.31-0.96l8.13-7.87
	c0.65-0.63,0.29-1.73-0.61-1.85l-11.23-1.62c-0.36-0.05-0.66-0.27-0.82-0.59l-5.02-10.11C19.78,144.2,19.39,144,19,144L19,144z
	 M19,109c0.06,0,0.08,0.03,0.09,0.05l5.02,10.11c0.31,0.62,0.9,1.04,1.58,1.14l11.23,1.62c0.02,0,0.06,0.01,0.08,0.06
	c0.02,0.05-0.01,0.07-0.02,0.09l-8.13,7.87c-0.5,0.48-0.72,1.17-0.6,1.85l1.92,11.11c0,0.03,0,0.04-0.01,0.06
	c-0.02,0.02-0.04,0.03-0.08,0.03c-0.01,0-0.03,0-0.05-0.01l-10.05-5.25c-0.3-0.16-0.64-0.24-0.97-0.24c-0.34,0-0.67,0.08-0.97,0.24
	L7.93,143c-0.03,0-0.06-0.02-0.08-0.04c-0.02-0.02-0.02-0.03-0.01-0.06l1.92-11.11c0.12-0.68-0.11-1.37-0.6-1.85l-8.13-7.87
	c-0.02-0.02-0.04-0.04-0.02-0.09c0.02-0.05,0.06-0.06,0.08-0.06l11.23-1.62c0.68-0.1,1.27-0.52,1.58-1.14l5.02-10.11
	C18.92,109.03,18.94,109,19,109z M19,108c-0.39,0-0.78,0.2-0.98,0.61L13,118.71c-0.16,0.32-0.47,0.54-0.82,0.59l-11.23,1.62
	c-0.9,0.13-1.26,1.23-0.61,1.85l8.13,7.87c0.26,0.25,0.38,0.61,0.31,0.96l-1.92,11.11C6.73,143.43,7.3,144,7.93,144
	c0.17,0,0.34-0.04,0.51-0.13l10.05-5.25c0.16-0.08,0.33-0.12,0.51-0.12s0.35,0.04,0.51,0.12l10.05,5.25
	c0.17,0.09,0.34,0.13,0.51,0.13c0.64,0,1.2-0.57,1.08-1.27l-1.92-11.11c-0.06-0.35,0.06-0.71,0.31-0.96l8.13-7.87
	c0.65-0.63,0.29-1.73-0.61-1.85l-11.23-1.62c-0.36-0.05-0.66-0.27-0.82-0.59l-5.02-10.11C19.78,108.2,19.39,108,19,108L19,108z"/>
</svg>
